<svg width="136" height="263" viewBox="0 0 136 263" fill="none" xmlns="http://www.w3.org/2000/svg">
<rect x="-13.8628" y="21.9203" width="20" height="20" rx="10" transform="rotate(-45 -13.8628 21.9203)" fill="#F35418" fill-opacity="0.2"/>
<rect x="-13.8628" y="78.4889" width="20" height="20" rx="10" transform="rotate(-45 -13.8628 78.4889)" fill="#F35418" fill-opacity="0.2"/>
<rect x="14.4214" y="50.2046" width="20" height="20" rx="10" transform="rotate(-45 14.4214 50.2046)" fill="#F35418" fill-opacity="0.2"/>
<rect x="-13.8628" y="135.057" width="20" height="20" rx="10" transform="rotate(-45 -13.8628 135.057)" fill="#F35418" fill-opacity="0.2"/>
<rect x="14.4214" y="106.773" width="20" height="20" rx="10" transform="rotate(-45 14.4214 106.773)" fill="#F35418" fill-opacity="0.2"/>
<rect x="42.7056" y="78.4889" width="20" height="20" rx="10" transform="rotate(-45 42.7056 78.4889)" fill="#F35418" fill-opacity="0.2"/>
<rect x="-13.8628" y="191.626" width="20" height="20" rx="10" transform="rotate(-45 -13.8628 191.626)" fill="#F35418" fill-opacity="0.2"/>
<rect x="14.4214" y="163.342" width="20" height="20" rx="10" transform="rotate(-45 14.4214 163.342)" fill="#F35418" fill-opacity="0.2"/>
<rect x="42.7056" y="135.057" width="20" height="20" rx="10" transform="rotate(-45 42.7056 135.057)" fill="#F35418" fill-opacity="0.2"/>
<rect x="70.9897" y="106.773" width="20" height="20" rx="10" transform="rotate(-45 70.9897 106.773)" fill="#F35418" fill-opacity="0.2"/>
<rect x="-13.8628" y="248.194" width="20" height="20" rx="10" transform="rotate(-45 -13.8628 248.194)" fill="#F35418" fill-opacity="0.2"/>
<rect x="14.4214" y="219.91" width="20" height="20" rx="10" transform="rotate(-45 14.4214 219.91)" fill="#F35418" fill-opacity="0.2"/>
<rect x="42.7056" y="191.626" width="20" height="20" rx="10" transform="rotate(-45 42.7056 191.626)" fill="#F35418" fill-opacity="0.2"/>
<rect x="70.9897" y="163.342" width="20" height="20" rx="10" transform="rotate(-45 70.9897 163.342)" fill="#F35418" fill-opacity="0.2"/>
<rect x="99.2739" y="135.057" width="20" height="20" rx="10" transform="rotate(-45 99.2739 135.057)" fill="#F35418" fill-opacity="0.2"/>
</svg>
