<svg width="552" height="296" viewBox="0 0 552 296" fill="none" xmlns="http://www.w3.org/2000/svg">
<rect width="552" height="296" rx="16" fill="#F8F2F1"/>
<g filter="url(#filter0_d_632_334)">
<path d="M78 50C78 40.6112 85.6112 33 95 33C104.389 33 112 40.6112 112 50C112 59.3888 104.389 67 95 67C85.6112 67 78 59.3888 78 50Z" fill="#F35418" fill-opacity="0.2" shape-rendering="crispEdges"/>
<path d="M90.1845 46.2727L92.6135 53.3807H92.7115L95.1404 46.2727H96.5637L93.4231 55H91.9018L88.7612 46.2727H90.1845ZM101.016 46.2727V55H99.6948V47.5938H99.6436L97.5556 48.9574V47.696L99.7331 46.2727H101.016Z" fill="#F35418"/>
</g>
<path d="M125 51H231.227C234.799 51 238.1 52.906 239.887 56L293.292 148.5M293.292 148.5H464.5M293.292 148.5L239.364 116.407C237.817 115.486 236.05 115 234.25 115H125M293.292 148.5L239.276 178.727C237.783 179.562 236.102 180 234.392 180H125M293.292 148.5L239.894 240.039C238.102 243.111 234.813 245 231.256 245H125" stroke="url(#paint0_linear_632_334)" stroke-width="4"/>
<g filter="url(#filter1_d_632_334)">
<path d="M78 115C78 105.611 85.6112 98 95 98C104.389 98 112 105.611 112 115C112 124.389 104.389 132 95 132C85.6112 132 78 124.389 78 115Z" fill="#F35418" fill-opacity="0.2" shape-rendering="crispEdges"/>
<path d="M88.8407 111.273L91.2697 118.381H91.3677L93.7967 111.273H95.22L92.0794 120H90.5581L87.4174 111.273H88.8407ZM96.361 120V119.045L99.3141 115.986C99.6294 115.653 99.8894 115.362 100.094 115.112C100.301 114.859 100.456 114.619 100.558 114.392C100.661 114.165 100.712 113.923 100.712 113.668C100.712 113.378 100.644 113.128 100.507 112.918C100.371 112.705 100.185 112.541 99.949 112.428C99.7132 112.311 99.4476 112.253 99.1522 112.253C98.8397 112.253 98.5669 112.317 98.334 112.445C98.101 112.572 97.9221 112.753 97.7971 112.986C97.6721 113.219 97.6096 113.491 97.6096 113.804H96.3525C96.3525 113.273 96.4746 112.808 96.7189 112.411C96.9632 112.013 97.2985 111.705 97.7246 111.486C98.1507 111.264 98.6351 111.153 99.1777 111.153C99.726 111.153 100.209 111.263 100.627 111.482C101.047 111.697 101.375 111.993 101.611 112.368C101.847 112.74 101.965 113.161 101.965 113.629C101.965 113.953 101.904 114.27 101.781 114.58C101.662 114.889 101.453 115.234 101.155 115.615C100.857 115.993 100.442 116.452 99.9107 116.991L98.1763 118.807V118.871H102.105V120H96.361Z" fill="#F35418"/>
</g>
<g filter="url(#filter2_d_632_334)">
<path d="M78 180C78 170.611 85.6112 163 95 163C104.389 163 112 170.611 112 180C112 189.389 104.389 197 95 197C85.6112 197 78 189.389 78 180Z" fill="#F35418"/>
<path d="M89.1532 176.273L91.5822 183.381H91.6802L94.1092 176.273H95.5325L92.3919 185H90.8706L87.7299 176.273H89.1532ZM99.7118 185.119C99.1266 185.119 98.6039 185.018 98.1436 184.817C97.6863 184.615 97.324 184.335 97.057 183.977C96.7928 183.616 96.6507 183.199 96.6309 182.724H97.9689C97.986 182.983 98.0726 183.207 98.2289 183.398C98.388 183.585 98.5953 183.73 98.851 183.832C99.1067 183.935 99.3908 183.986 99.7033 183.986C100.047 183.986 100.351 183.926 100.615 183.807C100.882 183.687 101.091 183.521 101.242 183.308C101.392 183.092 101.468 182.844 101.468 182.562C101.468 182.27 101.392 182.013 101.242 181.791C101.094 181.567 100.877 181.391 100.59 181.263C100.306 181.135 99.9618 181.071 99.5584 181.071H98.8212V179.997H99.5584C99.8823 179.997 100.166 179.939 100.411 179.822C100.658 179.706 100.851 179.544 100.99 179.337C101.129 179.126 101.199 178.881 101.199 178.599C101.199 178.33 101.138 178.095 101.016 177.896C100.896 177.695 100.726 177.537 100.504 177.423C100.286 177.31 100.027 177.253 99.7289 177.253C99.4448 177.253 99.1792 177.305 98.932 177.411C98.6877 177.513 98.4888 177.661 98.3354 177.854C98.182 178.044 98.0996 178.273 98.0882 178.54H96.8141C96.8283 178.068 96.9675 177.653 97.2317 177.295C97.4988 176.937 97.851 176.658 98.2885 176.456C98.726 176.254 99.2118 176.153 99.7459 176.153C100.306 176.153 100.789 176.263 101.195 176.482C101.604 176.697 101.919 176.986 102.141 177.347C102.365 177.707 102.476 178.102 102.473 178.531C102.476 179.02 102.34 179.435 102.064 179.776C101.791 180.116 101.428 180.345 100.973 180.462V180.53C101.553 180.618 102.002 180.848 102.32 181.22C102.641 181.592 102.8 182.054 102.797 182.605C102.8 183.085 102.666 183.516 102.396 183.896C102.129 184.277 101.764 184.577 101.301 184.795C100.838 185.011 100.308 185.119 99.7118 185.119Z" fill="white"/>
</g>
<g filter="url(#filter3_d_632_334)">
<path d="M78 245C78 235.611 85.6112 228 95 228C104.389 228 112 235.611 112 245C112 254.389 104.389 262 95 262C85.6112 262 78 254.389 78 245Z" fill="#F35418" fill-opacity="0.2" shape-rendering="crispEdges"/>
<path d="M88.7997 241.273L91.2287 248.381H91.3267L93.7557 241.273H95.179L92.0384 250H90.517L87.3764 241.273H88.7997ZM95.7266 248.295V247.23L99.4979 241.273H100.337V242.841H99.8047L97.1072 247.111V247.179H102.276V248.295H95.7266ZM99.8643 250V247.972L99.8729 247.486V241.273H101.121V250H99.8643Z" fill="#F35418"/>
</g>
<g filter="url(#filter4_d_632_334)">
<path d="M456 148C456 134.193 467.193 123 481 123C494.807 123 506 134.193 506 148C506 161.807 494.807 173 481 173C467.193 173 456 161.807 456 148Z" fill="#F35418"/>
<g clip-path="url(#clip0_632_334)">
<path d="M483.333 136.167H474C473.381 136.167 472.788 136.413 472.35 136.85C471.912 137.288 471.667 137.881 471.667 138.5V159.5C471.667 160.119 471.912 160.713 472.35 161.15C472.788 161.588 473.381 161.834 474 161.834H488C488.619 161.834 489.212 161.588 489.65 161.15C490.087 160.713 490.333 160.119 490.333 159.5V143.167" stroke="white" stroke-width="2" stroke-linecap="round" stroke-linejoin="round"/>
<path d="M483.333 136.167V140.834C483.333 141.452 483.579 142.046 484.017 142.484C484.454 142.921 485.048 143.167 485.667 143.167H490.333L483.333 136.167Z" stroke="white" stroke-width="2" stroke-linecap="round" stroke-linejoin="round"/>
<path d="M478.667 143.167H476.333" stroke="white" stroke-width="2" stroke-linecap="round" stroke-linejoin="round"/>
<path d="M485.667 147.833H476.333" stroke="white" stroke-width="2" stroke-linecap="round" stroke-linejoin="round"/>
<path d="M485.667 152.5H476.333" stroke="white" stroke-width="2" stroke-linecap="round" stroke-linejoin="round"/>
<path d="M485.667 157.167H483.333" stroke="white" stroke-width="2" stroke-linecap="round" stroke-linejoin="round"/>
</g>
</g>
<defs>
<filter id="filter0_d_632_334" x="58" y="14" width="74" height="74" filterUnits="userSpaceOnUse" color-interpolation-filters="sRGB">
<feFlood flood-opacity="0" result="BackgroundImageFix"/>
<feColorMatrix in="SourceAlpha" type="matrix" values="0 0 0 0 0 0 0 0 0 0 0 0 0 0 0 0 0 0 127 0" result="hardAlpha"/>
<feOffset dy="1"/>
<feGaussianBlur stdDeviation="10"/>
<feComposite in2="hardAlpha" operator="out"/>
<feColorMatrix type="matrix" values="0 0 0 0 0 0 0 0 0 0 0 0 0 0 0 0 0 0 0.05 0"/>
<feBlend mode="normal" in2="BackgroundImageFix" result="effect1_dropShadow_632_334"/>
<feBlend mode="normal" in="SourceGraphic" in2="effect1_dropShadow_632_334" result="shape"/>
</filter>
<filter id="filter1_d_632_334" x="58" y="79" width="74" height="74" filterUnits="userSpaceOnUse" color-interpolation-filters="sRGB">
<feFlood flood-opacity="0" result="BackgroundImageFix"/>
<feColorMatrix in="SourceAlpha" type="matrix" values="0 0 0 0 0 0 0 0 0 0 0 0 0 0 0 0 0 0 127 0" result="hardAlpha"/>
<feOffset dy="1"/>
<feGaussianBlur stdDeviation="10"/>
<feComposite in2="hardAlpha" operator="out"/>
<feColorMatrix type="matrix" values="0 0 0 0 0 0 0 0 0 0 0 0 0 0 0 0 0 0 0.05 0"/>
<feBlend mode="normal" in2="BackgroundImageFix" result="effect1_dropShadow_632_334"/>
<feBlend mode="normal" in="SourceGraphic" in2="effect1_dropShadow_632_334" result="shape"/>
</filter>
<filter id="filter2_d_632_334" x="58" y="144" width="74" height="74" filterUnits="userSpaceOnUse" color-interpolation-filters="sRGB">
<feFlood flood-opacity="0" result="BackgroundImageFix"/>
<feColorMatrix in="SourceAlpha" type="matrix" values="0 0 0 0 0 0 0 0 0 0 0 0 0 0 0 0 0 0 127 0" result="hardAlpha"/>
<feOffset dy="1"/>
<feGaussianBlur stdDeviation="10"/>
<feComposite in2="hardAlpha" operator="out"/>
<feColorMatrix type="matrix" values="0 0 0 0 0 0 0 0 0 0 0 0 0 0 0 0 0 0 0.05 0"/>
<feBlend mode="normal" in2="BackgroundImageFix" result="effect1_dropShadow_632_334"/>
<feBlend mode="normal" in="SourceGraphic" in2="effect1_dropShadow_632_334" result="shape"/>
</filter>
<filter id="filter3_d_632_334" x="58" y="209" width="74" height="74" filterUnits="userSpaceOnUse" color-interpolation-filters="sRGB">
<feFlood flood-opacity="0" result="BackgroundImageFix"/>
<feColorMatrix in="SourceAlpha" type="matrix" values="0 0 0 0 0 0 0 0 0 0 0 0 0 0 0 0 0 0 127 0" result="hardAlpha"/>
<feOffset dy="1"/>
<feGaussianBlur stdDeviation="10"/>
<feComposite in2="hardAlpha" operator="out"/>
<feColorMatrix type="matrix" values="0 0 0 0 0 0 0 0 0 0 0 0 0 0 0 0 0 0 0.05 0"/>
<feBlend mode="normal" in2="BackgroundImageFix" result="effect1_dropShadow_632_334"/>
<feBlend mode="normal" in="SourceGraphic" in2="effect1_dropShadow_632_334" result="shape"/>
</filter>
<filter id="filter4_d_632_334" x="436" y="104" width="90" height="90" filterUnits="userSpaceOnUse" color-interpolation-filters="sRGB">
<feFlood flood-opacity="0" result="BackgroundImageFix"/>
<feColorMatrix in="SourceAlpha" type="matrix" values="0 0 0 0 0 0 0 0 0 0 0 0 0 0 0 0 0 0 127 0" result="hardAlpha"/>
<feOffset dy="1"/>
<feGaussianBlur stdDeviation="10"/>
<feComposite in2="hardAlpha" operator="out"/>
<feColorMatrix type="matrix" values="0 0 0 0 0 0 0 0 0 0 0 0 0 0 0 0 0 0 0.05 0"/>
<feBlend mode="normal" in2="BackgroundImageFix" result="effect1_dropShadow_632_334"/>
<feBlend mode="normal" in="SourceGraphic" in2="effect1_dropShadow_632_334" result="shape"/>
</filter>
<linearGradient id="paint0_linear_632_334" x1="125" y1="148" x2="464.5" y2="148" gradientUnits="userSpaceOnUse">
<stop stop-color="#F35418" stop-opacity="0"/>
<stop offset="1" stop-color="#F35418"/>
</linearGradient>
<clipPath id="clip0_632_334">
<rect width="28" height="28" fill="white" transform="translate(467 135)"/>
</clipPath>
</defs>
</svg>
