<svg width="552" height="296" viewBox="0 0 552 296" fill="none" xmlns="http://www.w3.org/2000/svg">
<g clip-path="url(#clip0_632_470)">
<rect width="552" height="296" rx="16" fill="#F8F2F1"/>
<g clip-path="url(#clip1_632_470)">
<path d="M256.811 17.7274C257.955 13.4597 262.342 10.927 266.609 12.0706L534.171 83.7634C538.438 84.907 540.971 89.2937 539.828 93.5614L518.087 174.699C516.943 178.967 512.557 181.5 508.289 180.356L240.727 108.663C236.46 107.52 233.927 103.133 235.071 98.8652L256.811 17.7274Z" fill="white"/>
<path d="M269.6 52.2124L272.612 40.9725L276.618 42.0461C277.493 42.2804 278.174 42.6336 278.664 43.1059C279.153 43.5781 279.466 44.1287 279.603 44.7577C279.742 45.3829 279.719 46.0395 279.534 46.7274C279.349 47.4189 279.038 48.0022 278.601 48.4772C278.168 48.9495 277.62 49.2693 276.956 49.4363C276.296 49.6007 275.531 49.5663 274.66 49.3329L271.905 48.5947L272.29 47.1568L274.891 47.8539C275.444 48.0019 275.918 48.0269 276.313 47.9288C276.708 47.827 277.031 47.6312 277.282 47.3414C277.532 47.0516 277.714 46.6945 277.828 46.27C277.941 45.8456 277.962 45.4472 277.889 45.0748C277.816 44.7023 277.631 44.3762 277.334 44.0965C277.04 43.8178 276.611 43.6029 276.047 43.4519L273.918 42.8813L271.296 52.6668L269.6 52.2124ZM282.836 55.9413C282.005 55.7188 281.338 55.3497 280.833 54.834C280.332 54.3156 280.006 53.689 279.854 52.9541C279.707 52.2166 279.75 51.4106 279.984 50.5361C280.216 49.6726 280.581 48.9548 281.079 48.3824C281.581 47.8111 282.173 47.4186 282.853 47.205C283.538 46.9923 284.272 46.9908 285.055 47.2006C285.53 47.3281 285.97 47.5303 286.374 47.8072C286.779 48.0841 287.113 48.4385 287.378 48.8702C287.642 49.3019 287.805 49.8141 287.866 50.4068C287.928 50.9959 287.856 51.6728 287.651 52.4375L287.495 53.0193L280.794 51.2237L281.124 49.9944L286.217 51.359C286.332 50.9273 286.347 50.5214 286.261 50.1414C286.175 49.7577 285.999 49.4263 285.733 49.1471C285.47 48.8689 285.127 48.6729 284.702 48.5592C284.241 48.4356 283.808 48.4412 283.404 48.5759C283.004 48.7079 282.662 48.93 282.378 49.2423C282.099 49.5518 281.903 49.917 281.79 50.3377L281.533 51.2982C281.382 51.8616 281.353 52.3674 281.444 52.8155C281.54 53.2646 281.739 53.6414 282.041 53.946C282.345 54.247 282.736 54.4617 283.216 54.5901C283.527 54.6735 283.822 54.7055 284.102 54.6864C284.382 54.6635 284.64 54.5874 284.875 54.4582C285.109 54.3289 285.311 54.1458 285.481 53.9088L286.959 54.6049C286.712 55.0289 286.381 55.3697 285.967 55.6274C285.558 55.8823 285.086 56.0403 284.552 56.1011C284.023 56.1593 283.451 56.106 282.836 55.9413ZM291.301 52.6626L289.96 57.6678L288.319 57.2281L290.578 48.7982L292.153 49.2203L291.785 50.5923L291.89 50.6203C292.203 50.2259 292.603 49.9487 293.089 49.7887C293.579 49.6297 294.14 49.635 294.773 49.8046C295.347 49.9586 295.818 50.2141 296.185 50.5713C296.553 50.9248 296.793 51.3694 296.904 51.9051C297.015 52.4408 296.978 53.0562 296.792 53.7514L295.355 59.1134L293.714 58.6737L295.098 53.5093C295.261 52.8983 295.23 52.3781 295.004 51.9489C294.779 51.516 294.388 51.2251 293.832 51.0761C293.452 50.9741 293.091 50.9658 292.751 51.051C292.414 51.1372 292.117 51.3164 291.86 51.5887C291.607 51.8582 291.421 52.2162 291.301 52.6626ZM300.667 60.7133C299.987 60.531 299.426 60.1944 298.985 59.7037C298.549 59.2103 298.265 58.5991 298.135 57.8701C298.01 57.1385 298.069 56.3171 298.313 55.4061C298.557 54.495 298.918 53.7564 299.395 53.1902C299.876 52.6249 300.429 52.2419 301.056 52.0411C301.682 51.8403 302.334 51.8306 303.011 52.0119C303.534 52.1521 303.931 52.3527 304.202 52.6136C304.478 52.8718 304.673 53.1397 304.787 53.4173C304.904 53.6959 304.989 53.9362 305.041 54.1383L305.14 54.1647L306.259 49.9882L307.9 50.4279L304.888 61.6678L303.285 61.2384L303.637 59.9267L303.5 59.8899C303.353 60.0427 303.155 60.2094 302.907 60.3899C302.662 60.5714 302.356 60.705 301.988 60.7907C301.62 60.8763 301.18 60.8506 300.667 60.7133ZM301.405 59.4109C301.877 59.5373 302.309 59.5198 302.701 59.3583C303.098 59.194 303.44 58.9113 303.728 58.51C304.02 58.1097 304.245 57.6132 304.404 57.0205C304.561 56.4351 304.614 55.9003 304.563 55.4161C304.512 54.932 304.357 54.5237 304.097 54.1913C303.837 53.8589 303.468 53.6285 302.988 53.5001C302.494 53.3677 302.048 53.3855 301.651 53.5534C301.253 53.7212 300.91 54.004 300.623 54.4016C300.34 54.8002 300.124 55.2776 299.975 55.8337C299.824 56.3972 299.772 56.9265 299.82 57.4216C299.868 57.9167 300.021 58.3401 300.28 58.6918C300.543 59.0408 300.918 59.2805 301.405 59.4109ZM307.23 62.2953L309.489 53.8654L311.13 54.3051L308.871 62.735L307.23 62.2953ZM310.666 52.7868C310.381 52.7103 310.161 52.5495 310.007 52.3043C309.858 52.0565 309.819 51.799 309.891 51.5319C309.963 51.2612 310.126 51.0576 310.378 50.9213C310.635 50.7823 310.906 50.751 311.191 50.8275C311.476 50.904 311.694 51.0661 311.843 51.3139C311.997 51.5591 312.038 51.8171 311.965 52.0878C311.894 52.3549 311.729 52.558 311.472 52.697C311.22 52.8333 310.951 52.8632 310.666 52.7868ZM314.061 58.761L312.72 63.7663L311.079 63.3266L313.337 54.8967L314.913 55.3187L314.545 56.6908L314.649 56.7187C314.963 56.3243 315.362 56.0471 315.848 55.8871C316.338 55.7281 316.899 55.7334 317.532 55.9031C318.107 56.057 318.578 56.3125 318.945 56.6697C319.313 57.0232 319.552 57.4678 319.664 58.0035C319.775 58.5392 319.738 59.1547 319.551 59.8498L318.115 65.2118L316.474 64.7721L317.857 59.6077C318.021 58.9967 317.99 58.4766 317.764 58.0473C317.539 57.6145 317.148 57.3235 316.592 57.1745C316.211 57.0725 315.851 57.0642 315.51 57.1494C315.173 57.2356 314.876 57.4149 314.619 57.6871C314.367 57.9567 314.18 58.3146 314.061 58.761ZM322.956 70.0854C322.286 69.906 321.733 69.6638 321.297 69.3587C320.865 69.0547 320.536 68.7174 320.31 68.347C320.084 67.9766 319.941 67.5993 319.884 67.2152L321.45 67.0114C321.506 67.1989 321.592 67.4043 321.708 67.6277C321.828 67.8557 322.013 68.072 322.264 68.2765C322.519 68.482 322.873 68.6456 323.327 68.7671C323.949 68.9338 324.503 68.9197 324.991 68.7249C325.477 68.5337 325.809 68.1088 325.985 67.4502L326.429 65.7927L326.325 65.7648C326.178 65.9176 325.982 66.0788 325.737 66.2483C325.495 66.4188 325.192 66.5414 324.826 66.6161C324.461 66.6909 324.021 66.6591 323.505 66.5209C322.839 66.3424 322.281 66.0262 321.83 65.572C321.384 65.1152 321.087 64.5396 320.94 63.8453C320.797 63.1482 320.846 62.3515 321.086 61.4551C321.326 60.5587 321.684 59.831 322.159 59.2721C322.638 58.7142 323.19 58.3366 323.815 58.1395C324.442 57.9387 325.093 57.929 325.77 58.1104C326.293 58.2506 326.693 58.4516 326.967 58.7135C327.243 58.9717 327.44 59.2401 327.558 59.5187C327.679 59.7982 327.765 60.039 327.817 60.2411L327.938 60.2735L328.304 58.9069L329.912 59.3378L327.603 67.9543C327.409 68.6787 327.081 69.2282 326.62 69.6026C326.159 69.9771 325.611 70.199 324.977 70.2683C324.347 70.3385 323.673 70.2775 322.956 70.0854ZM324.232 65.2568C324.704 65.3833 325.132 65.3804 325.516 65.2481C325.906 65.1132 326.24 64.8615 326.519 64.4932C326.802 64.1222 327.022 63.6458 327.178 63.064C327.33 62.4969 327.38 61.9749 327.327 61.4981C327.275 61.0212 327.118 60.6185 326.857 60.2897C326.597 59.9573 326.227 59.7269 325.748 59.5985C325.254 59.4661 324.808 59.4839 324.41 59.6518C324.013 59.816 323.672 60.0933 323.387 60.4836C323.106 60.8749 322.893 61.3394 322.749 61.8773C322.601 62.4297 322.555 62.9371 322.612 63.3993C322.668 63.8615 322.83 64.2538 323.097 64.5762C323.367 64.8996 323.745 65.1265 324.232 65.2568ZM334.076 69.4886L337.087 58.2487L341.094 59.3222C341.965 59.5556 342.647 59.8992 343.141 60.3531C343.639 60.8081 343.959 61.339 344.102 61.946C344.247 62.5494 344.226 63.1968 344.041 63.8883C343.857 64.5762 343.55 65.143 343.12 65.5887C342.696 66.0318 342.156 66.3204 341.5 66.4546C340.848 66.5897 340.087 66.5406 339.216 66.3073L336.181 65.494L336.572 64.0342L339.454 64.8062C340.003 64.9533 340.47 64.9942 340.856 64.929C341.246 64.8648 341.561 64.7043 341.803 64.4474C342.044 64.1905 342.221 63.8517 342.334 63.431C342.448 63.0065 342.464 62.6168 342.383 62.2616C342.305 61.9075 342.114 61.6015 341.811 61.3438C341.512 61.0833 341.083 60.8781 340.523 60.7281L338.394 60.1575L335.772 69.943L334.076 69.4886ZM340.983 65.9042L342.401 71.7194L340.469 71.2018L339.106 65.4013L340.983 65.9042ZM347.387 73.2377C346.556 73.0152 345.889 72.646 345.384 72.1304C344.883 71.612 344.557 70.9854 344.405 70.2505C344.258 69.513 344.301 68.707 344.535 67.8325C344.767 66.969 345.132 66.2511 345.63 65.6788C346.132 65.1075 346.724 64.715 347.404 64.5013C348.089 64.2887 348.823 64.2872 349.606 64.497C350.081 64.6245 350.521 64.8267 350.925 65.1036C351.33 65.3805 351.664 65.7349 351.929 66.1666C352.193 66.5983 352.356 67.1105 352.417 67.7032C352.479 68.2923 352.407 68.9692 352.202 69.7339L352.046 70.3157L345.345 68.5201L345.675 67.2907L350.768 68.6554C350.883 68.2237 350.898 67.8178 350.812 67.4378C350.726 67.0541 350.55 66.7227 350.284 66.4435C350.021 66.1653 349.678 65.9693 349.253 65.8556C348.792 65.732 348.359 65.7376 347.955 65.8723C347.555 66.0043 347.213 66.2264 346.929 66.5387C346.65 66.8482 346.454 67.2134 346.341 67.6341L346.084 68.5946C345.933 69.158 345.904 69.6638 345.995 70.1119C346.091 70.5609 346.29 70.9378 346.592 71.2424C346.896 71.5434 347.287 71.7581 347.767 71.8865C348.078 71.9699 348.373 72.0019 348.653 71.9827C348.933 71.9599 349.191 71.8838 349.426 71.7546C349.66 71.6253 349.862 71.4421 350.032 71.2052L351.51 71.9013C351.263 72.3253 350.932 72.6661 350.518 72.9238C350.109 73.1787 349.637 73.3367 349.103 73.3975C348.574 73.4557 348.002 73.4024 347.387 73.2377ZM362.099 67.9622L356.783 75.573L355.027 75.1025L354.223 65.852L355.985 66.324L356.382 73.3832L356.47 73.4067L360.337 67.4902L362.099 67.9622ZM361.382 76.8054L363.641 68.3755L365.282 68.8152L363.023 77.2451L361.382 76.8054ZM364.818 67.2968C364.533 67.2204 364.313 67.0595 364.159 66.8144C364.01 66.5665 363.971 66.3091 364.043 66.042C364.115 65.7712 364.278 65.5677 364.53 65.4313C364.787 65.2923 365.058 65.2611 365.343 65.3375C365.629 65.414 365.846 65.5762 365.995 65.824C366.149 66.0691 366.19 66.3271 366.117 66.5979C366.046 66.8649 365.882 67.068 365.625 67.207C365.373 67.3434 365.104 67.3733 364.818 67.2968ZM368.819 78.9802C367.988 78.7577 367.32 78.3886 366.815 77.8729C366.315 77.3545 365.989 76.7279 365.837 75.9931C365.689 75.2555 365.733 74.4495 365.967 73.5751C366.198 72.7116 366.563 71.9937 367.062 71.4214C367.564 70.85 368.155 70.4576 368.836 70.2439C369.52 70.0312 370.254 70.0298 371.037 70.2396C371.513 70.367 371.953 70.5692 372.357 70.8461C372.761 71.1231 373.096 71.4774 373.36 71.9091C373.625 72.3408 373.788 72.853 373.848 73.4458C373.91 74.0349 373.839 74.7118 373.634 75.4765L373.478 76.0582L366.777 74.2626L367.106 73.0333L372.199 74.398C372.315 73.9662 372.33 73.5604 372.243 73.1803C372.158 72.7967 371.982 72.4652 371.715 72.186C371.453 71.9078 371.109 71.7118 370.685 71.5981C370.224 71.4746 369.791 71.4802 369.386 71.6148C368.986 71.7469 368.644 71.969 368.361 72.2812C368.082 72.5907 367.886 72.9559 367.773 73.3767L367.516 74.3371C367.365 74.9006 367.335 75.4063 367.427 75.8544C367.522 76.3035 367.721 76.6803 368.024 76.985C368.327 77.2859 368.719 77.5006 369.198 77.6291C369.509 77.7124 369.805 77.7445 370.084 77.7253C370.365 77.7024 370.622 77.6264 370.857 77.4971C371.092 77.3678 371.294 77.1847 371.463 76.9477L372.941 77.6438C372.694 78.0678 372.364 78.4087 371.95 78.6663C371.54 78.9213 371.068 79.0792 370.534 79.14C370.005 79.1982 369.433 79.145 368.819 78.9802ZM376.114 80.7527L375.892 71.6581L377.588 72.1125L377.581 78.7459L377.663 78.7679L380.98 73.0213L382.676 73.4758L382.671 80.0802L382.753 80.1022L386.045 74.3787L387.741 74.8331L383.007 82.5998L381.333 82.1512L381.252 75.606L381.126 75.5722L377.782 81.1998L376.114 80.7527ZM395.064 79.0011L393.506 78.866C393.495 78.659 393.445 78.4515 393.355 78.2432C393.27 78.036 393.128 77.8471 392.931 77.6765C392.733 77.506 392.464 77.3751 392.124 77.2839C391.659 77.1594 391.244 77.1598 390.877 77.285C390.511 77.4066 390.284 77.6302 390.197 77.9558C390.122 78.2375 390.165 78.4923 390.328 78.7202C390.49 78.948 390.789 79.1791 391.224 79.4133L392.481 80.0795C393.209 80.4666 393.713 80.8977 393.993 81.3729C394.274 81.8481 394.334 82.3838 394.174 82.9802C394.039 83.4851 393.772 83.896 393.373 84.2127C392.979 84.5267 392.493 84.7257 391.913 84.8097C391.338 84.8947 390.71 84.846 390.029 84.6636C389.085 84.4107 388.369 84.0031 387.88 83.4408C387.393 82.8749 387.181 82.2006 387.246 81.4179L388.897 81.6014C388.885 82.0413 389.004 82.4086 389.254 82.7031C389.506 82.994 389.879 83.2057 390.373 83.338C390.91 83.4821 391.37 83.4857 391.752 83.3488C392.135 83.2082 392.37 82.9751 392.457 82.6495C392.528 82.3861 392.488 82.1382 392.339 81.906C392.193 81.6748 391.931 81.4595 391.553 81.2602L390.21 80.565C389.471 80.1749 388.966 79.7337 388.694 79.2412C388.426 78.7497 388.372 78.2039 388.533 77.6039C388.666 77.1063 388.922 76.7082 389.3 76.4095C389.678 76.1108 390.14 75.9228 390.686 75.8457C391.233 75.7648 391.823 75.8092 392.456 75.9788C393.367 76.2229 394.031 76.6127 394.449 77.148C394.867 77.6797 395.072 78.2974 395.064 79.0011Z" fill="#111827"/>
<path d="M272.18 71.0681L267.662 87.9278L264.608 87.1095L268.329 73.2216L268.231 73.1951L263.612 74.6576L264.362 71.8586L269.274 70.2894L272.18 71.0681ZM277.743 90.876C276.645 90.5818 275.718 90.1128 274.961 89.4688C274.206 88.8194 273.67 88.0641 273.354 87.2028C273.043 86.3431 272.996 85.4423 273.213 84.5005L276.177 85.2946C276.046 86.0008 276.194 86.6463 276.62 87.2309C277.047 87.8101 277.642 88.2018 278.405 88.4063C279.003 88.5665 279.572 88.572 280.112 88.4226C280.652 88.2732 281.122 87.9903 281.522 87.5739C281.922 87.1575 282.202 86.6357 282.365 86.0086C282.541 85.3734 282.558 84.7721 282.416 84.2046C282.274 83.6372 282.001 83.1495 281.599 82.7417C281.198 82.3284 280.687 82.0386 280.067 81.8724C279.564 81.7317 279.042 81.6919 278.502 81.7531C277.962 81.8143 277.508 81.9631 277.138 82.1994L274.502 81.0077L277.712 72.5504L287.492 75.1709L286.808 77.7229L279.556 75.7796L277.872 80.1196L277.971 80.1461C278.382 79.8622 278.906 79.676 279.541 79.5874C280.178 79.4934 280.837 79.5376 281.517 79.7199C282.538 79.9934 283.385 80.479 284.056 81.1767C284.73 81.8689 285.184 82.6966 285.42 83.6598C285.656 84.623 285.63 85.6452 285.34 86.7264C285.041 87.8405 284.517 88.7647 283.768 89.4991C283.025 90.2295 282.131 90.7224 281.086 90.9777C280.048 91.229 278.934 91.1951 277.743 90.876ZM290.197 91.4953L289.847 92.3722C289.585 93.0431 289.259 93.7088 288.871 94.3694C288.486 95.0369 288.106 95.6438 287.73 96.1901C287.354 96.7365 287.054 97.1649 286.83 97.4753L284.821 96.9371C284.987 96.6229 285.214 96.1953 285.5 95.6544C285.791 95.1149 286.097 94.5026 286.416 93.8174C286.734 93.1323 287.015 92.4252 287.258 91.696L287.562 90.7894L290.197 91.4953ZM298.373 96.501C297.018 96.1377 295.946 95.483 295.159 94.5367C294.378 93.5863 293.901 92.3909 293.728 90.9505C293.563 89.5061 293.726 87.8646 294.219 86.0261C294.717 84.189 295.397 82.6947 296.258 81.5432C297.126 80.3877 298.135 79.5991 299.283 79.1773C300.437 78.7571 301.689 78.7279 303.039 79.0896C304.389 79.4514 305.459 80.1027 306.248 81.0435C307.037 81.9843 307.516 83.1715 307.684 84.6049C307.859 86.0398 307.7 87.6738 307.209 89.5069C306.715 91.3509 306.032 92.8562 305.161 94.0227C304.297 95.1852 303.287 95.9793 302.131 96.405C300.982 96.8322 299.729 96.8642 298.373 96.501ZM299.064 93.9243C300.118 94.2066 301.088 93.9108 301.975 93.0367C302.869 92.1587 303.588 90.7071 304.13 88.6819C304.489 87.3428 304.651 86.1802 304.615 85.1942C304.579 84.2081 304.368 83.4162 303.981 82.8184C303.595 82.2152 303.054 81.8202 302.357 81.6334C301.309 81.3525 300.341 81.6518 299.452 82.5314C298.565 83.4054 297.849 84.846 297.306 86.8533C296.94 88.1964 296.771 89.363 296.8 90.3531C296.835 91.3446 297.044 92.142 297.43 92.7452C297.817 93.343 298.361 93.736 299.064 93.9243ZM313.836 100.644C312.48 100.281 311.409 99.6261 310.621 98.6798C309.84 97.7294 309.364 96.5341 309.191 95.0937C309.025 93.6492 309.188 92.0077 309.681 90.1692C310.179 88.3321 310.859 86.8378 311.72 85.6863C312.589 84.5308 313.597 83.7422 314.745 83.3205C315.899 82.9002 317.151 82.871 318.501 83.2327C319.851 83.5945 320.921 84.2458 321.71 85.1866C322.499 86.1274 322.978 87.3146 323.147 88.748C323.321 90.183 323.163 91.817 322.672 93.65C322.177 95.4941 321.495 96.9993 320.623 98.1658C319.759 99.3283 318.749 100.122 317.594 100.548C316.444 100.975 315.191 101.007 313.836 100.644ZM314.526 98.0674C315.58 98.3497 316.55 98.0539 317.438 97.1798C318.332 96.3018 319.05 94.8502 319.593 92.825C319.951 91.4859 320.113 90.3233 320.077 89.3373C320.041 88.3512 319.83 87.5593 319.443 86.9616C319.058 86.3583 318.517 85.9633 317.82 85.7765C316.771 85.4956 315.803 85.795 314.914 86.6745C314.027 87.5485 313.312 88.9892 312.768 90.9964C312.402 92.3395 312.234 93.5061 312.263 94.4962C312.297 95.4877 312.507 96.2851 312.892 96.8884C313.279 97.4861 313.824 97.8791 314.526 98.0674ZM329.298 104.787C327.943 104.424 326.871 103.769 326.083 102.823C325.303 101.873 324.826 100.677 324.653 99.2368C324.487 97.7924 324.651 96.1509 325.143 94.3123C325.641 92.4752 326.321 90.9809 327.183 89.8295C328.051 88.6739 329.059 87.8853 330.208 87.4636C331.362 87.0434 332.613 87.0141 333.964 87.3759C335.314 87.7376 336.383 88.3889 337.172 89.3297C337.961 90.2706 338.44 91.4577 338.609 92.8912C338.783 94.3261 338.625 95.9601 338.134 97.7931C337.64 99.6372 336.957 101.142 336.086 102.309C335.221 103.471 334.211 104.266 333.056 104.691C331.906 105.118 330.654 105.15 329.298 104.787ZM329.989 102.211C331.042 102.493 332.013 102.197 332.9 101.323C333.794 100.445 334.512 98.9933 335.055 96.9682C335.414 95.629 335.575 94.4664 335.54 93.4804C335.504 92.4944 335.292 91.7025 334.906 91.1047C334.52 90.5014 333.979 90.1064 333.282 89.9197C332.234 89.6388 331.265 89.9381 330.377 90.8176C329.49 91.6917 328.774 93.1323 328.23 95.1395C327.865 96.4827 327.696 97.6493 327.725 98.6393C327.759 99.6308 327.969 100.428 328.355 101.032C328.741 101.629 329.286 102.022 329.989 102.211Z" fill="#111827"/>
<g filter="url(#filter0_d_632_470)">
<path d="M461.342 116.013C464.916 102.676 478.624 94.7617 491.961 98.3352C505.298 101.909 513.212 115.617 509.639 128.954C506.065 142.29 492.357 150.205 479.02 146.632C465.683 143.058 457.769 129.35 461.342 116.013Z" fill="#F35418"/>
<g clip-path="url(#clip2_632_470)">
<path d="M491.066 110.691L482.05 108.276C481.453 108.116 480.816 108.199 480.28 108.509C479.744 108.818 479.353 109.328 479.193 109.926L473.757 130.21C473.597 130.808 473.681 131.445 473.99 131.981C474.3 132.517 474.81 132.908 475.407 133.068L488.93 136.691C489.528 136.852 490.165 136.768 490.701 136.458C491.237 136.149 491.628 135.639 491.788 135.041L496.015 119.265" stroke="white" stroke-width="2" stroke-linecap="round" stroke-linejoin="round"/>
<path d="M491.066 110.692L489.858 115.199C489.698 115.797 489.782 116.434 490.091 116.97C490.401 117.506 490.91 117.897 491.508 118.057L496.016 119.265L491.066 110.692Z" stroke="white" stroke-width="2" stroke-linecap="round" stroke-linejoin="round"/>
<path d="M484.973 124.415L486.526 118.62" stroke="white" stroke-width="2" stroke-linecap="round" stroke-linejoin="round"/>
<path d="M483.938 128.279L483.938 128.279" stroke="white" stroke-width="2" stroke-linecap="round" stroke-linejoin="round"/>
</g>
</g>
</g>
<path d="M266.48 12.5535L534.041 84.2464C538.042 85.3185 540.417 89.431 539.345 93.432L517.604 174.57C516.532 178.571 512.419 180.945 508.418 179.873L240.857 108.18C236.856 107.108 234.481 102.996 235.554 98.9946L257.294 17.8568C258.333 13.9808 262.225 11.6314 266.105 12.4631L266.48 12.5535Z" stroke="#D1D5DB" stroke-opacity="0.5"/>
<g clip-path="url(#clip3_632_470)">
<path d="M8.07055 100.561C6.92702 96.2937 9.45968 91.907 13.7274 90.7634L281.289 19.0706C285.557 17.927 289.943 20.4597 291.087 24.7274L312.828 105.865C313.971 110.133 311.438 114.52 307.171 115.663L39.6093 187.356C35.3416 188.5 30.9549 185.967 29.8114 181.699L8.07055 100.561Z" fill="white"/>
<path d="M36.3885 124.032L33.3768 112.792L37.3831 111.718C38.2539 111.485 39.0168 111.442 39.6716 111.588C40.3301 111.733 40.8731 112.032 41.3006 112.486C41.7272 112.937 42.0331 113.508 42.2184 114.199C42.4027 114.887 42.4204 115.531 42.2716 116.132C42.1254 116.728 41.802 117.248 41.3014 117.692C40.8044 118.135 40.1205 118.473 39.2497 118.706L36.2147 119.52L35.8235 118.06L38.7048 117.288C39.2537 117.141 39.679 116.942 39.9807 116.693C40.2862 116.442 40.4792 116.146 40.5598 115.803C40.6404 115.459 40.6243 115.077 40.5116 114.657C40.3978 114.232 40.217 113.887 39.969 113.62C39.7247 113.352 39.4067 113.182 39.015 113.111C38.6259 113.034 38.1515 113.071 37.5917 113.221L35.4623 113.792L38.0843 123.577L36.3885 124.032ZM40.5782 117.474L44.7141 121.801L42.7822 122.319L38.7013 117.977L40.5782 117.474ZM49.791 120.623C48.9604 120.846 48.1976 120.86 47.5025 120.666C46.81 120.467 46.2142 120.087 45.715 119.527C45.2185 118.962 44.8531 118.242 44.6188 117.368C44.3875 116.504 44.3445 115.7 44.49 114.955C44.6392 114.209 44.9552 113.574 45.4379 113.048C45.9243 112.522 46.559 112.154 47.342 111.944C47.8176 111.817 48.2997 111.772 48.7882 111.81C49.2768 111.847 49.7436 111.987 50.1887 112.228C50.6338 112.47 51.0308 112.832 51.3798 113.315C51.7279 113.794 52.0043 114.416 52.2092 115.181L52.3651 115.763L45.664 117.558L45.3346 116.329L50.4276 114.964C50.312 114.533 50.1217 114.174 49.8569 113.888C49.591 113.598 49.273 113.399 48.9027 113.291C48.5361 113.181 48.1406 113.183 47.7162 113.297C47.2552 113.42 46.8831 113.642 46.5999 113.961C46.3195 114.275 46.1345 114.638 46.0449 115.05C45.9581 115.458 45.971 115.872 46.0837 116.293L46.3411 117.253C46.4921 117.817 46.7193 118.27 47.0227 118.612C47.3299 118.953 47.6906 119.18 48.1051 119.292C48.5185 119.401 48.9649 119.391 49.4442 119.263C49.7552 119.18 50.027 119.06 50.2596 118.903C50.4912 118.743 50.6763 118.549 50.8149 118.319C50.9534 118.09 51.0368 117.83 51.065 117.541L52.6932 117.404C52.6913 117.895 52.5755 118.355 52.3457 118.786C52.1185 119.211 51.789 119.584 51.357 119.903C50.9277 120.218 50.4057 120.458 49.791 120.623ZM59.6114 121.386C58.9418 121.565 58.342 121.632 57.812 121.586C57.2856 121.538 56.8319 121.411 56.4508 121.203C56.0696 120.996 55.758 120.74 55.5158 120.436L56.7704 119.476C56.9123 119.611 57.0896 119.746 57.3023 119.881C57.5196 120.019 57.7881 120.113 58.1079 120.165C58.4312 120.216 58.8197 120.18 59.2734 120.059C59.8954 119.892 60.3688 119.602 60.6936 119.19C61.0193 118.781 61.0939 118.247 60.9175 117.589L60.4734 115.931L60.3691 115.959C60.3183 116.165 60.2291 116.403 60.1013 116.672C59.9772 116.941 59.7757 117.199 59.4969 117.446C59.218 117.693 58.8206 117.886 58.3048 118.024C57.6389 118.203 56.9971 118.208 56.3796 118.04C55.7648 117.867 55.22 117.517 54.7453 116.99C54.2732 116.457 53.9171 115.743 53.6769 114.847C53.4367 113.95 53.3827 113.141 53.5148 112.419C53.6506 111.697 53.94 111.094 54.383 110.61C54.825 110.123 55.3845 109.789 56.0614 109.608C56.5846 109.468 57.0307 109.442 57.3997 109.531C57.7678 109.617 58.0723 109.751 58.3134 109.934C58.5581 110.115 58.7534 110.281 58.8992 110.43L59.0199 110.397L58.6538 109.031L60.2618 108.6L62.5706 117.216C62.7647 117.941 62.7557 118.58 62.5436 119.135C62.3315 119.69 61.9681 120.156 61.4535 120.533C60.9425 120.909 60.3285 121.194 59.6114 121.386ZM58.3023 116.566C58.7743 116.44 59.1437 116.223 59.4105 115.916C59.68 115.605 59.8435 115.22 59.901 114.761C59.9612 114.298 59.9134 113.776 59.7575 113.194C59.6055 112.627 59.3875 112.15 59.1036 111.763C58.8196 111.376 58.4824 111.106 58.0921 110.952C57.7007 110.794 57.2654 110.779 56.7861 110.908C56.2922 111.04 55.9149 111.278 55.6542 111.623C55.3926 111.963 55.2359 112.374 55.1843 112.854C55.1363 113.334 55.1844 113.843 55.3285 114.381C55.4765 114.933 55.6906 115.395 55.9706 115.767C56.2507 116.139 56.5868 116.398 56.9788 116.544C57.3745 116.689 57.8157 116.696 58.3023 116.566ZM69.1247 111.513L67.8026 106.579L69.4491 106.138L71.7079 114.568L70.0943 115L69.7032 113.541L69.6154 113.564C69.542 114.066 69.3315 114.524 68.9838 114.939C68.6388 115.349 68.1498 115.639 67.5168 115.809C66.9753 115.954 66.4642 115.963 65.9833 115.837C65.5052 115.707 65.084 115.437 64.7197 115.029C64.3591 114.62 64.0856 114.067 63.8993 113.372L62.4626 108.01L64.1036 107.57L65.4874 112.735C65.6413 113.309 65.923 113.724 66.3325 113.979C66.742 114.234 67.201 114.293 67.7096 114.157C68.0169 114.075 68.3018 113.916 68.5643 113.681C68.8305 113.445 69.0225 113.144 69.1404 112.78C69.262 112.414 69.2567 111.992 69.1247 111.513ZM72.542 102.298L75.5537 113.538L73.9128 113.977L70.901 102.737L72.542 102.298ZM80.2646 112.475C79.7304 112.618 79.221 112.649 78.7363 112.567C78.2506 112.482 77.8306 112.282 77.4762 111.97C77.1254 111.656 76.876 111.223 76.728 110.67C76.6005 110.194 76.5871 109.778 76.6877 109.422C76.7883 109.066 76.9701 108.756 77.233 108.494C77.496 108.231 77.8073 108.002 78.167 107.808C78.5266 107.614 78.8995 107.439 79.2856 107.285C79.7748 107.091 80.1718 106.934 80.4767 106.813C80.7806 106.688 80.9921 106.563 81.1112 106.437C81.2304 106.311 81.2635 106.149 81.2106 105.951L81.2003 105.913C81.0719 105.434 80.837 105.099 80.4956 104.908C80.158 104.716 79.7239 104.691 79.1933 104.833C78.6408 104.981 78.2383 105.22 77.9857 105.551C77.7357 105.877 77.5901 106.204 77.5487 106.533L75.9124 106.595C75.9581 106.033 76.1144 105.548 76.3814 105.139C76.651 104.726 76.9972 104.386 77.4199 104.12C77.8417 103.85 78.3069 103.647 78.8155 103.511C79.1521 103.421 79.5196 103.365 79.9181 103.345C80.3192 103.32 80.7123 103.367 81.0975 103.488C81.4863 103.607 81.8388 103.832 82.1549 104.163C82.4701 104.49 82.71 104.961 82.8747 105.576L84.3747 111.174L82.7721 111.603L82.4633 110.451L82.3974 110.469C82.3482 110.709 82.2449 110.96 82.0876 111.222C81.9303 111.484 81.7033 111.727 81.4066 111.952C81.1099 112.176 80.7293 112.351 80.2646 112.475ZM80.2684 111.063C80.7221 110.941 81.0859 110.747 81.3598 110.482C81.6374 110.215 81.8217 109.915 81.9125 109.581C82.0061 109.242 82.0082 108.906 81.919 108.573L81.6278 107.487C81.585 107.561 81.4863 107.646 81.3317 107.742C81.1798 107.834 81.0026 107.927 80.8002 108.02C80.5968 108.11 80.3984 108.196 80.205 108.28C80.0107 108.359 79.8483 108.426 79.7178 108.481C79.4102 108.606 79.1375 108.752 78.8996 108.918C78.6653 109.082 78.4935 109.275 78.3842 109.497C78.2776 109.714 78.2635 109.968 78.3419 110.261C78.4507 110.667 78.6831 110.934 79.039 111.063C79.3939 111.187 79.8037 111.187 80.2684 111.063ZM88.2366 101.104L88.5896 102.421L83.9849 103.655L83.632 102.338L88.2366 101.104ZM84.3257 99.9873L85.9667 99.5476L88.1034 107.522C88.1887 107.84 88.3005 108.067 88.4387 108.203C88.576 108.335 88.7275 108.41 88.8932 108.428C89.0616 108.442 89.2354 108.425 89.4147 108.376C89.5464 108.341 89.6592 108.301 89.7531 108.256C89.847 108.212 89.9199 108.176 89.9718 108.151L90.6314 109.427C90.5461 109.489 90.4205 109.562 90.2547 109.646C90.0899 109.733 89.8762 109.814 89.6138 109.888C89.184 110.011 88.7609 110.042 88.3446 109.981C87.9283 109.92 87.5597 109.752 87.239 109.477C86.9183 109.202 86.6899 108.811 86.5536 108.302L84.3257 99.9873ZM92.3106 109.048L90.0518 100.618L91.6928 100.178L93.9516 108.608L92.3106 109.048ZM90.532 99.0949C90.2467 99.1714 89.976 99.1419 89.7202 99.0066C89.467 98.8666 89.3046 98.663 89.233 98.3959C89.1605 98.1252 89.1993 97.8677 89.3496 97.6235C89.5025 97.3747 89.7217 97.2121 90.0071 97.1356C90.2924 97.0591 90.5617 97.0909 90.8149 97.2309C91.0708 97.3663 91.235 97.5693 91.3076 97.8401C91.3791 98.1072 91.3384 98.3651 91.1855 98.6139C91.0353 98.8581 90.8174 99.0184 90.532 99.0949ZM99.7557 107.235C98.9654 107.447 98.2272 107.45 97.5411 107.246C96.8549 107.042 96.2618 106.658 95.7617 106.093C95.2615 105.529 94.8948 104.812 94.6615 103.941C94.4271 103.067 94.3851 102.258 94.5352 101.516C94.6854 100.774 95.0064 100.143 95.4984 99.623C95.9905 99.1029 96.6316 98.737 97.4219 98.5252C98.2122 98.3135 98.9504 98.3098 99.6366 98.5141C100.323 98.7185 100.916 99.1046 101.417 99.6722C101.919 100.24 102.286 100.961 102.521 101.835C102.754 102.706 102.795 103.511 102.644 104.249C102.493 104.988 102.171 105.617 101.679 106.137C101.187 106.657 100.546 107.023 99.7557 107.235ZM99.3921 105.856C99.9043 105.719 100.292 105.47 100.557 105.109C100.821 104.748 100.973 104.321 101.013 103.828C101.057 103.333 101.007 102.816 100.862 102.274C100.718 101.736 100.503 101.264 100.218 100.858C99.9351 100.448 99.5887 100.15 99.1786 99.9662C98.7685 99.782 98.3073 99.7585 97.795 99.8958C97.2792 100.034 96.8878 100.286 96.6211 100.652C96.358 101.016 96.2049 101.447 96.1619 101.945C96.1215 102.438 96.1733 102.954 96.3174 103.492C96.4625 104.033 96.6759 104.507 96.9574 104.914C97.2427 105.32 97.5899 105.613 97.999 105.794C98.4118 105.974 98.8762 105.994 99.3921 105.856ZM105.771 100.076L107.112 105.081L105.471 105.521L103.213 97.0913L104.788 96.6692L105.155 98.0413L105.26 98.0133C105.334 97.515 105.542 97.075 105.882 96.6935C106.227 96.311 106.716 96.0349 107.349 95.8653C107.923 95.7114 108.459 95.6974 108.955 95.8232C109.451 95.9453 109.88 96.2105 110.245 96.6188C110.609 97.027 110.884 97.5787 111.071 98.2739L112.507 103.636L110.866 104.076L109.482 98.9112C109.319 98.3002 109.032 97.8653 108.621 97.6067C108.21 97.3444 107.726 97.2878 107.17 97.4368C106.789 97.5387 106.473 97.7117 106.221 97.9558C105.972 98.1989 105.804 98.5026 105.718 98.867C105.634 99.2268 105.652 99.6298 105.771 100.076ZM119.318 94.9818L117.901 95.6437C117.788 95.4701 117.64 95.3155 117.459 95.1798C117.281 95.0431 117.064 94.9503 116.808 94.9013C116.552 94.8523 116.253 94.8734 115.913 94.9646C115.448 95.0891 115.089 95.2973 114.833 95.5892C114.577 95.8774 114.493 96.1844 114.58 96.51C114.656 96.7917 114.821 96.9906 115.075 97.1067C115.33 97.2228 115.704 97.2735 116.198 97.2587L117.62 97.2072C118.444 97.1787 119.096 97.3 119.576 97.5713C120.057 97.8425 120.377 98.2763 120.537 98.8727C120.672 99.3776 120.646 99.8669 120.459 100.34C120.275 100.809 119.953 101.225 119.494 101.587C119.037 101.949 118.469 102.221 117.789 102.403C116.845 102.656 116.021 102.661 115.316 102.419C114.611 102.172 114.091 101.694 113.755 100.984L115.277 100.317C115.486 100.704 115.773 100.963 116.137 101.093C116.501 101.219 116.929 101.216 117.423 101.083C117.961 100.939 118.361 100.712 118.623 100.403C118.884 100.09 118.971 99.7705 118.884 99.4449C118.814 99.1815 118.655 98.9866 118.41 98.8602C118.168 98.7329 117.833 98.6774 117.406 98.6938L115.896 98.7633C115.061 98.7948 114.403 98.6653 113.921 98.3748C113.443 98.0833 113.123 97.6375 112.963 97.0375C112.829 96.5399 112.852 96.0672 113.03 95.6195C113.208 95.1718 113.514 94.778 113.949 94.4381C114.382 94.0945 114.915 93.8379 115.548 93.6683C116.459 93.4242 117.229 93.4296 117.858 93.6846C118.486 93.9359 118.973 94.3683 119.318 94.9818ZM131.432 86.5182L133.133 86.0623L135.114 93.4549C135.325 94.2416 135.327 94.9881 135.12 95.6945C134.912 96.3972 134.52 97.0121 133.944 97.5391C133.366 98.0624 132.628 98.4446 131.728 98.6858C130.831 98.926 130.002 98.9638 129.24 98.7993C128.478 98.6311 127.831 98.2947 127.299 97.79C126.767 97.2817 126.396 96.6342 126.185 95.8475L124.204 88.4549L125.9 88.0005L127.844 95.2559C127.98 95.7645 128.213 96.1865 128.542 96.5218C128.875 96.8562 129.278 97.0814 129.752 97.1975C130.226 97.3099 130.746 97.2901 131.313 97.1381C131.884 96.9852 132.346 96.7417 132.7 96.4078C133.056 96.0692 133.291 95.6729 133.404 95.2189C133.522 94.7639 133.512 94.2822 133.376 93.7736L131.432 86.5182ZM139.326 99.838L136.22 88.2469L137.823 87.8175L138.189 89.1841L138.326 89.1473C138.374 88.9462 138.457 88.7064 138.574 88.4278C138.692 88.1493 138.887 87.8814 139.159 87.6241C139.43 87.3632 139.828 87.1627 140.351 87.0225C141.031 86.8401 141.685 86.8493 142.311 87.0501C142.937 87.2509 143.489 87.6344 143.966 88.2007C144.447 88.7659 144.81 89.5041 145.054 90.4151C145.298 91.3262 145.355 92.148 145.226 92.8807C145.096 93.6096 144.813 94.2208 144.376 94.7142C143.939 95.204 143.38 95.54 142.7 95.7224C142.187 95.8596 141.745 95.8859 141.374 95.8012C141.006 95.7155 140.699 95.5819 140.454 95.4004C140.21 95.2189 140.014 95.0518 139.867 94.899L139.768 94.9254L140.967 99.3983L139.326 99.838ZM138.958 92.031C139.116 92.6237 139.342 93.1202 139.633 93.5205C139.925 93.9208 140.267 94.2036 140.66 94.3688C141.053 94.5303 141.485 94.5479 141.957 94.4214C142.447 94.29 142.822 94.0503 143.082 93.7023C143.34 93.3507 143.494 92.9273 143.541 92.4321C143.593 91.936 143.543 91.4062 143.392 90.8428C143.243 90.2866 143.025 89.8098 142.738 89.4121C142.455 89.0135 142.112 88.7308 141.711 88.5639C141.313 88.396 140.867 88.3782 140.373 88.5106C139.897 88.638 139.528 88.8685 139.264 89.2018C139.004 89.5342 138.849 89.9425 138.798 90.4267C138.748 90.9108 138.801 91.4456 138.958 92.031ZM151.217 93.4401C150.537 93.6224 149.883 93.6114 149.255 93.4069C148.631 93.1978 148.08 92.8101 147.603 92.2439C147.128 91.673 146.769 90.9321 146.525 90.021C146.281 89.11 146.224 88.29 146.354 87.561C146.488 86.831 146.775 86.2225 147.218 85.7355C147.66 85.2484 148.219 84.9142 148.896 84.7328C149.419 84.5926 149.863 84.5677 150.229 84.658C150.597 84.7437 150.9 84.8783 151.137 85.0617C151.378 85.2442 151.571 85.41 151.717 85.5591L151.816 85.5327L150.697 81.3561L152.338 80.9164L155.35 92.1563L153.747 92.5857L153.396 91.274L153.258 91.3108C153.208 91.5165 153.12 91.7597 152.995 92.0402C152.874 92.3197 152.675 92.5886 152.399 92.8468C152.124 93.1051 151.729 93.3028 151.217 93.4401ZM151.204 91.9435C151.676 91.817 152.042 91.5858 152.301 91.2497C152.563 90.909 152.718 90.4929 152.766 90.0015C152.819 89.509 152.766 88.9664 152.607 88.3737C152.45 87.7883 152.228 87.2986 151.942 86.9047C151.657 86.5107 151.318 86.2348 150.927 86.0769C150.535 85.919 150.1 85.9043 149.621 86.0327C149.127 86.165 148.749 86.4034 148.489 86.7477C148.228 87.0921 148.073 87.5082 148.023 87.996C147.977 88.4828 148.029 89.0043 148.178 89.5605C148.329 90.1239 148.549 90.6081 148.838 91.013C149.126 91.418 149.471 91.708 149.871 91.8832C150.273 92.0538 150.718 92.0739 151.204 91.9435ZM160.195 91.058C159.661 91.2011 159.151 91.2318 158.667 91.1499C158.181 91.0643 157.761 90.8651 157.407 90.5522C157.056 90.2384 156.806 89.8052 156.658 89.2527C156.531 88.7771 156.517 88.3611 156.618 88.0047C156.719 87.6484 156.9 87.3389 157.163 87.0763C157.426 86.8137 157.738 86.5852 158.097 86.3907C158.457 86.1963 158.83 86.0219 159.216 85.8675C159.705 85.6737 160.102 85.5163 160.407 85.3954C160.711 85.2708 160.922 85.1455 161.042 85.0195C161.161 84.8934 161.194 84.7316 161.141 84.5341L161.131 84.4956C161.002 84.0163 160.767 83.6812 160.426 83.4903C160.088 83.2985 159.654 83.2736 159.124 83.4158C158.571 83.5638 158.169 83.8031 157.916 84.1335C157.666 84.4593 157.52 84.7865 157.479 85.1152L155.843 85.1772C155.888 84.616 156.045 84.131 156.312 83.7222C156.581 83.3088 156.928 82.969 157.35 82.7027C157.772 82.4329 158.237 82.2298 158.746 82.0935C159.082 82.0033 159.45 81.948 159.848 81.9275C160.25 81.9024 160.643 81.95 161.028 82.0703C161.417 82.1896 161.769 82.4148 162.085 82.7458C162.4 83.0731 162.64 83.5441 162.805 84.1587L164.305 89.7567L162.702 90.1861L162.394 89.0336L162.328 89.0512C162.279 89.2919 162.175 89.5431 162.018 89.8048C161.861 90.0666 161.634 90.3098 161.337 90.5344C161.04 90.759 160.66 90.9335 160.195 91.058ZM160.199 89.6452C160.652 89.5237 161.016 89.3301 161.29 89.0646C161.568 88.798 161.752 88.4977 161.843 88.1635C161.936 87.8248 161.939 87.4889 161.849 87.1559L161.558 86.0693C161.515 86.1435 161.417 86.2288 161.262 86.3251C161.11 86.4168 160.933 86.5094 160.731 86.6028C160.527 86.6926 160.329 86.7791 160.135 86.8623C159.941 86.9418 159.779 87.0089 159.648 87.0634C159.341 87.189 159.068 87.3346 158.83 87.5003C158.596 87.665 158.424 87.8581 158.315 88.0796C158.208 88.2964 158.194 88.5511 158.272 88.8438C158.381 89.25 158.613 89.5171 158.969 89.6453C159.324 89.7698 159.734 89.7698 160.199 89.6452ZM168.167 79.6868L168.52 81.0039L163.915 82.2378L163.562 80.9206L168.167 79.6868ZM164.256 78.57L165.897 78.1303L168.034 86.1047C168.119 86.423 168.231 86.6499 168.369 86.7854C168.506 86.9173 168.658 86.9924 168.824 87.0107C168.992 87.0244 169.166 87.0073 169.345 86.9592C169.477 86.9239 169.59 86.8839 169.683 86.8391C169.777 86.7944 169.85 86.7591 169.902 86.7335L170.562 88.0096C170.476 88.0717 170.351 88.1446 170.185 88.2282C170.02 88.3155 169.807 88.3963 169.544 88.4706C169.114 88.5936 168.691 88.6246 168.275 88.5636C167.859 88.5026 167.49 88.3347 167.169 88.0598C166.849 87.785 166.62 87.3933 166.484 86.8847L164.256 78.57ZM175.829 86.8512C174.999 87.0737 174.236 87.0879 173.541 86.8938C172.848 86.695 172.252 86.3155 171.753 85.7551C171.257 85.1901 170.891 84.4704 170.657 83.596C170.426 82.7325 170.383 81.9283 170.528 81.1834C170.677 80.4376 170.993 79.802 171.476 79.2766C171.963 78.7502 172.597 78.3821 173.38 78.1723C173.856 78.0448 174.338 77.9999 174.826 78.0377C175.315 78.0754 175.782 78.215 176.227 78.4565C176.672 78.698 177.069 79.0603 177.418 79.5432C177.766 80.0225 178.043 80.6445 178.247 81.4092L178.403 81.9909L171.702 83.7865L171.373 82.5571L176.466 81.1924C176.35 80.7607 176.16 80.4019 175.895 80.116C175.629 79.8264 175.311 79.6274 174.941 79.5187C174.574 79.4091 174.179 79.4112 173.754 79.5249C173.293 79.6484 172.921 79.8697 172.638 80.1887C172.358 80.5031 172.173 80.8664 172.083 81.2786C171.996 81.6862 172.009 82.1003 172.122 82.5211L172.379 83.4815C172.53 84.045 172.758 84.4978 173.061 84.84C173.368 85.1813 173.729 85.4081 174.143 85.5206C174.557 85.6294 175.003 85.6196 175.482 85.4912C175.793 85.4078 176.065 85.288 176.298 85.1315C176.529 84.9714 176.715 84.7767 176.853 84.5475C176.992 84.3182 177.075 84.0586 177.103 83.7687L178.731 83.6324C178.73 84.1231 178.614 84.5835 178.384 85.0137C178.157 85.4393 177.827 85.8119 177.395 86.1316C176.966 86.4466 176.444 86.6865 175.829 86.8512ZM184.421 84.5432C183.74 84.7255 183.086 84.7145 182.459 84.51C181.834 84.3009 181.284 83.9132 180.806 83.347C180.332 82.7761 179.973 82.0352 179.728 81.1241C179.484 80.2131 179.427 79.3931 179.557 78.6641C179.691 77.9341 179.979 77.3256 180.421 76.8386C180.863 76.3515 181.423 76.0173 182.1 75.8359C182.623 75.6957 183.067 75.6708 183.432 75.7611C183.801 75.8468 184.103 75.9814 184.341 76.1648C184.582 76.3473 184.775 76.5131 184.921 76.6622L185.02 76.6358L183.901 72.4592L185.542 72.0195L188.553 83.2594L186.951 83.6888L186.599 82.3771L186.462 82.4139C186.411 82.6196 186.324 82.8628 186.199 83.1433C186.078 83.4228 185.879 83.6917 185.603 83.9499C185.327 84.2082 184.933 84.4059 184.421 84.5432ZM184.408 83.0466C184.88 82.9201 185.246 82.6889 185.505 82.3528C185.766 82.0121 185.921 81.596 185.97 81.1046C186.022 80.6121 185.969 80.0695 185.81 79.4768C185.654 78.8914 185.432 78.4017 185.146 78.0077C184.86 77.6138 184.522 77.3379 184.13 77.18C183.739 77.0221 183.304 77.0074 182.824 77.1358C182.33 77.2681 181.953 77.5065 181.692 77.8508C181.432 78.1952 181.277 78.6113 181.227 79.0991C181.181 79.5859 181.232 80.1074 181.381 80.6635C181.532 81.227 181.752 81.7112 182.041 82.1161C182.33 82.5211 182.675 82.8111 183.074 82.9863C183.477 83.1569 183.922 83.177 184.408 83.0466Z" fill="#111827"/>
<path d="M51.6338 156.429C50.5361 156.723 49.4986 156.78 48.5211 156.601C47.5422 156.416 46.7005 156.03 45.996 155.442C45.297 154.853 44.806 154.096 44.5231 153.172L47.4867 152.378C47.7269 153.055 48.1775 153.54 48.8384 153.834C49.498 154.122 50.2091 154.163 50.972 153.959C51.5702 153.799 52.0658 153.519 52.4588 153.119C52.8518 152.72 53.1173 152.24 53.2553 151.679C53.3933 151.119 53.3758 150.527 53.2027 149.902C53.0376 149.264 52.7516 148.735 52.3449 148.315C51.9381 147.894 51.4585 147.608 50.906 147.456C50.3521 147.299 49.765 147.303 49.1449 147.469C48.6385 147.599 48.1668 147.825 47.7298 148.148C47.2928 148.471 46.9736 148.827 46.772 149.217L43.8928 149.503L42.4443 140.574L52.2243 137.953L52.9081 140.505L45.6555 142.448L46.3675 147.049L46.4663 147.022C46.6806 146.571 47.0408 146.148 47.5469 145.753C48.0515 145.353 48.644 145.062 49.3246 144.88C50.3454 144.606 51.3211 144.604 52.2518 144.872C53.181 145.135 53.9887 145.624 54.6747 146.34C55.3607 147.057 55.8485 147.955 56.1382 149.036C56.4367 150.151 56.445 151.213 56.1629 152.224C55.8848 153.228 55.3572 154.102 54.58 154.845C53.8068 155.582 52.8247 156.109 51.6338 156.429ZM62.7286 150.738L62.8643 151.672C62.9727 152.384 63.0237 153.124 63.0173 153.89C63.0179 154.661 62.992 155.376 62.9398 156.037C62.8875 156.698 62.8418 157.219 62.8027 157.601L60.794 158.139C60.7812 157.783 60.7634 157.3 60.7407 156.688C60.7235 156.075 60.6817 155.392 60.6153 154.64C60.5489 153.887 60.4383 153.134 60.2837 152.381L60.0943 151.444L62.7286 150.738ZM72.3129 150.985C70.9573 151.348 69.7019 151.317 68.5467 150.891C67.3955 150.458 66.3849 149.661 65.515 148.5C64.6491 147.332 63.9699 145.829 63.4772 143.991C62.9901 142.151 62.8316 140.517 63.002 139.089C63.1763 137.654 63.6552 136.467 64.4388 135.527C65.2279 134.586 66.2975 133.935 67.6476 133.573C68.9977 133.212 70.2496 133.241 71.4034 133.661C72.5571 134.081 73.5655 134.87 74.4284 136.027C75.2969 137.182 75.9767 138.677 76.4678 140.51C76.9619 142.354 77.1233 143.999 76.9519 145.445C76.7845 146.884 76.3071 148.076 75.5195 149.023C74.7374 149.967 73.6685 150.621 72.3129 150.985ZM71.6225 148.408C72.6762 148.126 73.3687 147.384 73.7 146.184C74.0353 144.976 73.9316 143.36 73.3889 141.335C73.0301 139.996 72.5887 138.908 72.0647 138.072C71.5407 137.236 70.9617 136.656 70.3278 136.332C69.6924 136.002 69.0262 135.93 68.3292 136.117C67.2809 136.398 66.5919 137.141 66.2621 138.347C65.9309 139.548 66.0316 141.153 66.5643 143.163C66.9191 144.509 67.3565 145.604 67.8765 146.447C68.402 147.289 68.9825 147.874 69.6179 148.204C70.2518 148.528 70.92 148.596 71.6225 148.408ZM87.7753 146.842C86.4197 147.205 85.1643 147.174 84.009 146.748C82.8578 146.315 81.8473 145.518 80.9774 144.357C80.1115 143.189 79.4322 141.686 78.9396 139.847C78.4524 138.007 78.294 136.373 78.4643 134.946C78.6386 133.511 79.1176 132.323 79.9012 131.384C80.6902 130.443 81.7598 129.792 83.1099 129.43C84.46 129.068 85.712 129.098 86.8657 129.518C88.0195 129.938 89.0278 130.727 89.8908 131.884C90.7592 133.039 91.439 134.534 91.9302 136.367C92.4243 138.211 92.5856 139.856 92.4143 141.302C92.2469 142.741 91.7694 143.933 90.9818 144.879C90.1997 145.824 89.1309 146.478 87.7753 146.842ZM87.0848 144.265C88.1386 143.982 88.8311 143.241 89.1623 142.041C89.4976 140.833 89.3939 139.217 88.8513 137.192C88.4925 135.853 88.0511 134.765 87.527 133.929C87.003 133.093 86.4241 132.513 85.7901 132.188C85.1547 131.859 84.4885 131.787 83.7915 131.974C82.7433 132.255 82.0543 132.998 81.7245 134.204C81.3932 135.405 81.494 137.01 82.0267 139.02C82.3815 140.366 82.8189 141.461 83.3389 142.304C83.8644 143.145 84.4448 143.731 85.0802 144.061C85.7141 144.385 86.3824 144.453 87.0848 144.265ZM103.238 142.698C101.882 143.062 100.627 143.03 99.4714 142.605C98.3202 142.172 97.3096 141.375 96.4397 140.214C95.5738 139.046 94.8946 137.543 94.4019 135.704C93.9148 133.864 93.7564 132.23 93.9267 130.802C94.101 129.367 94.58 128.18 95.3635 127.241C96.1526 126.3 97.2222 125.649 98.5723 125.287C99.9224 124.925 101.174 124.955 102.328 125.375C103.482 125.795 104.49 126.584 105.353 127.741C106.222 128.896 106.901 130.39 107.393 132.224C107.887 134.068 108.048 135.713 107.877 137.158C107.709 138.597 107.232 139.79 106.444 140.736C105.662 141.681 104.593 142.335 103.238 142.698ZM102.547 140.122C103.601 139.839 104.293 139.098 104.625 137.897C104.96 136.69 104.856 135.074 104.314 133.049C103.955 131.709 103.513 130.622 102.989 129.786C102.465 128.95 101.886 128.37 101.252 128.045C100.617 127.716 99.9509 127.644 99.2539 127.831C98.2056 128.112 97.5166 128.855 97.1868 130.061C96.8556 131.262 96.9563 132.867 97.4891 134.877C97.8439 136.223 98.2813 137.318 98.8012 138.161C99.3267 139.002 99.9072 139.588 100.543 139.918C101.177 140.242 101.845 140.31 102.547 140.122Z" fill="#111827"/>
<g filter="url(#filter1_d_632_470)">
<path d="M234.342 83.4135C230.769 70.0769 238.683 56.3684 252.02 52.7949C265.357 49.2214 279.065 57.1359 282.639 70.4726C286.212 83.8092 278.298 97.5177 264.961 101.091C251.624 104.665 237.916 96.7502 234.342 83.4135Z" fill="#F35418"/>
<g clip-path="url(#clip4_632_470)">
<path d="M260.384 87.3891L260.023 86.0435C259.933 85.7073 259.713 85.4206 259.412 85.2466C259.11 85.0725 258.752 85.0254 258.416 85.1155L249.119 87.6066C248.782 87.6967 248.496 87.9167 248.322 88.2181C248.148 88.5196 248.101 88.8778 248.191 89.2141L248.551 90.5596C248.328 90.7127 248.158 90.931 248.064 91.1845C247.969 91.4381 247.956 91.7145 248.025 91.9761L248.478 93.6665C248.508 93.7785 248.581 93.8741 248.682 93.9321C248.782 93.9901 248.901 94.0059 249.014 93.9758L261.691 90.5788C261.803 90.5488 261.899 90.4755 261.957 90.375C262.015 90.2745 262.031 90.1551 262.001 90.043L261.548 88.3526C261.477 88.0916 261.327 87.859 261.118 87.6865C260.91 87.514 260.653 87.4102 260.384 87.3891ZM249.036 88.9876C249.006 88.8755 249.021 88.7561 249.079 88.6556C249.138 88.5551 249.233 88.4818 249.345 88.4518L258.642 85.9607C258.754 85.9306 258.874 85.9463 258.974 86.0044C259.075 86.0624 259.148 86.1579 259.178 86.27L259.518 87.5378L249.375 90.2554L249.036 88.9876ZM261.042 89.8469L249.21 93.0174L248.87 91.7496C248.84 91.6376 248.856 91.5181 248.914 91.4176C248.972 91.3172 249.067 91.2438 249.179 91.2138L260.167 88.2697C260.279 88.2397 260.398 88.2554 260.499 88.3134C260.599 88.3715 260.673 88.467 260.703 88.5791L261.042 89.8469ZM274.102 84.1244L260.59 76.3249L262.024 73.8408C262.175 73.8427 262.326 73.8251 262.473 73.7885C262.807 73.6987 263.107 73.512 263.335 73.2519C263.563 72.9917 263.708 72.6699 263.754 72.327C263.799 71.9841 263.741 71.6354 263.588 71.3252C263.436 71.0149 263.194 70.7568 262.895 70.5836L256.836 67.0818C256.503 66.8878 256.116 66.8093 255.734 66.8586C255.352 66.9078 254.997 67.0821 254.725 67.3542C254.452 67.6263 254.277 67.9809 254.228 68.3628C254.178 68.7446 254.256 69.1321 254.45 69.465L249.832 77.4646C249.447 77.4641 249.073 77.5907 248.768 77.8248C248.462 78.0588 248.243 78.3872 248.144 78.7588C248.044 79.1305 248.071 79.5245 248.218 79.8797C248.366 80.2348 248.627 80.5312 248.961 80.7226L255.023 84.2227C255.425 84.4547 255.903 84.5175 256.351 84.3974C256.799 84.2773 257.181 83.9841 257.413 83.5823C257.566 83.3168 257.645 83.016 257.645 82.7099C257.644 82.4039 257.563 82.1034 257.409 81.8387L258.843 79.3546L272.353 87.155C272.552 87.2747 272.773 87.3535 273.003 87.3868C273.233 87.4202 273.467 87.4074 273.692 87.3492C273.917 87.291 274.128 87.1886 274.313 87.0479C274.498 86.9073 274.653 86.7312 274.769 86.5299C274.886 86.3287 274.961 86.1063 274.99 85.8758C275.019 85.6453 275.002 85.4113 274.94 85.1873C274.878 84.9634 274.772 84.7541 274.628 84.5716C274.484 84.3891 274.306 84.2371 274.102 84.1244ZM255.203 68.1605C255.319 67.9596 255.51 67.813 255.735 67.753C255.959 67.6929 256.198 67.7243 256.398 67.8403L262.461 71.3404C262.662 71.4564 262.808 71.6475 262.868 71.8716C262.928 72.0957 262.897 72.3345 262.781 72.5355C262.661 72.7324 262.47 72.8755 262.247 72.9352C262.025 72.9949 261.787 72.9665 261.585 72.8559L258.557 71.1047L255.524 69.3556C255.323 69.2396 255.176 69.0485 255.116 68.8244C255.056 68.6003 255.087 68.3615 255.203 68.1605ZM256.656 83.1412C256.539 83.3414 256.347 83.4873 256.124 83.5473C255.9 83.6073 255.661 83.5765 255.46 83.4617L249.398 79.9641C249.197 79.848 249.05 79.6568 248.99 79.4326C248.93 79.2083 248.962 78.9695 249.078 78.7685C249.194 78.5675 249.385 78.4209 249.61 78.3609C249.834 78.3009 250.073 78.3325 250.274 78.4486L256.336 81.9478C256.435 82.0053 256.523 82.0818 256.593 82.173C256.663 82.2642 256.714 82.3683 256.744 82.4794C256.774 82.5905 256.781 82.7063 256.766 82.8203C256.751 82.9343 256.714 83.0442 256.656 83.1438L256.656 83.1412ZM256.514 80.2217L251.676 77.4323L255.344 71.0794L260.181 73.8726L256.514 80.2217ZM273.983 86.0778C273.863 86.2746 273.672 86.4177 273.449 86.4773C273.227 86.537 272.99 86.5086 272.788 86.3981L259.281 78.5978L260.158 77.081L273.663 84.8828C273.863 84.9988 274.01 85.1899 274.07 85.414C274.13 85.6381 274.099 85.8769 273.983 86.0778Z" fill="white"/>
</g>
</g>
</g>
<path d="M13.8568 91.2464L281.418 19.5535C285.419 18.4815 289.532 20.8558 290.604 24.8568L312.345 105.995C313.417 109.996 311.042 114.108 307.041 115.18L39.4799 186.873C35.4789 187.945 31.3664 185.571 30.2943 181.57L8.55352 100.432C7.51494 96.5559 9.71087 92.5753 13.4867 91.3557L13.8568 91.2464Z" stroke="#D1D5DB" stroke-opacity="0.5"/>
<g filter="url(#filter2_d_632_470)">
<path d="M139.052 116.072C139.052 113.271 141.322 111 144.124 111H407.876C410.678 111 412.948 113.271 412.948 116.072V351.928C412.948 354.729 410.678 357 407.876 357H144.124C141.322 357 139.052 354.729 139.052 351.928V116.072Z" fill="white"/>
<path d="M157.899 140.361H155.087V132.061H157.956C158.78 132.061 159.488 132.227 160.08 132.559C160.674 132.889 161.131 133.363 161.449 133.982C161.768 134.601 161.928 135.341 161.928 136.203C161.928 137.067 161.767 137.81 161.445 138.432C161.127 139.053 160.666 139.53 160.063 139.862C159.464 140.195 158.742 140.361 157.899 140.361ZM156.59 139.06H157.826C158.405 139.06 158.887 138.955 159.273 138.744C159.659 138.53 159.95 138.213 160.144 137.791C160.339 137.367 160.436 136.838 160.436 136.203C160.436 135.568 160.339 135.041 160.144 134.622C159.95 134.201 159.662 133.886 159.281 133.678C158.903 133.467 158.433 133.362 157.871 133.362H156.59V139.06ZM166.007 140.482C165.399 140.482 164.872 140.349 164.426 140.081C163.98 139.814 163.635 139.44 163.389 138.959C163.145 138.478 163.024 137.916 163.024 137.273C163.024 136.63 163.145 136.066 163.389 135.583C163.635 135.099 163.98 134.724 164.426 134.456C164.872 134.189 165.399 134.055 166.007 134.055C166.615 134.055 167.141 134.189 167.587 134.456C168.033 134.724 168.378 135.099 168.621 135.583C168.867 136.066 168.989 136.63 168.989 137.273C168.989 137.916 168.867 138.478 168.621 138.959C168.378 139.44 168.033 139.814 167.587 140.081C167.141 140.349 166.615 140.482 166.007 140.482ZM166.015 139.307C166.344 139.307 166.62 139.217 166.842 139.036C167.063 138.852 167.228 138.606 167.336 138.298C167.447 137.99 167.502 137.647 167.502 137.269C167.502 136.888 167.447 136.543 167.336 136.235C167.228 135.924 167.063 135.677 166.842 135.494C166.62 135.31 166.344 135.218 166.015 135.218C165.677 135.218 165.396 135.31 165.172 135.494C164.95 135.677 164.784 135.924 164.673 136.235C164.565 136.543 164.511 136.888 164.511 137.269C164.511 137.647 164.565 137.99 164.673 138.298C164.784 138.606 164.95 138.852 165.172 139.036C165.396 139.217 165.677 139.307 166.015 139.307ZM172.95 140.482C172.329 140.482 171.795 140.346 171.349 140.073C170.906 139.8 170.564 139.423 170.324 138.942C170.086 138.459 169.967 137.902 169.967 137.273C169.967 136.64 170.089 136.083 170.332 135.599C170.575 135.113 170.918 134.734 171.361 134.464C171.807 134.191 172.334 134.055 172.942 134.055C173.447 134.055 173.894 134.148 174.283 134.334C174.675 134.518 174.987 134.779 175.219 135.117C175.452 135.452 175.584 135.843 175.617 136.292H174.214C174.158 135.992 174.023 135.742 173.809 135.542C173.598 135.34 173.316 135.238 172.962 135.238C172.662 135.238 172.399 135.319 172.172 135.481C171.945 135.641 171.768 135.87 171.641 136.17C171.517 136.47 171.455 136.83 171.455 137.248C171.455 137.673 171.517 138.037 171.641 138.343C171.765 138.645 171.939 138.879 172.164 139.044C172.391 139.206 172.657 139.287 172.962 139.287C173.178 139.287 173.371 139.246 173.542 139.165C173.715 139.082 173.859 138.961 173.975 138.805C174.091 138.648 174.171 138.457 174.214 138.233H175.617C175.581 138.674 175.452 139.064 175.228 139.404C175.003 139.742 174.698 140.007 174.312 140.199C173.925 140.388 173.471 140.482 172.95 140.482ZM180.789 137.743V134.136H182.256V140.361H180.833V139.254H180.769C180.628 139.603 180.397 139.888 180.076 140.11C179.757 140.331 179.364 140.442 178.896 140.442C178.488 140.442 178.128 140.351 177.814 140.17C177.503 139.987 177.26 139.721 177.085 139.372C176.909 139.021 176.821 138.597 176.821 138.099V134.136H178.288V137.872C178.288 138.267 178.396 138.58 178.613 138.813C178.829 139.045 179.112 139.161 179.464 139.161C179.68 139.161 179.889 139.109 180.092 139.003C180.294 138.898 180.461 138.741 180.59 138.533C180.723 138.322 180.789 138.059 180.789 137.743ZM183.765 140.361V134.136H185.167V135.194H185.24C185.369 134.837 185.584 134.559 185.884 134.359C186.184 134.156 186.542 134.055 186.958 134.055C187.38 134.055 187.735 134.158 188.024 134.363C188.316 134.565 188.521 134.842 188.64 135.194H188.705C188.843 134.848 189.075 134.572 189.402 134.367C189.731 134.159 190.122 134.055 190.573 134.055C191.146 134.055 191.613 134.236 191.975 134.598C192.337 134.96 192.518 135.488 192.518 136.183V140.361H191.047V136.409C191.047 136.023 190.945 135.741 190.739 135.562C190.534 135.381 190.283 135.291 189.985 135.291C189.631 135.291 189.355 135.402 189.155 135.623C188.957 135.842 188.859 136.127 188.859 136.478V140.361H187.42V136.349C187.42 136.027 187.323 135.77 187.128 135.579C186.936 135.387 186.685 135.291 186.374 135.291C186.164 135.291 185.972 135.345 185.799 135.453C185.626 135.558 185.488 135.708 185.386 135.903C185.283 136.095 185.232 136.319 185.232 136.576V140.361H183.765ZM196.763 140.482C196.138 140.482 195.599 140.353 195.146 140.093C194.694 139.831 194.347 139.461 194.104 138.983C193.861 138.502 193.739 137.936 193.739 137.285C193.739 136.645 193.861 136.083 194.104 135.599C194.35 135.113 194.693 134.734 195.133 134.464C195.574 134.191 196.091 134.055 196.686 134.055C197.069 134.055 197.431 134.117 197.772 134.241C198.115 134.363 198.417 134.552 198.679 134.809C198.944 135.065 199.152 135.392 199.304 135.789C199.455 136.184 199.531 136.654 199.531 137.2V137.65H194.428V136.661H198.124C198.122 136.38 198.061 136.13 197.942 135.911C197.823 135.689 197.657 135.515 197.443 135.388C197.233 135.261 196.987 135.198 196.706 135.198C196.406 135.198 196.142 135.271 195.916 135.417C195.689 135.56 195.512 135.749 195.385 135.984C195.26 136.216 195.197 136.472 195.194 136.75V137.613C195.194 137.975 195.26 138.286 195.393 138.545C195.525 138.802 195.71 138.999 195.948 139.137C196.186 139.272 196.464 139.34 196.783 139.34C196.996 139.34 197.189 139.31 197.362 139.25C197.535 139.188 197.685 139.098 197.812 138.979C197.939 138.86 198.035 138.713 198.1 138.537L199.47 138.691C199.383 139.053 199.218 139.369 198.975 139.639C198.735 139.907 198.427 140.115 198.051 140.264C197.676 140.409 197.246 140.482 196.763 140.482ZM202.239 136.713V140.361H200.772V134.136H202.174V135.194H202.247C202.39 134.845 202.618 134.568 202.932 134.363C203.248 134.158 203.638 134.055 204.103 134.055C204.533 134.055 204.907 134.147 205.226 134.33C205.547 134.514 205.796 134.78 205.971 135.129C206.15 135.477 206.237 135.9 206.235 136.397V140.361H204.768V136.624C204.768 136.208 204.66 135.883 204.443 135.648C204.23 135.413 203.934 135.295 203.556 135.295C203.299 135.295 203.071 135.352 202.871 135.465C202.674 135.576 202.518 135.737 202.405 135.947C202.294 136.158 202.239 136.414 202.239 136.713ZM210.834 134.136V135.271H207.256V134.136H210.834ZM208.139 132.645H209.607V138.488C209.607 138.686 209.636 138.837 209.696 138.942C209.758 139.045 209.839 139.115 209.939 139.153C210.039 139.191 210.15 139.21 210.271 139.21C210.363 139.21 210.447 139.203 210.522 139.19C210.601 139.176 210.66 139.164 210.701 139.153L210.948 140.3C210.87 140.327 210.757 140.357 210.612 140.389C210.468 140.422 210.293 140.441 210.085 140.446C209.717 140.457 209.386 140.401 209.092 140.28C208.797 140.156 208.564 139.964 208.391 139.704C208.22 139.445 208.137 139.121 208.139 138.732V132.645ZM219.468 134.343C219.43 133.989 219.27 133.713 218.99 133.516C218.711 133.319 218.349 133.22 217.903 133.22C217.59 133.22 217.321 133.267 217.097 133.362C216.873 133.456 216.701 133.585 216.582 133.747C216.463 133.909 216.403 134.094 216.4 134.302C216.4 134.475 216.439 134.625 216.517 134.752C216.598 134.879 216.708 134.987 216.846 135.076C216.983 135.163 217.136 135.236 217.304 135.295C217.471 135.354 217.64 135.404 217.81 135.445L218.588 135.639C218.902 135.712 219.203 135.811 219.492 135.935C219.784 136.06 220.045 136.216 220.274 136.405C220.507 136.595 220.69 136.823 220.825 137.09C220.96 137.358 221.028 137.671 221.028 138.031C221.028 138.517 220.904 138.945 220.655 139.315C220.407 139.683 220.047 139.97 219.577 140.178C219.11 140.384 218.544 140.486 217.879 140.486C217.233 140.486 216.673 140.387 216.197 140.187C215.724 139.987 215.354 139.695 215.087 139.311C214.822 138.928 214.679 138.46 214.657 137.909H216.136C216.158 138.198 216.247 138.439 216.404 138.63C216.561 138.822 216.765 138.965 217.016 139.06C217.27 139.154 217.554 139.202 217.867 139.202C218.194 139.202 218.48 139.153 218.726 139.056C218.975 138.956 219.169 138.818 219.31 138.642C219.45 138.464 219.522 138.256 219.524 138.018C219.522 137.802 219.458 137.624 219.334 137.483C219.21 137.34 219.035 137.221 218.811 137.127C218.59 137.03 218.33 136.943 218.033 136.867L217.089 136.624C216.405 136.449 215.865 136.183 215.468 135.826C215.073 135.467 214.876 134.99 214.876 134.395C214.876 133.906 215.008 133.478 215.273 133.111C215.541 132.743 215.904 132.458 216.363 132.255C216.823 132.05 217.343 131.947 217.924 131.947C218.513 131.947 219.029 132.05 219.472 132.255C219.918 132.458 220.267 132.74 220.521 133.102C220.775 133.462 220.906 133.875 220.915 134.343H219.468ZM225.412 134.136V135.271H221.833V134.136H225.412ZM222.717 132.645H224.184V138.488C224.184 138.686 224.214 138.837 224.273 138.942C224.335 139.045 224.416 139.115 224.516 139.153C224.616 139.191 224.727 139.21 224.849 139.21C224.941 139.21 225.024 139.203 225.1 139.19C225.178 139.176 225.238 139.164 225.278 139.153L225.525 140.3C225.447 140.327 225.335 140.357 225.189 140.389C225.046 140.422 224.87 140.441 224.662 140.446C224.295 140.457 223.964 140.401 223.669 140.28C223.375 140.156 223.141 139.964 222.968 139.704C222.798 139.445 222.714 139.121 222.717 138.732V132.645ZM228.43 140.486C228.036 140.486 227.68 140.416 227.364 140.276C227.051 140.133 226.802 139.922 226.619 139.644C226.438 139.365 226.347 139.022 226.347 138.614C226.347 138.263 226.412 137.972 226.542 137.743C226.671 137.513 226.848 137.329 227.073 137.192C227.297 137.054 227.549 136.95 227.83 136.88C228.114 136.807 228.407 136.754 228.71 136.722C229.075 136.684 229.37 136.65 229.597 136.62C229.824 136.588 229.989 136.539 230.092 136.474C230.197 136.407 230.25 136.303 230.25 136.162V136.138C230.25 135.833 230.159 135.596 229.978 135.429C229.797 135.261 229.537 135.177 229.196 135.177C228.837 135.177 228.552 135.256 228.341 135.413C228.133 135.569 227.993 135.754 227.92 135.968L226.55 135.773C226.658 135.395 226.836 135.079 227.085 134.825C227.333 134.568 227.637 134.376 227.997 134.249C228.356 134.12 228.753 134.055 229.188 134.055C229.488 134.055 229.787 134.09 230.084 134.16C230.381 134.23 230.652 134.347 230.898 134.509C231.144 134.668 231.341 134.886 231.49 135.161C231.641 135.437 231.717 135.781 231.717 136.195V140.361H230.307V139.506H230.258C230.169 139.679 230.043 139.841 229.881 139.992C229.722 140.141 229.52 140.261 229.277 140.353C229.037 140.442 228.754 140.486 228.43 140.486ZM228.811 139.408C229.106 139.408 229.361 139.35 229.577 139.234C229.793 139.115 229.959 138.959 230.076 138.764C230.195 138.57 230.254 138.357 230.254 138.128V137.394C230.208 137.432 230.13 137.467 230.019 137.5C229.911 137.532 229.789 137.56 229.654 137.585C229.519 137.609 229.385 137.631 229.253 137.65C229.121 137.669 229.006 137.685 228.908 137.698C228.69 137.728 228.494 137.777 228.321 137.844C228.148 137.912 228.011 138.006 227.911 138.128C227.812 138.247 227.762 138.401 227.762 138.59C227.762 138.86 227.86 139.064 228.057 139.202C228.255 139.34 228.506 139.408 228.811 139.408ZM236.301 134.136V135.271H232.722V134.136H236.301ZM233.606 132.645H235.073V138.488C235.073 138.686 235.102 138.837 235.162 138.942C235.224 139.045 235.305 139.115 235.405 139.153C235.505 139.191 235.616 139.21 235.737 139.21C235.829 139.21 235.913 139.203 235.989 139.19C236.067 139.176 236.126 139.164 236.167 139.153L236.414 140.3C236.336 140.327 236.224 140.357 236.078 140.389C235.934 140.422 235.759 140.441 235.551 140.446C235.183 140.457 234.852 140.401 234.558 140.28C234.263 140.156 234.03 139.964 233.857 139.704C233.687 139.445 233.603 139.121 233.606 138.732V132.645ZM241.495 137.743V134.136H242.962V140.361H241.54V139.254H241.475C241.334 139.603 241.103 139.888 240.782 140.11C240.463 140.331 240.07 140.442 239.602 140.442C239.195 140.442 238.834 140.351 238.52 140.17C238.21 139.987 237.967 139.721 237.791 139.372C237.615 139.021 237.528 138.597 237.528 138.099V134.136H238.995V137.872C238.995 138.267 239.103 138.58 239.319 138.813C239.535 139.045 239.819 139.161 240.17 139.161C240.386 139.161 240.595 139.109 240.798 139.003C241.001 138.898 241.167 138.741 241.297 138.533C241.429 138.322 241.495 138.059 241.495 137.743ZM249.391 135.781L248.053 135.927C248.016 135.792 247.949 135.665 247.855 135.546C247.763 135.427 247.639 135.331 247.482 135.259C247.325 135.186 247.133 135.149 246.906 135.149C246.601 135.149 246.344 135.215 246.136 135.348C245.931 135.48 245.83 135.652 245.832 135.862C245.83 136.043 245.896 136.191 246.031 136.304C246.169 136.418 246.396 136.511 246.712 136.584L247.774 136.811C248.363 136.938 248.8 137.139 249.087 137.415C249.376 137.69 249.522 138.051 249.524 138.497C249.522 138.888 249.407 139.234 249.18 139.534C248.956 139.831 248.644 140.064 248.244 140.231C247.844 140.399 247.385 140.482 246.866 140.482C246.104 140.482 245.491 140.323 245.026 140.004C244.561 139.683 244.284 139.236 244.195 138.663L245.626 138.525C245.691 138.806 245.828 139.018 246.039 139.161C246.25 139.304 246.524 139.376 246.862 139.376C247.21 139.376 247.49 139.304 247.701 139.161C247.914 139.018 248.021 138.841 248.021 138.63C248.021 138.452 247.952 138.305 247.814 138.189C247.679 138.072 247.468 137.983 247.182 137.921L246.12 137.698C245.523 137.574 245.081 137.365 244.795 137.07C244.509 136.773 244.367 136.397 244.369 135.943C244.367 135.56 244.471 135.227 244.682 134.946C244.895 134.663 245.191 134.444 245.569 134.29C245.95 134.133 246.389 134.055 246.886 134.055C247.616 134.055 248.19 134.21 248.609 134.521C249.03 134.832 249.291 135.252 249.391 135.781Z" fill="#111827"/>
<path d="M340.031 126.534H395.196C396.422 126.534 397.415 127.527 397.415 128.753V143.969C397.415 145.195 396.421 146.188 395.196 146.188H340.031C338.806 146.188 337.812 145.195 337.812 143.969V128.753C337.812 127.527 338.805 126.534 340.031 126.534Z" fill="white"/>
<path d="M340.031 126.534H395.196C396.422 126.534 397.415 127.527 397.415 128.753V143.969C397.415 145.195 396.421 146.188 395.196 146.188H340.031C338.806 146.188 337.812 145.195 337.812 143.969V128.753C337.812 127.527 338.805 126.534 340.031 126.534Z" stroke="#D1D5DB" stroke-width="0.634021"/>
<path d="M346.762 134.244V133.405H351.758V134.244H349.744V139.861H348.773V134.244H346.762ZM354.124 139.959C353.67 139.959 353.274 139.855 352.935 139.646C352.597 139.438 352.334 139.147 352.147 138.773C351.96 138.399 351.867 137.962 351.867 137.462C351.867 136.96 351.96 136.521 352.147 136.145C352.334 135.768 352.597 135.476 352.935 135.268C353.274 135.06 353.67 134.956 354.124 134.956C354.578 134.956 354.974 135.06 355.312 135.268C355.65 135.476 355.913 135.768 356.1 136.145C356.287 136.521 356.381 136.96 356.381 137.462C356.381 137.962 356.287 138.399 356.1 138.773C355.913 139.147 355.65 139.438 355.312 139.646C354.974 139.855 354.578 139.959 354.124 139.959ZM354.127 139.167C354.421 139.167 354.665 139.09 354.858 138.934C355.051 138.779 355.194 138.572 355.287 138.313C355.381 138.055 355.429 137.77 355.429 137.459C355.429 137.15 355.381 136.866 355.287 136.608C355.194 136.347 355.051 136.138 354.858 135.981C354.665 135.823 354.421 135.744 354.127 135.744C353.831 135.744 353.585 135.823 353.389 135.981C353.196 136.138 353.052 136.347 352.957 136.608C352.865 136.866 352.819 137.15 352.819 137.459C352.819 137.77 352.865 138.055 352.957 138.313C353.052 138.572 353.196 138.779 353.389 138.934C353.585 139.09 353.831 139.167 354.127 139.167ZM359.245 139.955C358.854 139.955 358.505 139.856 358.199 139.656C357.894 139.454 357.654 139.167 357.48 138.795C357.308 138.421 357.221 137.973 357.221 137.449C357.221 136.926 357.309 136.479 357.483 136.107C357.66 135.735 357.901 135.45 358.208 135.252C358.515 135.055 358.863 134.956 359.251 134.956C359.552 134.956 359.794 135.007 359.976 135.107C360.161 135.206 360.304 135.322 360.405 135.454C360.508 135.587 360.588 135.703 360.645 135.804H360.701V133.405H361.644V139.861H360.723V139.107H360.645C360.588 139.21 360.506 139.328 360.399 139.461C360.294 139.593 360.149 139.708 359.964 139.807C359.779 139.906 359.539 139.955 359.245 139.955ZM359.453 139.152C359.724 139.152 359.953 139.08 360.14 138.937C360.329 138.792 360.472 138.592 360.569 138.335C360.668 138.079 360.717 137.78 360.717 137.44C360.717 137.104 360.669 136.81 360.572 136.557C360.475 136.305 360.334 136.109 360.147 135.968C359.96 135.827 359.728 135.757 359.453 135.757C359.169 135.757 358.933 135.83 358.744 135.977C358.555 136.125 358.412 136.325 358.315 136.58C358.221 136.834 358.173 137.121 358.173 137.44C358.173 137.764 358.222 138.055 358.318 138.313C358.415 138.572 358.558 138.777 358.747 138.928C358.938 139.077 359.174 139.152 359.453 139.152ZM364.398 139.968C364.091 139.968 363.814 139.911 363.566 139.798C363.318 139.682 363.121 139.515 362.976 139.297C362.833 139.078 362.762 138.81 362.762 138.493C362.762 138.22 362.815 137.995 362.92 137.818C363.025 137.642 363.167 137.502 363.345 137.399C363.524 137.296 363.723 137.218 363.944 137.166C364.165 137.113 364.39 137.073 364.619 137.046C364.909 137.012 365.144 136.985 365.325 136.964C365.505 136.941 365.637 136.904 365.719 136.854C365.801 136.803 365.842 136.721 365.842 136.608V136.586C365.842 136.311 365.764 136.097 365.608 135.946C365.455 135.795 365.226 135.719 364.921 135.719C364.604 135.719 364.354 135.789 364.171 135.93C363.99 136.069 363.865 136.223 363.796 136.394L362.91 136.192C363.015 135.898 363.169 135.66 363.37 135.479C363.574 135.297 363.809 135.164 364.073 135.082C364.338 134.998 364.617 134.956 364.909 134.956C365.102 134.956 365.307 134.979 365.523 135.026C365.742 135.07 365.946 135.152 366.135 135.271C366.326 135.391 366.483 135.562 366.604 135.785C366.726 136.006 366.787 136.293 366.787 136.646V139.861H365.867V139.199H365.829C365.768 139.321 365.677 139.441 365.555 139.558C365.433 139.676 365.276 139.774 365.085 139.851C364.894 139.929 364.665 139.968 364.398 139.968ZM364.603 139.212C364.863 139.212 365.086 139.16 365.271 139.057C365.458 138.954 365.6 138.82 365.697 138.654C365.795 138.485 365.845 138.306 365.845 138.115V137.49C365.811 137.524 365.746 137.556 365.649 137.585C365.555 137.612 365.447 137.637 365.325 137.658C365.203 137.676 365.084 137.694 364.968 137.711C364.853 137.726 364.756 137.738 364.678 137.749C364.496 137.772 364.329 137.811 364.177 137.866C364.028 137.92 363.908 137.999 363.818 138.102C363.73 138.203 363.686 138.337 363.686 138.505C363.686 138.739 363.772 138.915 363.944 139.035C364.116 139.153 364.336 139.212 364.603 139.212ZM368.465 141.676C368.324 141.676 368.196 141.665 368.08 141.642C367.965 141.621 367.879 141.598 367.822 141.572L368.049 140.8C368.221 140.846 368.375 140.866 368.509 140.86C368.644 140.854 368.762 140.803 368.865 140.709C368.97 140.614 369.063 140.46 369.143 140.245L369.259 139.924L367.488 135.019H368.496L369.723 138.777H369.773L370.999 135.019H372.011L370.016 140.507C369.923 140.759 369.806 140.972 369.663 141.147C369.52 141.323 369.35 141.456 369.152 141.544C368.955 141.632 368.726 141.676 368.465 141.676Z" fill="#4B5563"/>
<path d="M381.247 134.459L385.052 138.263L388.856 134.459" stroke="#4B5563" stroke-width="1.26804" stroke-linecap="round" stroke-linejoin="round"/>
<path d="M343.84 234C343.84 271.467 313.467 301.84 276 301.84C238.533 301.84 208.16 271.467 208.16 234C208.16 196.533 238.533 166.16 276 166.16C313.467 166.16 343.84 196.533 343.84 234ZM236.645 234C236.645 255.735 254.265 273.355 276 273.355C297.735 273.355 315.355 255.735 315.355 234C315.355 212.265 297.735 194.645 276 194.645C254.265 194.645 236.645 212.265 236.645 234Z" fill="#E4F1FF"/>
<path d="M325.485 213.387C332.742 210.364 341.24 213.802 342.684 221.529C345.075 234.315 343.757 247.625 338.728 259.836C331.875 276.473 318.695 289.706 302.086 296.624C285.477 303.543 266.8 303.58 250.163 296.728C237.952 291.698 227.575 283.259 220.182 272.557C215.714 266.09 219.258 257.635 226.515 254.613C233.771 251.59 241.964 255.298 247.358 261.016C251.153 265.04 255.791 268.259 261.005 270.406C270.66 274.383 281.5 274.362 291.14 270.346C300.78 266.331 308.429 258.651 312.406 248.995C314.554 243.781 315.535 238.222 315.352 232.694C315.091 224.837 318.229 216.41 325.485 213.387Z" fill="#FF9F29"/>
<path d="M282.345 180.707C283.27 172.935 290.405 167.246 297.816 169.763C305.94 172.522 313.509 176.812 320.094 182.444C330.291 191.165 337.673 202.714 341.306 215.631C344.939 228.547 344.66 242.251 340.505 255.008C337.822 263.248 333.599 270.855 328.104 277.444C323.092 283.455 314.038 282.32 309.197 276.17C304.356 270.021 305.715 261.173 309.774 254.481C311.34 251.899 312.612 249.133 313.557 246.232C315.976 238.804 316.138 230.825 314.023 223.305C311.908 215.785 307.61 209.06 301.673 203.983C299.354 202 296.826 200.302 294.144 198.915C287.192 195.32 281.42 188.478 282.345 180.707Z" fill="#F35418"/>
</g>
</g>
<defs>
<filter id="filter0_d_632_470" x="434.872" y="72.8647" width="101.237" height="101.237" filterUnits="userSpaceOnUse" color-interpolation-filters="sRGB">
<feFlood flood-opacity="0" result="BackgroundImageFix"/>
<feColorMatrix in="SourceAlpha" type="matrix" values="0 0 0 0 0 0 0 0 0 0 0 0 0 0 0 0 0 0 127 0" result="hardAlpha"/>
<feOffset dy="1"/>
<feGaussianBlur stdDeviation="10"/>
<feComposite in2="hardAlpha" operator="out"/>
<feColorMatrix type="matrix" values="0 0 0 0 0 0 0 0 0 0 0 0 0 0 0 0 0 0 0.05 0"/>
<feBlend mode="normal" in2="BackgroundImageFix" result="effect1_dropShadow_632_470"/>
<feBlend mode="normal" in="SourceGraphic" in2="effect1_dropShadow_632_470" result="shape"/>
</filter>
<filter id="filter1_d_632_470" x="207.872" y="27.3245" width="101.237" height="101.237" filterUnits="userSpaceOnUse" color-interpolation-filters="sRGB">
<feFlood flood-opacity="0" result="BackgroundImageFix"/>
<feColorMatrix in="SourceAlpha" type="matrix" values="0 0 0 0 0 0 0 0 0 0 0 0 0 0 0 0 0 0 127 0" result="hardAlpha"/>
<feOffset dy="1"/>
<feGaussianBlur stdDeviation="10"/>
<feComposite in2="hardAlpha" operator="out"/>
<feColorMatrix type="matrix" values="0 0 0 0 0 0 0 0 0 0 0 0 0 0 0 0 0 0 0.05 0"/>
<feBlend mode="normal" in2="BackgroundImageFix" result="effect1_dropShadow_632_470"/>
<feBlend mode="normal" in="SourceGraphic" in2="effect1_dropShadow_632_470" result="shape"/>
</filter>
<filter id="filter2_d_632_470" x="120.031" y="94.5155" width="311.938" height="284.041" filterUnits="userSpaceOnUse" color-interpolation-filters="sRGB">
<feFlood flood-opacity="0" result="BackgroundImageFix"/>
<feColorMatrix in="SourceAlpha" type="matrix" values="0 0 0 0 0 0 0 0 0 0 0 0 0 0 0 0 0 0 127 0" result="hardAlpha"/>
<feOffset dy="2.53608"/>
<feGaussianBlur stdDeviation="9.51031"/>
<feComposite in2="hardAlpha" operator="out"/>
<feColorMatrix type="matrix" values="0 0 0 0 0.180392 0 0 0 0 0.176471 0 0 0 0 0.454902 0 0 0 0.05 0"/>
<feBlend mode="normal" in2="BackgroundImageFix" result="effect1_dropShadow_632_470"/>
<feBlend mode="normal" in="SourceGraphic" in2="effect1_dropShadow_632_470" result="shape"/>
</filter>
<clipPath id="clip0_632_470">
<rect width="552" height="296" rx="16" fill="white"/>
</clipPath>
<clipPath id="clip1_632_470">
<path d="M256.811 17.7274C257.955 13.4597 262.342 10.927 266.609 12.0706L534.171 83.7634C538.438 84.907 540.971 89.2937 539.828 93.5614L518.087 174.699C516.943 178.967 512.557 181.5 508.289 180.356L240.727 108.663C236.46 107.52 233.927 103.133 235.071 98.8652L256.811 17.7274Z" fill="white"/>
</clipPath>
<clipPath id="clip2_632_470">
<rect width="28" height="28" fill="white" transform="translate(475.591 105.337) rotate(15)"/>
</clipPath>
<clipPath id="clip3_632_470">
<path d="M8.07055 100.561C6.92702 96.2937 9.45968 91.907 13.7274 90.7634L281.289 19.0706C285.557 17.927 289.943 20.4597 291.087 24.7274L312.828 105.865C313.971 110.133 311.438 114.52 307.171 115.663L39.6093 187.356C35.3416 188.5 30.9549 185.967 29.8114 181.699L8.07055 100.561Z" fill="white"/>
</clipPath>
<clipPath id="clip4_632_470">
<rect width="28" height="28" fill="white" transform="translate(241.344 67.0435) rotate(-15)"/>
</clipPath>
</defs>
</svg>
