<svg width="656" height="277" viewBox="0 0 656 277" fill="none" xmlns="http://www.w3.org/2000/svg">
<rect width="656" height="277" fill="#F8F2F1"/>
<path d="M74.2474 139.229H169.249" stroke="#E6E6E6" stroke-width="1.61705" stroke-linecap="round" stroke-linejoin="round"/>
<path d="M211.697 139.229H306.698" stroke="#E6E6E6" stroke-width="1.61705" stroke-linecap="round" stroke-linejoin="round"/>
<path d="M349.146 139.229H444.147" stroke="#E6E6E6" stroke-width="1.61705" stroke-linecap="round" stroke-linejoin="round"/>
<path d="M486.594 139.229H581.596" stroke="#E6E6E6" stroke-width="1.61705" stroke-linecap="round" stroke-linejoin="round"/>
<circle cx="51.9478" cy="136.948" r="26.9478" fill="#3887FD"/>
<path fill-rule="evenodd" clip-rule="evenodd" d="M41.3621 133.71C41.3621 130.972 42.45 128.345 44.3865 126.408C46.323 124.472 48.9495 123.384 51.6882 123.384H52.2092C54.2517 123.384 56.2485 123.989 57.9468 125.124C59.6452 126.259 60.9689 127.872 61.7505 129.759C62.5321 131.646 62.7365 133.722 62.3378 135.726C61.9391 137.729 60.9553 139.569 59.5108 141.013L58.941 141.583C57.5453 142.979 56.7611 144.871 56.7608 146.845C56.7608 148.643 55.3031 150.101 53.5053 150.101H50.3921C49.5287 150.101 48.7007 149.758 48.0901 149.147C47.4796 148.537 47.1366 147.709 47.1366 146.845C47.1363 144.871 46.3521 142.979 44.9564 141.583L44.3866 141.013C42.4501 139.077 41.3621 136.449 41.3621 133.71ZM51.6882 125.309C50.0264 125.309 48.4018 125.801 47.0199 126.724C45.6381 127.647 44.561 128.96 43.925 130.495C43.289 132.03 43.1227 133.72 43.4469 135.35C43.7712 136.979 44.5716 138.477 45.7469 139.652L46.3179 140.221C47.2961 141.2 48.0455 142.382 48.5122 143.685H55.3852C55.8519 142.382 56.6013 141.2 57.5795 140.221L58.1493 139.652C59.3239 138.476 60.1237 136.979 60.4476 135.35C60.7716 133.72 60.6051 132.031 59.9692 130.496C59.3333 128.961 58.2566 127.649 56.8751 126.725C55.4936 125.802 53.8695 125.309 52.2079 125.309H51.6882ZM49.0614 146.845C49.0614 146.432 49.0339 146.019 48.9793 145.61H54.9181C54.8629 146.018 54.836 146.431 54.836 146.845C54.836 147.581 54.2406 148.176 53.5053 148.176H50.3921C50.2174 148.176 50.0444 148.142 49.8829 148.075C49.7215 148.008 49.5748 147.91 49.4512 147.786C49.3276 147.663 49.2296 147.516 49.1627 147.355C49.0959 147.193 49.0614 147.02 49.0614 146.845ZM54.0147 130.449C54.0917 130.347 54.1474 130.23 54.1786 130.106C54.2097 129.981 54.2157 129.852 54.1961 129.725C54.1765 129.598 54.1318 129.477 54.0646 129.367C53.9973 129.258 53.9089 129.163 53.8046 129.089C53.7002 129.014 53.582 128.961 53.4569 128.933C53.3318 128.905 53.2023 128.902 53.076 128.924C52.9497 128.947 52.8292 128.994 52.7216 129.064C52.6139 129.134 52.5213 129.224 52.4492 129.331L50.4589 132.116C50.2561 132.399 50.0611 132.672 49.9289 132.908C49.7967 133.143 49.6107 133.534 49.6877 134.003C49.7428 134.333 49.8994 134.638 50.1368 134.875C50.473 135.21 50.899 135.286 51.1672 135.314C51.4367 135.344 51.7716 135.344 52.1194 135.344H52.4594L52.2708 135.572L50.5679 137.615C50.4118 137.812 50.3388 138.062 50.3645 138.312C50.3903 138.562 50.5127 138.792 50.7057 138.953C50.8988 139.113 51.147 139.192 51.3975 139.173C51.648 139.153 51.8808 139.036 52.0462 138.847L53.7786 136.768C54.0021 136.51 54.2128 136.242 54.4099 135.964C54.5639 135.733 54.7975 135.333 54.7384 134.836C54.6978 134.492 54.547 134.17 54.3086 133.919C53.9634 133.555 53.5091 133.479 53.2332 133.45C52.9471 133.419 52.589 133.419 52.2105 133.419H51.8948L52.0514 133.199L54.0147 130.449Z" fill="white"/>
<path d="M36.827 184.312V173.533H38.7057V184.312H36.827ZM46.492 172.763H48.3707V184.312H46.492V183.349C46.2456 183.693 45.9351 183.973 45.5604 184.188C45.1857 184.404 44.752 184.512 44.2592 184.512C43.6997 184.512 43.1762 184.407 42.6885 184.196C42.2009 183.986 41.7697 183.696 41.395 183.326C41.0255 182.951 40.7355 182.52 40.525 182.033C40.3146 181.545 40.2093 181.021 40.2093 180.462C40.2093 179.902 40.3146 179.379 40.525 178.891C40.7355 178.404 41.0255 177.975 41.395 177.605C41.7697 177.231 42.2009 176.938 42.6885 176.728C43.1762 176.517 43.6997 176.412 44.2592 176.412C44.752 176.412 45.1857 176.52 45.5604 176.735C45.9351 176.946 46.2456 177.226 46.492 177.575V172.763ZM44.2823 182.702C44.6827 182.702 45.0368 182.602 45.3448 182.402C45.6528 182.202 45.894 181.933 46.0686 181.594C46.2431 181.25 46.3303 180.873 46.3303 180.462C46.3303 180.046 46.2431 179.669 46.0686 179.33C45.894 178.986 45.6502 178.714 45.3371 178.514C45.0291 178.314 44.6775 178.214 44.2823 178.214C43.8871 178.214 43.5252 178.316 43.1967 178.522C42.8733 178.722 42.6141 178.991 42.4191 179.33C42.2291 179.669 42.1342 180.046 42.1342 180.462C42.1342 180.878 42.2317 181.255 42.4268 181.594C42.6218 181.933 42.881 182.202 43.2044 182.402C43.5329 182.602 43.8922 182.702 44.2823 182.702ZM53.4877 184.512C52.7794 184.512 52.1327 184.33 51.5475 183.965C50.9675 183.601 50.503 183.111 50.1539 182.495C49.81 181.879 49.6381 181.199 49.6381 180.454C49.6381 179.895 49.7382 179.371 49.9383 178.884C50.1385 178.391 50.4131 177.96 50.7622 177.59C51.1163 177.215 51.527 176.923 51.9941 176.712C52.4612 176.502 52.9591 176.397 53.4877 176.397C54.0883 176.397 54.6375 176.525 55.1354 176.782C55.6384 177.033 56.0645 177.38 56.4135 177.821C56.7626 178.263 57.0166 178.766 57.1758 179.33C57.3349 179.895 57.3708 180.485 57.2835 181.101H51.6553C51.7272 181.388 51.8452 181.648 52.0095 181.879C52.1737 182.104 52.3816 182.287 52.6331 182.425C52.8846 182.559 53.1695 182.628 53.4877 182.633C53.8163 182.638 54.114 182.561 54.3809 182.402C54.6529 182.238 54.8788 182.017 55.0584 181.74L56.9756 182.187C56.6625 182.869 56.1954 183.429 55.5743 183.865C54.9532 184.296 54.2577 184.512 53.4877 184.512ZM51.5937 179.692H55.3818C55.3253 179.384 55.2047 179.107 55.0199 178.86C54.8403 178.609 54.617 178.409 54.3501 178.26C54.0832 178.111 53.7957 178.037 53.4877 178.037C53.1798 178.037 52.8949 178.111 52.6331 178.26C52.3713 178.404 52.1481 178.601 51.9633 178.853C51.7836 179.099 51.6604 179.379 51.5937 179.692ZM64.3717 176.612H66.2503V184.312H64.3717L64.287 183.357C64.0765 183.701 63.7968 183.981 63.4477 184.196C63.1038 184.407 62.6958 184.512 62.2235 184.512C61.6538 184.512 61.12 184.404 60.6221 184.188C60.1242 183.973 59.6853 183.675 59.3055 183.295C58.9308 182.915 58.6356 182.477 58.42 181.979C58.2096 181.481 58.1044 180.947 58.1044 180.377C58.1044 179.828 58.2045 179.312 58.4046 178.83C58.61 178.347 58.8948 177.924 59.2593 177.559C59.6237 177.195 60.0446 176.91 60.522 176.705C60.9993 176.499 61.5126 176.397 62.0618 176.397C62.57 176.397 63.0243 176.51 63.4246 176.735C63.8301 176.961 64.174 177.249 64.4564 177.598L64.3717 176.612ZM62.1773 182.702C62.5777 182.702 62.9319 182.602 63.2399 182.402C63.5478 182.202 63.7891 181.933 63.9636 181.594C64.1381 181.25 64.2254 180.873 64.2254 180.462C64.2254 180.046 64.1381 179.669 63.9636 179.33C63.7891 178.986 63.5453 178.714 63.2322 178.514C62.9242 178.314 62.5726 178.214 62.1773 178.214C61.7821 178.214 61.4202 178.316 61.0917 178.522C60.7684 178.722 60.5091 178.991 60.3141 179.33C60.1242 179.669 60.0292 180.046 60.0292 180.462C60.0292 180.878 60.1267 181.255 60.3218 181.594C60.5168 181.933 60.7761 182.202 61.0994 182.402C61.4279 182.602 61.7872 182.702 62.1773 182.702Z" fill="#64748B"/>
<circle cx="189.961" cy="136.948" r="26.9478" fill="#059B88"/>
<g clip-path="url(#clip0_336_2307)">
<path d="M205.26 122.855C205.193 122.185 204.691 121.683 204.022 121.616C195.552 120.947 189.493 125.064 185.71 130.219C183.635 129.55 181.392 129.784 179.35 130.922C177.375 132.027 175.735 133.902 174.664 136.178C174.429 136.714 174.53 137.316 174.965 137.718C175.367 138.12 176.003 138.187 176.505 137.919C178.647 136.781 181.057 137.015 182.497 138.454L188.389 144.346L188.422 144.38C189.861 145.819 190.096 148.229 188.958 150.372C188.69 150.874 188.79 151.51 189.158 151.912C189.426 152.179 189.761 152.313 190.129 152.313C190.33 152.313 190.531 152.28 190.698 152.179C192.975 151.108 194.849 149.434 195.954 147.493C197.126 145.451 197.36 143.208 196.657 141.099C198.163 139.994 199.536 138.789 200.674 137.45C204.222 133.4 205.762 128.479 205.26 122.855ZM179.049 134.538C180.488 133.132 182.296 132.261 184.204 132.596C183.668 133.534 183.233 134.471 182.832 135.408C181.693 134.772 180.388 134.471 179.049 134.538ZM192.406 147.861C192.439 146.489 192.138 145.183 191.535 144.045C192.506 143.643 193.443 143.174 194.347 142.672C194.682 144.58 193.845 146.422 192.406 147.861ZM189.728 141.869L185.007 137.149C187.384 130.822 193.276 124.06 202.683 124.227C202.984 135.442 193.745 140.296 189.728 141.869ZM198.398 128.512C198.799 128.914 199.034 129.483 199.034 130.052C199.034 130.621 198.799 131.19 198.398 131.592C197.996 131.994 197.427 132.228 196.858 132.228C196.289 132.228 195.72 132.027 195.318 131.592C194.916 131.157 194.682 130.621 194.682 130.052C194.682 129.483 194.916 128.914 195.318 128.512C195.72 128.11 196.289 127.876 196.858 127.876C197.427 127.876 197.996 128.11 198.398 128.512ZM179.551 142.438C178.011 143.978 177.944 147.058 177.944 147.66C177.944 148.397 178.547 148.999 179.283 148.999H179.317C180.02 148.999 182.965 148.899 184.472 147.392C185.409 146.455 185.61 145.484 185.61 144.848C185.61 143.944 185.242 143.074 184.539 142.371C182.865 140.664 180.756 141.199 179.551 142.438ZM182.597 145.484C182.262 145.819 181.526 146.053 180.756 146.154C180.89 145.384 181.124 144.647 181.426 144.346C181.66 144.112 181.861 143.978 182.095 143.978C182.262 143.978 182.463 144.078 182.664 144.279C182.865 144.48 182.965 144.681 182.965 144.848C182.932 145.049 182.765 145.317 182.597 145.484Z" fill="white"/>
</g>
<path d="M172.95 184.312V173.533H176.876C177.446 173.533 177.96 173.651 178.416 173.887C178.878 174.118 179.243 174.451 179.51 174.888C179.782 175.319 179.918 175.829 179.918 176.42C179.918 176.682 179.879 176.946 179.802 177.213C179.725 177.48 179.607 177.721 179.448 177.937C179.289 178.147 179.084 178.304 178.832 178.406C179.166 178.488 179.438 178.637 179.648 178.853C179.859 179.068 180.023 179.322 180.141 179.615C180.259 179.902 180.339 180.198 180.38 180.5C180.426 180.798 180.449 181.075 180.449 181.332C180.449 181.902 180.308 182.41 180.026 182.856C179.743 183.303 179.363 183.657 178.886 183.919C178.414 184.181 177.89 184.312 177.315 184.312H172.95ZM174.828 182.702H177.123C177.431 182.702 177.708 182.628 177.954 182.479C178.201 182.33 178.398 182.125 178.547 181.863C178.696 181.601 178.771 181.304 178.771 180.97C178.771 180.683 178.696 180.411 178.547 180.154C178.398 179.897 178.201 179.689 177.954 179.53C177.708 179.371 177.431 179.292 177.123 179.292H174.828V182.702ZM174.828 177.706H176.661C177.041 177.706 177.364 177.588 177.631 177.351C177.903 177.115 178.039 176.802 178.039 176.412C178.039 175.996 177.903 175.683 177.631 175.473C177.364 175.257 177.041 175.149 176.661 175.149H174.828V177.706ZM181.379 181.463V176.612H183.257V180.97C183.257 181.273 183.332 181.55 183.481 181.802C183.63 182.048 183.827 182.246 184.074 182.395C184.325 182.538 184.6 182.61 184.897 182.61C185.205 182.61 185.483 182.538 185.729 182.395C185.975 182.246 186.173 182.048 186.322 181.802C186.471 181.55 186.545 181.273 186.545 180.97V176.612H188.424L188.431 184.312H186.553L186.545 183.611C186.278 183.888 185.963 184.109 185.598 184.273C185.234 184.432 184.844 184.512 184.428 184.512C183.868 184.512 183.358 184.376 182.896 184.104C182.434 183.827 182.064 183.46 181.787 183.003C181.515 182.541 181.379 182.027 181.379 181.463ZM189.973 176.612H191.851V184.312H189.973V176.612ZM190.927 175.619C190.65 175.619 190.417 175.529 190.227 175.35C190.037 175.165 189.942 174.934 189.942 174.657C189.942 174.385 190.037 174.156 190.227 173.971C190.417 173.787 190.648 173.694 190.92 173.694C191.192 173.694 191.42 173.787 191.605 173.971C191.795 174.156 191.89 174.385 191.89 174.657C191.89 174.934 191.797 175.165 191.613 175.35C191.428 175.529 191.199 175.619 190.927 175.619ZM193.732 184.312V172.763H195.611V184.312H193.732ZM203.162 172.763H205.041V184.312H203.162V183.349C202.916 183.693 202.605 183.973 202.23 184.188C201.856 184.404 201.422 184.512 200.929 184.512C200.37 184.512 199.846 184.407 199.358 184.196C198.871 183.986 198.44 183.696 198.065 183.326C197.695 182.951 197.405 182.52 197.195 182.033C196.984 181.545 196.879 181.021 196.879 180.462C196.879 179.902 196.984 179.379 197.195 178.891C197.405 178.404 197.695 177.975 198.065 177.605C198.44 177.231 198.871 176.938 199.358 176.728C199.846 176.517 200.37 176.412 200.929 176.412C201.422 176.412 201.856 176.52 202.23 176.735C202.605 176.946 202.916 177.226 203.162 177.575V172.763ZM200.952 182.702C201.353 182.702 201.707 182.602 202.015 182.402C202.323 182.202 202.564 181.933 202.738 181.594C202.913 181.25 203 180.873 203 180.462C203 180.046 202.913 179.669 202.738 179.33C202.564 178.986 202.32 178.714 202.007 178.514C201.699 178.314 201.347 178.214 200.952 178.214C200.557 178.214 200.195 178.316 199.867 178.522C199.543 178.722 199.284 178.991 199.089 179.33C198.899 179.669 198.804 180.046 198.804 180.462C198.804 180.878 198.902 181.255 199.097 181.594C199.292 181.933 199.551 182.202 199.874 182.402C200.203 182.602 200.562 182.702 200.952 182.702Z" fill="#64748B"/>
<circle cx="327.975" cy="136.948" r="26.9478" fill="#FF6607"/>
<path fill-rule="evenodd" clip-rule="evenodd" d="M316.731 122.512C316.473 122.512 316.266 122.734 316.266 123.01V148.978H315.321C315.045 148.978 314.823 149.186 314.823 149.444V149.475C314.823 149.733 315.045 149.941 315.321 149.941H316.266V150.886C316.266 151.162 316.474 151.384 316.731 151.384H316.763C317.022 151.384 317.229 151.162 317.229 150.886V149.941H343.197C343.473 149.941 343.695 149.733 343.695 149.475V149.444C343.695 149.186 343.473 148.978 343.197 148.978H317.229V123.01C317.229 122.734 317.021 122.512 316.763 122.512H316.731ZM336.958 129.73C336.779 129.731 336.603 129.782 336.451 129.877C336.299 129.972 336.177 130.108 336.098 130.269L329.934 132.415C329.755 132.237 329.512 132.136 329.259 132.136C328.73 132.136 328.296 132.569 328.296 133.098C328.296 133.331 328.384 133.542 328.524 133.709L326.386 137.912C326.382 137.912 326.377 137.91 326.372 137.91C325.843 137.91 325.409 138.344 325.409 138.873C325.409 138.88 325.411 138.886 325.411 138.893L321.149 140.975C320.992 140.865 320.802 140.798 320.597 140.798C320.068 140.798 319.635 141.231 319.635 141.76C319.635 141.928 319.683 142.084 319.76 142.222L317.71 145.302V147.037L320.582 142.721C320.587 142.721 320.592 142.722 320.597 142.722C320.836 142.721 321.066 142.631 321.242 142.469C321.418 142.307 321.528 142.086 321.55 141.848L325.916 139.714C326.052 139.789 326.206 139.835 326.372 139.835C326.9 139.835 327.334 139.402 327.334 138.873C327.334 138.705 327.286 138.549 327.21 138.411L329.431 134.043C329.609 134.009 329.775 133.926 329.908 133.802C330.042 133.679 330.138 133.52 330.185 133.345L336.184 131.256C336.36 131.496 336.641 131.655 336.958 131.655C337.134 131.654 337.306 131.604 337.456 131.512C337.606 131.42 337.728 131.289 337.808 131.133L342.871 132.221C343.506 132.369 343.712 131.407 343.073 131.282L337.74 130.136C337.652 130.011 337.535 129.909 337.399 129.838C337.263 129.767 337.112 129.73 336.958 129.73ZM336.958 130.211C337.227 130.211 337.439 130.424 337.439 130.692C337.439 130.961 337.227 131.173 336.958 131.173C336.69 131.173 336.477 130.961 336.477 130.692C336.477 130.424 336.69 130.211 336.958 130.211ZM336.958 132.136L330.221 134.542L327.334 140.316L321.559 142.722L317.71 148.112V148.497H342.252V133.098L336.958 132.136ZM329.259 132.617C329.527 132.617 329.74 132.83 329.74 133.098C329.74 133.367 329.527 133.579 329.259 133.579C328.99 133.579 328.778 133.367 328.778 133.098C328.778 132.83 328.99 132.617 329.259 132.617ZM326.372 138.392C326.64 138.392 326.853 138.604 326.853 138.873C326.853 139.141 326.64 139.354 326.372 139.354C326.103 139.354 325.89 139.141 325.89 138.873C325.89 138.604 326.103 138.392 326.372 138.392ZM320.597 141.279C320.866 141.279 321.078 141.492 321.078 141.76C321.078 142.029 320.866 142.241 320.597 142.241C320.329 142.241 320.116 142.029 320.116 141.76C320.116 141.492 320.329 141.279 320.597 141.279Z" fill="white"/>
<path d="M312.515 184.512C311.919 184.512 311.347 184.419 310.798 184.235C310.254 184.045 309.776 183.775 309.366 183.426C308.955 183.072 308.66 182.649 308.48 182.156L310.244 181.509C310.315 181.714 310.462 181.902 310.682 182.071C310.903 182.241 311.173 182.377 311.491 182.479C311.809 182.582 312.15 182.633 312.515 182.633C312.89 182.633 313.239 182.577 313.562 182.464C313.89 182.346 314.155 182.184 314.355 181.979C314.555 181.768 314.655 181.524 314.655 181.247C314.655 180.965 314.55 180.734 314.34 180.554C314.129 180.37 313.86 180.223 313.531 180.115C313.203 180.008 312.864 179.926 312.515 179.869C311.75 179.751 311.065 179.569 310.459 179.322C309.853 179.076 309.374 178.735 309.019 178.298C308.67 177.862 308.496 177.298 308.496 176.605C308.496 175.953 308.683 175.383 309.058 174.895C309.433 174.408 309.925 174.028 310.536 173.756C311.147 173.484 311.807 173.348 312.515 173.348C313.105 173.348 313.675 173.44 314.224 173.625C314.773 173.81 315.253 174.079 315.664 174.433C316.08 174.788 316.377 175.214 316.557 175.711L314.786 176.35C314.714 176.145 314.568 175.958 314.347 175.788C314.127 175.619 313.857 175.486 313.539 175.388C313.221 175.285 312.879 175.234 312.515 175.234C312.15 175.229 311.804 175.288 311.475 175.411C311.152 175.529 310.888 175.691 310.682 175.896C310.477 176.102 310.374 176.338 310.374 176.605C310.374 176.948 310.469 177.208 310.659 177.382C310.854 177.557 311.114 177.685 311.437 177.767C311.76 177.844 312.12 177.916 312.515 177.983C313.233 178.096 313.898 178.286 314.509 178.553C315.12 178.819 315.61 179.176 315.98 179.623C316.349 180.064 316.534 180.606 316.534 181.247C316.534 181.899 316.349 182.471 315.98 182.964C315.61 183.452 315.12 183.832 314.509 184.104C313.898 184.376 313.233 184.512 312.515 184.512ZM322.777 181.994L324.47 182.91C324.116 183.393 323.672 183.78 323.138 184.073C322.605 184.366 322.022 184.512 321.391 184.512C320.682 184.512 320.036 184.33 319.45 183.965C318.87 183.601 318.406 183.113 318.057 182.502C317.713 181.886 317.541 181.206 317.541 180.462C317.541 179.897 317.641 179.371 317.841 178.884C318.041 178.391 318.316 177.96 318.665 177.59C319.019 177.215 319.43 176.923 319.897 176.712C320.364 176.502 320.862 176.397 321.391 176.397C322.022 176.397 322.605 176.543 323.138 176.836C323.672 177.128 324.116 177.521 324.47 178.014L322.777 178.922C322.597 178.717 322.384 178.558 322.138 178.445C321.896 178.332 321.647 178.275 321.391 178.275C321.021 178.275 320.687 178.378 320.39 178.583C320.092 178.783 319.856 179.05 319.681 179.384C319.507 179.713 319.42 180.072 319.42 180.462C319.42 180.847 319.507 181.206 319.681 181.54C319.856 181.868 320.092 182.133 320.39 182.333C320.687 182.533 321.021 182.633 321.391 182.633C321.658 182.633 321.912 182.577 322.153 182.464C322.394 182.346 322.602 182.189 322.777 181.994ZM331.417 176.612H333.296V184.312H331.417L331.333 183.357C331.122 183.701 330.843 183.981 330.494 184.196C330.15 184.407 329.742 184.512 329.269 184.512C328.7 184.512 328.166 184.404 327.668 184.188C327.17 183.973 326.731 183.675 326.351 183.295C325.977 182.915 325.681 182.477 325.466 181.979C325.255 181.481 325.15 180.947 325.15 180.377C325.15 179.828 325.25 179.312 325.45 178.83C325.656 178.347 325.941 177.924 326.305 177.559C326.669 177.195 327.09 176.91 327.568 176.705C328.045 176.499 328.558 176.397 329.108 176.397C329.616 176.397 330.07 176.51 330.47 176.735C330.876 176.961 331.22 177.249 331.502 177.598L331.417 176.612ZM329.223 182.702C329.623 182.702 329.978 182.602 330.286 182.402C330.594 182.202 330.835 181.933 331.009 181.594C331.184 181.25 331.271 180.873 331.271 180.462C331.271 180.046 331.184 179.669 331.009 179.33C330.835 178.986 330.591 178.714 330.278 178.514C329.97 178.314 329.618 178.214 329.223 178.214C328.828 178.214 328.466 178.316 328.137 178.522C327.814 178.722 327.555 178.991 327.36 179.33C327.17 179.669 327.075 180.046 327.075 180.462C327.075 180.878 327.173 181.255 327.368 181.594C327.563 181.933 327.822 182.202 328.145 182.402C328.474 182.602 328.833 182.702 329.223 182.702ZM334.875 184.312V172.763H336.754V184.312H334.875ZM341.872 184.512C341.164 184.512 340.517 184.33 339.932 183.965C339.352 183.601 338.887 183.111 338.538 182.495C338.194 181.879 338.023 181.199 338.023 180.454C338.023 179.895 338.123 179.371 338.323 178.884C338.523 178.391 338.798 177.96 339.147 177.59C339.501 177.215 339.911 176.923 340.379 176.712C340.846 176.502 341.344 176.397 341.872 176.397C342.473 176.397 343.022 176.525 343.52 176.782C344.023 177.033 344.449 177.38 344.798 177.821C345.147 178.263 345.401 178.766 345.56 179.33C345.719 179.895 345.755 180.485 345.668 181.101H340.04C340.112 181.388 340.23 181.648 340.394 181.879C340.558 182.104 340.766 182.287 341.018 182.425C341.269 182.559 341.554 182.628 341.872 182.633C342.201 182.638 342.498 182.561 342.765 182.402C343.037 182.238 343.263 182.017 343.443 181.74L345.36 182.187C345.047 182.869 344.58 183.429 343.959 183.865C343.338 184.296 342.642 184.512 341.872 184.512ZM339.978 179.692H343.766C343.71 179.384 343.589 179.107 343.404 178.86C343.225 178.609 343.001 178.409 342.735 178.26C342.468 178.111 342.18 178.037 341.872 178.037C341.564 178.037 341.279 178.111 341.018 178.26C340.756 178.404 340.533 178.601 340.348 178.853C340.168 179.099 340.045 179.379 339.978 179.692Z" fill="#64748B"/>
<circle cx="465.988" cy="136.948" r="26.9478" fill="#08203C"/>
<g clip-path="url(#clip1_336_2307)">
<path d="M465.989 121.549L465.257 121.896L451.783 127.555L450.59 128.055V129.249C450.59 135.639 453.169 141.26 456.249 145.379C457.789 147.419 459.444 149.113 461.061 150.306C462.678 151.5 464.256 152.347 465.989 152.347C467.759 152.347 469.299 151.5 470.916 150.306C472.533 149.113 474.188 147.419 475.728 145.379C478.808 141.26 481.387 135.639 481.387 129.249V128.055L480.194 127.555L466.72 121.896L465.989 121.549ZM465.989 125.745V148.497C465.835 148.497 464.718 148.228 463.448 147.304C462.177 146.38 460.715 144.878 459.367 143.108C456.633 139.431 455.004 135.05 454.671 130.481L465.989 125.784V125.745Z" fill="white"/>
</g>
<path d="M445.032 184.512C444.283 184.512 443.584 184.366 442.938 184.073C442.296 183.78 441.737 183.377 441.259 182.864C440.782 182.346 440.407 181.75 440.135 181.078C439.868 180.4 439.735 179.677 439.735 178.907C439.735 178.096 439.878 177.351 440.166 176.674C440.458 175.996 440.856 175.409 441.359 174.911C441.862 174.413 442.432 174.028 443.069 173.756C443.71 173.484 444.377 173.348 445.07 173.348C445.845 173.348 446.597 173.53 447.326 173.894C448.06 174.254 448.707 174.811 449.267 175.565L447.588 176.466C447.244 176.045 446.849 175.732 446.402 175.527C445.961 175.316 445.509 175.211 445.047 175.211C444.596 175.211 444.162 175.303 443.746 175.488C443.335 175.673 442.968 175.935 442.645 176.273C442.327 176.607 442.075 177.002 441.891 177.459C441.706 177.911 441.613 178.406 441.613 178.945C441.613 179.453 441.703 179.933 441.883 180.385C442.063 180.832 442.309 181.224 442.622 181.563C442.94 181.897 443.307 182.158 443.723 182.348C444.139 182.538 444.585 182.633 445.063 182.633C445.381 182.633 445.692 182.584 445.994 182.487C446.302 182.384 446.59 182.238 446.857 182.048C447.129 181.858 447.37 181.627 447.58 181.355C447.796 181.083 447.976 180.775 448.119 180.431H446.156V178.791H450.329C450.35 179.577 450.226 180.313 449.96 181.001C449.693 181.689 449.315 182.297 448.828 182.826C448.34 183.354 447.773 183.768 447.126 184.065C446.479 184.363 445.781 184.512 445.032 184.512ZM455.025 184.512C454.316 184.512 453.67 184.33 453.084 183.965C452.504 183.601 452.04 183.113 451.691 182.502C451.347 181.886 451.175 181.206 451.175 180.462C451.175 179.897 451.275 179.371 451.475 178.884C451.675 178.391 451.95 177.96 452.299 177.59C452.653 177.215 453.064 176.923 453.531 176.712C453.998 176.502 454.496 176.397 455.025 176.397C455.733 176.397 456.377 176.579 456.957 176.943C457.542 177.308 458.007 177.798 458.351 178.414C458.7 179.03 458.874 179.713 458.874 180.462C458.874 181.021 458.774 181.545 458.574 182.033C458.374 182.52 458.097 182.951 457.743 183.326C457.393 183.696 456.985 183.986 456.518 184.196C456.056 184.407 455.558 184.512 455.025 184.512ZM455.025 182.633C455.399 182.633 455.736 182.533 456.033 182.333C456.331 182.133 456.565 181.868 456.734 181.54C456.908 181.211 456.996 180.852 456.996 180.462C456.996 180.062 456.906 179.697 456.726 179.369C456.552 179.035 456.313 178.771 456.01 178.576C455.712 178.375 455.384 178.275 455.025 178.275C454.655 178.275 454.321 178.375 454.024 178.576C453.726 178.776 453.49 179.043 453.315 179.376C453.141 179.71 453.054 180.072 453.054 180.462C453.054 180.867 453.143 181.234 453.323 181.563C453.503 181.891 453.741 182.153 454.039 182.348C454.342 182.538 454.67 182.633 455.025 182.633ZM464.478 184.312H462.053L459.25 176.605H461.252L463.269 182.148L465.279 176.605H467.281L464.478 184.312ZM471.506 184.512C470.798 184.512 470.151 184.33 469.566 183.965C468.986 183.601 468.521 183.111 468.172 182.495C467.828 181.879 467.656 181.199 467.656 180.454C467.656 179.895 467.757 179.371 467.957 178.884C468.157 178.391 468.431 177.96 468.781 177.59C469.135 177.215 469.545 176.923 470.012 176.712C470.48 176.502 470.977 176.397 471.506 176.397C472.107 176.397 472.656 176.525 473.154 176.782C473.657 177.033 474.083 177.38 474.432 177.821C474.781 178.263 475.035 178.766 475.194 179.33C475.353 179.895 475.389 180.485 475.302 181.101H469.674C469.746 181.388 469.864 181.648 470.028 181.879C470.192 182.104 470.4 182.287 470.651 182.425C470.903 182.559 471.188 182.628 471.506 182.633C471.835 182.638 472.132 182.561 472.399 182.402C472.671 182.238 472.897 182.017 473.077 181.74L474.994 182.187C474.681 182.869 474.214 183.429 473.593 183.865C472.972 184.296 472.276 184.512 471.506 184.512ZM469.612 179.692H473.4C473.344 179.384 473.223 179.107 473.038 178.86C472.859 178.609 472.635 178.409 472.368 178.26C472.102 178.111 471.814 178.037 471.506 178.037C471.198 178.037 470.913 178.111 470.651 178.26C470.39 178.404 470.166 178.601 469.982 178.853C469.802 179.099 469.679 179.379 469.612 179.692ZM476.562 184.312L476.555 176.612H478.433L478.441 177.298C478.703 177.02 479.016 176.802 479.38 176.643C479.745 176.479 480.137 176.397 480.558 176.397C480.841 176.397 481.123 176.438 481.405 176.52L480.666 178.414C480.471 178.337 480.276 178.298 480.081 178.298C479.778 178.298 479.501 178.373 479.249 178.522C479.003 178.665 478.805 178.863 478.657 179.115C478.513 179.361 478.441 179.636 478.441 179.938V184.312H476.562ZM489.352 179.446V184.312H487.473V179.938C487.473 179.636 487.399 179.361 487.25 179.115C487.101 178.863 486.901 178.665 486.649 178.522C486.403 178.373 486.128 178.298 485.825 178.298C485.523 178.298 485.245 178.373 484.994 178.522C484.747 178.665 484.55 178.863 484.401 179.115C484.257 179.361 484.185 179.636 484.185 179.938V184.312H482.307L482.299 176.612H484.178L484.185 177.298C484.447 177.02 484.76 176.802 485.125 176.643C485.489 176.479 485.882 176.397 486.303 176.397C486.862 176.397 487.373 176.535 487.835 176.812C488.297 177.084 488.664 177.451 488.936 177.913C489.213 178.37 489.352 178.881 489.352 179.446Z" fill="#64748B"/>
<circle cx="604.002" cy="136.948" r="26.9478" fill="#647589"/>
<g clip-path="url(#clip2_336_2307)">
<path d="M614.108 137.686L617.082 136.2C617.196 136.142 617.298 136.063 617.381 135.966C617.465 135.869 617.528 135.757 617.567 135.635C617.607 135.514 617.621 135.385 617.611 135.258C617.6 135.131 617.564 135.007 617.505 134.893L614.546 129.227C614.429 129.004 614.229 128.835 613.989 128.757C613.749 128.68 613.488 128.699 613.263 128.812L610.259 130.314L614.108 137.686ZM614.108 137.686L612.665 139.938L608.238 144.365C608.12 144.483 607.974 144.568 607.814 144.612C607.654 144.656 607.485 144.659 607.324 144.618L600.352 142.875C600.221 142.842 600.098 142.783 599.992 142.7L593.897 137.557M593.897 137.557L590.924 136.071C590.81 136.014 590.708 135.934 590.624 135.837C590.541 135.74 590.478 135.628 590.439 135.506C590.399 135.385 590.385 135.256 590.395 135.129C590.406 135.002 590.442 134.878 590.501 134.764L593.46 129.098C593.577 128.875 593.776 128.706 594.017 128.628C594.257 128.551 594.518 128.57 594.743 128.683L597.747 130.185L593.897 137.557Z" stroke="white" stroke-width="2.88727" stroke-linecap="round" stroke-linejoin="round"/>
<path d="M612.663 139.938L607.369 136.088L605.83 137.243C605.163 137.743 604.353 138.013 603.52 138.013C602.687 138.013 601.876 137.743 601.21 137.243L600.558 136.754C600.448 136.671 600.356 136.566 600.29 136.445C600.224 136.324 600.185 136.19 600.175 136.052C600.165 135.915 600.185 135.777 600.234 135.648C600.282 135.518 600.357 135.401 600.455 135.304L605.163 130.596C605.252 130.506 605.358 130.435 605.475 130.387C605.592 130.339 605.717 130.314 605.843 130.314H610.257" stroke="white" stroke-width="2.88727" stroke-linecap="round" stroke-linejoin="round"/>
<path d="M597.815 130.184L603.508 128.384C603.729 128.32 603.965 128.337 604.174 128.431L608.333 130.313M601.596 148.118L597.97 147.211C597.823 147.175 597.687 147.104 597.572 147.004L594.859 144.646" stroke="white" stroke-width="2.88727" stroke-linecap="round" stroke-linejoin="round"/>
</g>
<path d="M591.258 184.312V173.533H598.018V175.411H593.136V177.598H597.009V179.476H593.136V182.433H598.018V184.312H591.258ZM598.965 184.312L601.783 180.447L598.988 176.605H601.305L602.938 178.845L604.578 176.605H606.895L604.1 180.447L606.918 184.312H604.601L602.938 182.033L601.282 184.312H598.965ZM608.115 176.612H609.994V184.312H608.115V176.612ZM609.07 175.619C608.793 175.619 608.559 175.529 608.369 175.35C608.179 175.165 608.084 174.934 608.084 174.657C608.084 174.385 608.179 174.156 608.369 173.971C608.559 173.787 608.79 173.694 609.062 173.694C609.334 173.694 609.562 173.787 609.747 173.971C609.937 174.156 610.032 174.385 610.032 174.657C610.032 174.934 609.94 175.165 609.755 175.35C609.57 175.529 609.342 175.619 609.07 175.619ZM615.971 178.491H614.478V184.312H612.599V178.491H611.459V176.612H612.599V174.195H614.478V176.612H615.971V178.491Z" fill="#64748B"/>
<defs>
<clipPath id="clip0_336_2307">
<rect width="30.7975" height="30.7975" fill="white" transform="translate(174.563 121.549)"/>
</clipPath>
<clipPath id="clip1_336_2307">
<rect width="30.7975" height="30.7975" fill="white" transform="translate(450.589 121.549)"/>
</clipPath>
<clipPath id="clip2_336_2307">
<rect width="30.7975" height="30.7975" fill="white" transform="translate(588.603 121.549)"/>
</clipPath>
</defs>
</svg>
