<svg width="592" height="277" viewBox="0 0 592 277" fill="none" xmlns="http://www.w3.org/2000/svg">
<rect width="592" height="277" fill="#F8F2F1"/>
<circle cx="296" cy="139" r="103.544" stroke="#F35418" stroke-width="0.912281"/>
<rect x="269" y="8" width="53.8956" height="53.8956" rx="26.9478" fill="#FF6607"/>
<path fill-rule="evenodd" clip-rule="evenodd" d="M281.871 20.5117C281.613 20.5117 281.406 20.734 281.406 21.0098V46.9783H280.46C280.185 46.9783 279.962 47.1857 279.962 47.4437V47.4754C279.962 47.7333 280.185 47.9408 280.46 47.9408H281.406V48.8863C281.406 49.1621 281.613 49.3844 281.871 49.3844H281.903C282.162 49.3844 282.368 49.1621 282.368 48.8863V47.9408H308.337C308.613 47.9408 308.835 47.7333 308.835 47.4754V47.4437C308.835 47.1857 308.613 46.9783 308.337 46.9783H282.368V21.0098C282.368 20.734 282.161 20.5117 281.903 20.5117H281.871ZM302.098 27.7299C301.919 27.7307 301.743 27.7817 301.591 27.877C301.439 27.9723 301.317 28.1082 301.238 28.2693L295.074 30.4155C294.895 30.2368 294.652 30.1363 294.399 30.1359C293.87 30.1359 293.436 30.5695 293.436 31.0984C293.436 31.3313 293.524 31.542 293.664 31.7095L291.526 35.9124C291.522 35.9124 291.517 35.9105 291.511 35.9105C290.983 35.9105 290.549 36.344 290.549 36.8729C290.549 36.8796 290.551 36.8859 290.551 36.8926L286.288 38.9753C286.132 38.8651 285.942 38.7977 285.737 38.7977C285.208 38.7977 284.775 39.2313 284.775 39.7602C284.775 39.9286 284.823 40.0845 284.9 40.2221L282.85 43.3019V45.0366L285.722 40.7207C285.727 40.7207 285.732 40.7226 285.737 40.7226C285.976 40.7211 286.206 40.6307 286.382 40.469C286.558 40.3073 286.668 40.0858 286.69 39.8477L291.056 37.7141C291.192 37.7886 291.346 37.8353 291.511 37.8353C292.04 37.8353 292.474 37.4017 292.474 36.8729C292.474 36.7054 292.426 36.549 292.35 36.4114L294.571 32.043C294.749 32.0095 294.915 31.9261 295.048 31.8026C295.182 31.6791 295.277 31.5204 295.325 31.3447L301.324 29.2563C301.499 29.4959 301.781 29.6547 302.098 29.6547C302.274 29.6537 302.446 29.6045 302.596 29.5126C302.746 29.4206 302.867 29.2894 302.948 29.1331L308.011 30.2206C308.645 30.3688 308.852 29.4074 308.213 29.2818L302.88 28.1365C302.792 28.0112 302.675 27.909 302.538 27.8382C302.402 27.7675 302.251 27.7303 302.098 27.7299ZM302.098 28.2111C302.367 28.2111 302.579 28.4238 302.579 28.6923C302.579 28.9608 302.367 29.1735 302.098 29.1735C301.83 29.1735 301.617 28.9608 301.617 28.6923C301.617 28.4238 301.83 28.2111 302.098 28.2111ZM302.098 30.1359L295.361 32.542L292.474 38.3165L286.699 40.7226L282.85 46.1121V46.4971H307.391V31.0984L302.098 30.1359ZM294.399 30.6172C294.667 30.6172 294.88 30.8298 294.88 31.0984C294.88 31.3669 294.667 31.5796 294.399 31.5796C294.13 31.5796 293.918 31.3669 293.918 31.0984C293.918 30.8298 294.13 30.6172 294.399 30.6172ZM291.511 36.3917C291.78 36.3917 291.993 36.6044 291.993 36.8729C291.993 37.1414 291.78 37.3541 291.511 37.3541C291.243 37.3541 291.03 37.1414 291.03 36.8729C291.03 36.6044 291.243 36.3917 291.511 36.3917ZM285.737 39.2789C286.005 39.2789 286.218 39.4916 286.218 39.7602C286.218 40.0287 286.005 40.2414 285.737 40.2414C285.468 40.2414 285.256 40.0287 285.256 39.7602C285.256 39.4916 285.468 39.2789 285.737 39.2789Z" fill="white"/>
<rect x="373" y="112" width="53.8956" height="53.8956" rx="26.9478" fill="#FF6607"/>
<path fill-rule="evenodd" clip-rule="evenodd" d="M385.871 124.512C385.613 124.512 385.406 124.734 385.406 125.01V150.978H384.46C384.185 150.978 383.962 151.186 383.962 151.444V151.475C383.962 151.733 384.185 151.941 384.46 151.941H385.406V152.886C385.406 153.162 385.613 153.384 385.871 153.384H385.903C386.162 153.384 386.368 153.162 386.368 152.886V151.941H412.337C412.613 151.941 412.835 151.733 412.835 151.475V151.444C412.835 151.186 412.613 150.978 412.337 150.978H386.368V125.01C386.368 124.734 386.161 124.512 385.903 124.512H385.871ZM406.098 131.73C405.919 131.731 405.743 131.782 405.591 131.877C405.439 131.972 405.317 132.108 405.238 132.269L399.074 134.416C398.895 134.237 398.652 134.136 398.399 134.136C397.87 134.136 397.436 134.57 397.436 135.098C397.436 135.331 397.524 135.542 397.664 135.71L395.526 139.912C395.522 139.912 395.517 139.91 395.511 139.91C394.983 139.91 394.549 140.344 394.549 140.873C394.549 140.88 394.551 140.886 394.551 140.893L390.288 142.975C390.132 142.865 389.942 142.798 389.737 142.798C389.208 142.798 388.775 143.231 388.775 143.76C388.775 143.929 388.823 144.084 388.9 144.222L386.85 147.302V149.037L389.722 144.721C389.727 144.721 389.732 144.723 389.737 144.723C389.976 144.721 390.206 144.631 390.382 144.469C390.558 144.307 390.668 144.086 390.69 143.848L395.056 141.714C395.192 141.789 395.346 141.835 395.511 141.835C396.04 141.835 396.474 141.402 396.474 140.873C396.474 140.705 396.426 140.549 396.35 140.411L398.571 136.043C398.749 136.009 398.915 135.926 399.048 135.803C399.182 135.679 399.277 135.52 399.325 135.345L405.324 133.256C405.499 133.496 405.781 133.655 406.098 133.655C406.274 133.654 406.446 133.605 406.596 133.513C406.746 133.421 406.867 133.289 406.948 133.133L412.011 134.221C412.645 134.369 412.852 133.407 412.213 133.282L406.88 132.137C406.792 132.011 406.675 131.909 406.538 131.838C406.402 131.767 406.251 131.73 406.098 131.73ZM406.098 132.211C406.367 132.211 406.579 132.424 406.579 132.692C406.579 132.961 406.367 133.174 406.098 133.174C405.83 133.174 405.617 132.961 405.617 132.692C405.617 132.424 405.83 132.211 406.098 132.211ZM406.098 134.136L399.361 136.542L396.474 142.317L390.699 144.723L386.85 150.112V150.497H411.391V135.098L406.098 134.136ZM398.399 134.617C398.667 134.617 398.88 134.83 398.88 135.098C398.88 135.367 398.667 135.58 398.399 135.58C398.13 135.58 397.918 135.367 397.918 135.098C397.918 134.83 398.13 134.617 398.399 134.617ZM395.511 140.392C395.78 140.392 395.993 140.604 395.993 140.873C395.993 141.141 395.78 141.354 395.511 141.354C395.243 141.354 395.03 141.141 395.03 140.873C395.03 140.604 395.243 140.392 395.511 140.392ZM389.737 143.279C390.005 143.279 390.218 143.492 390.218 143.76C390.218 144.029 390.005 144.241 389.737 144.241C389.468 144.241 389.256 144.029 389.256 143.76C389.256 143.492 389.468 143.279 389.737 143.279Z" fill="white"/>
<rect x="269" y="216" width="53.8956" height="53.8956" rx="26.9478" fill="#FF6607"/>
<path fill-rule="evenodd" clip-rule="evenodd" d="M281.871 228.512C281.613 228.512 281.406 228.734 281.406 229.01V254.978H280.46C280.185 254.978 279.962 255.186 279.962 255.444V255.475C279.962 255.733 280.185 255.941 280.46 255.941H281.406V256.886C281.406 257.162 281.613 257.384 281.871 257.384H281.903C282.162 257.384 282.368 257.162 282.368 256.886V255.941H308.337C308.613 255.941 308.835 255.733 308.835 255.475V255.444C308.835 255.186 308.613 254.978 308.337 254.978H282.368V229.01C282.368 228.734 282.161 228.512 281.903 228.512H281.871ZM302.098 235.73C301.919 235.731 301.743 235.782 301.591 235.877C301.439 235.972 301.317 236.108 301.238 236.269L295.074 238.416C294.895 238.237 294.652 238.136 294.399 238.136C293.87 238.136 293.436 238.57 293.436 239.098C293.436 239.331 293.524 239.542 293.664 239.71L291.526 243.912C291.522 243.912 291.517 243.91 291.511 243.91C290.983 243.91 290.549 244.344 290.549 244.873C290.549 244.88 290.551 244.886 290.551 244.893L286.288 246.975C286.132 246.865 285.942 246.798 285.737 246.798C285.208 246.798 284.775 247.231 284.775 247.76C284.775 247.929 284.823 248.084 284.9 248.222L282.85 251.302V253.037L285.722 248.721C285.727 248.721 285.732 248.723 285.737 248.723C285.976 248.721 286.206 248.631 286.382 248.469C286.558 248.307 286.668 248.086 286.69 247.848L291.056 245.714C291.192 245.789 291.346 245.835 291.511 245.835C292.04 245.835 292.474 245.402 292.474 244.873C292.474 244.705 292.426 244.549 292.35 244.411L294.571 240.043C294.749 240.009 294.915 239.926 295.048 239.803C295.182 239.679 295.277 239.52 295.325 239.345L301.324 237.256C301.499 237.496 301.781 237.655 302.098 237.655C302.274 237.654 302.446 237.605 302.596 237.513C302.746 237.421 302.867 237.289 302.948 237.133L308.011 238.221C308.645 238.369 308.852 237.407 308.213 237.282L302.88 236.137C302.792 236.011 302.675 235.909 302.538 235.838C302.402 235.767 302.251 235.73 302.098 235.73ZM302.098 236.211C302.367 236.211 302.579 236.424 302.579 236.692C302.579 236.961 302.367 237.174 302.098 237.174C301.83 237.174 301.617 236.961 301.617 236.692C301.617 236.424 301.83 236.211 302.098 236.211ZM302.098 238.136L295.361 240.542L292.474 246.317L286.699 248.723L282.85 254.112V254.497H307.391V239.098L302.098 238.136ZM294.399 238.617C294.667 238.617 294.88 238.83 294.88 239.098C294.88 239.367 294.667 239.58 294.399 239.58C294.13 239.58 293.918 239.367 293.918 239.098C293.918 238.83 294.13 238.617 294.399 238.617ZM291.511 244.392C291.78 244.392 291.993 244.604 291.993 244.873C291.993 245.141 291.78 245.354 291.511 245.354C291.243 245.354 291.03 245.141 291.03 244.873C291.03 244.604 291.243 244.392 291.511 244.392ZM285.737 247.279C286.005 247.279 286.218 247.492 286.218 247.76C286.218 248.029 286.005 248.241 285.737 248.241C285.468 248.241 285.256 248.029 285.256 247.76C285.256 247.492 285.468 247.279 285.737 247.279Z" fill="white"/>
<rect x="165" y="112" width="53.8956" height="53.8956" rx="26.9478" fill="#FF6607"/>
<path fill-rule="evenodd" clip-rule="evenodd" d="M177.871 124.512C177.613 124.512 177.406 124.734 177.406 125.01V150.978H176.46C176.185 150.978 175.962 151.186 175.962 151.444V151.475C175.962 151.733 176.185 151.941 176.46 151.941H177.406V152.886C177.406 153.162 177.613 153.384 177.871 153.384H177.903C178.162 153.384 178.368 153.162 178.368 152.886V151.941H204.337C204.613 151.941 204.835 151.733 204.835 151.475V151.444C204.835 151.186 204.613 150.978 204.337 150.978H178.368V125.01C178.368 124.734 178.161 124.512 177.903 124.512H177.871ZM198.098 131.73C197.919 131.731 197.743 131.782 197.591 131.877C197.439 131.972 197.317 132.108 197.238 132.269L191.074 134.416C190.895 134.237 190.652 134.136 190.399 134.136C189.87 134.136 189.436 134.57 189.436 135.098C189.436 135.331 189.524 135.542 189.664 135.71L187.526 139.912C187.522 139.912 187.517 139.91 187.511 139.91C186.983 139.91 186.549 140.344 186.549 140.873C186.549 140.88 186.551 140.886 186.551 140.893L182.288 142.975C182.132 142.865 181.942 142.798 181.737 142.798C181.208 142.798 180.775 143.231 180.775 143.76C180.775 143.929 180.823 144.084 180.9 144.222L178.85 147.302V149.037L181.722 144.721C181.727 144.721 181.732 144.723 181.737 144.723C181.976 144.721 182.206 144.631 182.382 144.469C182.558 144.307 182.668 144.086 182.69 143.848L187.056 141.714C187.192 141.789 187.346 141.835 187.511 141.835C188.04 141.835 188.474 141.402 188.474 140.873C188.474 140.705 188.426 140.549 188.35 140.411L190.571 136.043C190.749 136.009 190.915 135.926 191.048 135.803C191.182 135.679 191.277 135.52 191.325 135.345L197.324 133.256C197.499 133.496 197.781 133.655 198.098 133.655C198.274 133.654 198.446 133.605 198.596 133.513C198.746 133.421 198.867 133.289 198.948 133.133L204.011 134.221C204.645 134.369 204.852 133.407 204.213 133.282L198.88 132.137C198.792 132.011 198.675 131.909 198.538 131.838C198.402 131.767 198.251 131.73 198.098 131.73ZM198.098 132.211C198.367 132.211 198.579 132.424 198.579 132.692C198.579 132.961 198.367 133.174 198.098 133.174C197.83 133.174 197.617 132.961 197.617 132.692C197.617 132.424 197.83 132.211 198.098 132.211ZM198.098 134.136L191.361 136.542L188.474 142.317L182.699 144.723L178.85 150.112V150.497H203.391V135.098L198.098 134.136ZM190.399 134.617C190.667 134.617 190.88 134.83 190.88 135.098C190.88 135.367 190.667 135.58 190.399 135.58C190.13 135.58 189.918 135.367 189.918 135.098C189.918 134.83 190.13 134.617 190.399 134.617ZM187.511 140.392C187.78 140.392 187.993 140.604 187.993 140.873C187.993 141.141 187.78 141.354 187.511 141.354C187.243 141.354 187.03 141.141 187.03 140.873C187.03 140.604 187.243 140.392 187.511 140.392ZM181.737 143.279C182.005 143.279 182.218 143.492 182.218 143.76C182.218 144.029 182.005 144.241 181.737 144.241C181.468 144.241 181.256 144.029 181.256 143.76C181.256 143.492 181.468 143.279 181.737 143.279Z" fill="white"/>
<path d="M376 67V73H370" stroke="#F35418"/>
<path d="M216 67V73H222" stroke="#F35418"/>
<path d="M382 205L376 205L376 199" stroke="#F35418"/>
<path d="M210 205L216 205L216 199" stroke="#F35418"/>
</svg>
