<svg width="40" height="40" viewBox="0 0 40 40" fill="none" xmlns="http://www.w3.org/2000/svg">
<path d="M35.2 10.56C34.96 10.08 34.64 9.84001 34.24 9.76001C34.08 9.76001 33.84 9.76001 33.6 9.92001C32.4 10.8 31.68 15.68 31.44 17.2C28.88 17.44 24.96 21.68 23.84 23.36C23.28 24.16 22.88 26 22.56 28.8H21.6C21.36 28.8 21.2 28.96 21.2 29.2V38.64C21.2 38.88 21.36 39.04 21.6 39.04H29.44C29.68 39.04 29.84 38.88 29.84 38.64V29.36C29.84 29.12 29.68 28.96 29.44 28.96H28.72C28.96 28.08 29.2 27.6 29.36 27.44C29.76 26.88 30.56 26.32 31.44 25.68C32.56 24.88 33.68 24.08 34.16 23.2C35.2 20.72 36.48 13.04 35.2 10.56ZM29.04 32.96H22V29.68H29.04V32.96Z" fill="#666666"/>
<path d="M25.12 31.36C25.12 32 24.56 32.48 24 32.48C23.44 32.48 22.88 32 22.88 31.36C22.88 30.72 23.44 30.24 24 30.24C24.56 30.24 25.12 30.72 25.12 31.36ZM17.2 31.36C17.2 32 16.64 32.48 16.08 32.48C15.52 32.48 14.96 32 14.96 31.36C14.96 30.72 15.52 30.24 16.08 30.24C16.64 30.24 17.2 30.72 17.2 31.36Z" fill="#666666"/>
<path d="M18.4 28.9601H17.44C17.12 26.16 16.72 24.32 16.16 23.52C15.04 21.76 11.04 17.6 8.56004 17.3601C8.40004 15.84 7.68004 10.96 6.40004 10.08C6.16004 9.84005 5.92004 9.84005 5.76004 9.92005C5.36004 10 5.04004 10.24 4.80004 10.72C3.52004 13.12 4.80004 20.88 5.92004 23.2801C6.32004 24.16 7.52004 24.9601 8.64004 25.76C9.44004 26.32 10.32 26.9601 10.72 27.5201C10.88 27.76 11.04 28.16 11.36 29.04H10.64C10.4 29.04 10.24 29.2 10.24 29.44V38.88C10.24 39.12 10.4 39.28 10.64 39.28H18.4C18.64 39.28 18.8 39.12 18.8 38.88V29.3601C18.8 29.1201 18.64 28.9601 18.4 28.9601ZM18 32.96H10.96V29.68H18V32.96ZM27.84 11.6L25.36 8.24005C25.28 8.16005 25.2 8.08005 25.04 8.08005H14.24C14.08 8.08005 14 8.16005 13.92 8.24005L11.44 11.6C11.36 11.76 11.36 11.92 11.44 12.08L19.28 22.88C19.28 22.88 19.28 22.9601 19.36 22.9601C19.36 22.9601 19.36 22.9601 19.44 22.9601C19.52 23.0401 19.6 23.04 19.68 23.04C19.76 23.04 19.84 23.0401 19.92 22.9601C19.92 22.9601 19.92 22.9601 20 22.9601C20.08 22.9601 20.08 22.96 20.08 22.88L27.92 12.08C27.92 12 27.92 11.76 27.84 11.6ZM12.56 12.24H16.08L18.56 20.48L12.56 12.24ZM16.96 11.44L17.76 8.80005H21.6L22.4 11.44H16.96ZM20.72 20.48L23.2 12.24H26.72L20.72 20.48ZM19.68 3.28005C19.92 3.28005 20.08 3.12005 20.08 2.88005V1.20005C20.08 0.960049 19.92 0.800049 19.68 0.800049C19.44 0.800049 19.28 0.960049 19.28 1.20005V2.88005C19.28 3.12005 19.44 3.28005 19.68 3.28005ZM28 6.80005C28.08 6.80005 28.24 6.80005 28.32 6.72005L29.52 5.52005C29.68 5.36005 29.68 5.12005 29.52 4.96005C29.36 4.80005 29.12 4.80005 28.96 4.96005L27.76 6.16005C27.6 6.32005 27.6 6.56005 27.76 6.72005C27.76 6.72005 27.92 6.80005 28 6.80005ZM11.04 6.64005C11.12 6.72005 11.2 6.72005 11.36 6.72005C11.44 6.72005 11.6 6.72005 11.68 6.64005C11.84 6.48005 11.84 6.24005 11.68 6.08005L10.4 4.88005C10.24 4.72005 10 4.72005 9.84004 4.88005C9.68004 5.04005 9.68004 5.28005 9.84004 5.44005L11.04 6.64005ZM14.8 4.00005C14.88 4.16005 15.04 4.24005 15.2 4.24005C15.28 4.24005 15.28 4.24005 15.36 4.24005C15.6 4.16005 15.68 3.92005 15.6 3.68005L14.96 2.08005C14.88 1.84005 14.64 1.76005 14.4 1.84005C14.16 1.92005 14.08 2.16005 14.16 2.40005L14.8 4.00005ZM24 4.16005C24.08 4.16005 24.08 4.16005 24.16 4.16005C24.32 4.16005 24.48 4.08005 24.56 3.92005L25.2 2.32005C25.28 2.08005 25.2 1.92005 24.96 1.76005C24.72 1.68005 24.56 1.76005 24.4 2.00005L23.76 3.60005C23.76 3.84005 23.84 4.08005 24 4.16005Z" fill="#666666"/>
</svg>
