<svg width="40" height="40" viewBox="0 0 40 40" fill="none" xmlns="http://www.w3.org/2000/svg">
<rect x="0.357143" y="0.357143" width="39.2857" height="39.2857" rx="19.6429" stroke="white" stroke-opacity="0.1" stroke-width="0.714286"/>
<g clip-path="url(#clip0_299_544)">
<path d="M19.9998 12.8574C21.9405 12.8574 22.1826 12.8646 22.9441 12.9003C23.7048 12.936 24.2226 13.0553 24.6784 13.2324C25.1498 13.4139 25.5469 13.6596 25.9441 14.056C26.3073 14.4131 26.5883 14.845 26.7676 15.3217C26.9441 15.7767 27.0641 16.2953 27.0998 17.056C27.1334 17.8174 27.1426 18.0596 27.1426 20.0003C27.1426 21.941 27.1355 22.1831 27.0998 22.9446C27.0641 23.7053 26.9441 24.2231 26.7676 24.6789C26.5888 25.1558 26.3077 25.5879 25.9441 25.9446C25.5869 26.3077 25.155 26.5887 24.6784 26.7681C24.2234 26.9446 23.7048 27.0646 22.9441 27.1003C22.1826 27.1339 21.9405 27.1431 19.9998 27.1431C18.0591 27.1431 17.8169 27.136 17.0555 27.1003C16.2948 27.0646 15.7769 26.9446 15.3212 26.7681C14.8443 26.5892 14.4123 26.3081 14.0555 25.9446C13.6922 25.5876 13.4112 25.1556 13.2319 24.6789C13.0548 24.2239 12.9355 23.7053 12.8998 22.9446C12.8662 22.1831 12.8569 21.941 12.8569 20.0003C12.8569 18.0596 12.8641 17.8174 12.8998 17.056C12.9355 16.2946 13.0548 15.7774 13.2319 15.3217C13.4107 14.8447 13.6918 14.4127 14.0555 14.056C14.4124 13.6926 14.8444 13.4115 15.3212 13.2324C15.7769 13.0553 16.2941 12.936 17.0555 12.9003C17.8169 12.8667 18.0591 12.8574 19.9998 12.8574ZM19.9998 16.4289C19.0526 16.4289 18.1442 16.8051 17.4744 17.4749C16.8046 18.1447 16.4284 19.0531 16.4284 20.0003C16.4284 20.9475 16.8046 21.8559 17.4744 22.5257C18.1442 23.1954 19.0526 23.5717 19.9998 23.5717C20.947 23.5717 21.8554 23.1954 22.5252 22.5257C23.1949 21.8559 23.5712 20.9475 23.5712 20.0003C23.5712 19.0531 23.1949 18.1447 22.5252 17.4749C21.8554 16.8051 20.947 16.4289 19.9998 16.4289ZM24.6426 16.2503C24.6426 16.0135 24.5486 15.7864 24.3811 15.6189C24.2137 15.4515 23.9866 15.3574 23.7498 15.3574C23.513 15.3574 23.2859 15.4515 23.1184 15.6189C22.951 15.7864 22.8569 16.0135 22.8569 16.2503C22.8569 16.4871 22.951 16.7142 23.1184 16.8816C23.2859 17.0491 23.513 17.1431 23.7498 17.1431C23.9866 17.1431 24.2137 17.0491 24.3811 16.8816C24.5486 16.7142 24.6426 16.4871 24.6426 16.2503ZM19.9998 17.8574C20.5681 17.8574 21.1132 18.0832 21.515 18.4851C21.9169 18.8869 22.1426 19.432 22.1426 20.0003C22.1426 20.5686 21.9169 21.1136 21.515 21.5155C21.1132 21.9174 20.5681 22.1431 19.9998 22.1431C19.4315 22.1431 18.8864 21.9174 18.4846 21.5155C18.0827 21.1136 17.8569 20.5686 17.8569 20.0003C17.8569 19.432 18.0827 18.8869 18.4846 18.4851C18.8864 18.0832 19.4315 17.8574 19.9998 17.8574Z" fill="white"/>
</g>
<defs>
<clipPath id="clip0_299_544">
<rect width="17.1429" height="17.1429" fill="white" transform="translate(11.4285 11.4287)"/>
</clipPath>
</defs>
</svg>
