<svg width="24" height="24" viewBox="0 0 24 24" fill="none" xmlns="http://www.w3.org/2000/svg">
<path d="M2.06715 13.1788C1.90181 13.0673 1.80315 12.9144 1.77115 12.7203C1.73898 12.5259 1.77356 12.341 1.8749 12.1655L4.81915 7.43852C5.14731 6.91285 5.61523 6.63077 6.2229 6.59227C6.83056 6.55394 7.3319 6.76744 7.7269 7.23277L8.7884 8.46552C8.8589 8.54885 8.94706 8.58569 9.0529 8.57602C9.15856 8.56635 9.23706 8.51669 9.2884 8.42702L11.4999 4.83652C11.8447 4.26735 12.346 3.97702 13.0036 3.96552C13.6613 3.95385 14.171 4.22752 14.5326 4.78652L15.6441 6.46552C15.7081 6.55519 15.7963 6.60002 15.9086 6.60002C16.0208 6.60002 16.1057 6.55194 16.1634 6.45577L18.8479 2.17877C18.9596 1.99294 19.1243 1.87885 19.3421 1.83652C19.5601 1.79419 19.757 1.84227 19.9326 1.98077C20.0915 2.09227 20.187 2.24194 20.2191 2.42977C20.2511 2.6176 20.2165 2.79935 20.1151 2.97502L17.4306 7.25202C17.0858 7.81085 16.5846 8.09027 15.9269 8.09027C15.2692 8.09027 14.7596 7.81919 14.3979 7.27702L13.2961 5.61727C13.232 5.5211 13.1438 5.47469 13.0316 5.47802C12.9195 5.48119 12.8346 5.53085 12.7769 5.62702L10.5651 9.20777C10.2473 9.73344 9.7829 10.0196 9.1719 10.0663C8.56106 10.1131 8.05823 9.90385 7.6634 9.43852L6.5864 8.18077C6.5159 8.09744 6.4294 8.0606 6.3269 8.07027C6.22423 8.07977 6.14731 8.12944 6.09615 8.21927L3.1519 12.9713C3.04023 13.1571 2.87548 13.2728 2.65765 13.3183C2.43965 13.3638 2.24281 13.3173 2.06715 13.1788ZM14.3076 18C15.0588 18 15.6937 17.7407 16.2124 17.222C16.7311 16.7035 16.9904 16.0686 16.9904 15.3173C16.9904 14.5659 16.7311 13.931 16.2124 13.4125C15.6937 12.8939 15.0588 12.6345 14.3076 12.6345C13.5563 12.6345 12.9213 12.8939 12.4026 13.4125C11.8841 13.931 11.6249 14.5659 11.6249 15.3173C11.6249 16.0686 11.8841 16.7035 12.4026 17.222C12.9213 17.7407 13.5563 18 14.3076 18ZM14.3076 19.5C13.1473 19.5 12.1601 19.0929 11.3461 18.2788C10.532 17.4648 10.1249 16.4776 10.1249 15.3173C10.1249 14.1571 10.532 13.1699 11.3461 12.3558C12.1601 11.5418 13.1473 11.1348 14.3076 11.1348C15.4678 11.1348 16.455 11.5418 17.2691 12.3558C18.0831 13.1699 18.4901 14.1571 18.4901 15.3173C18.4901 15.7571 18.4254 16.1795 18.2959 16.5845C18.0764 17.2721 18.1077 18.0747 18.6169 18.5862L19.9634 19.9385C20.1017 20.077 20.1709 20.2494 20.1709 20.4558C20.1709 20.6621 20.1017 20.8345 19.9634 20.973C19.8249 21.1115 19.6508 21.1808 19.4411 21.1808C19.2316 21.1808 19.0576 21.1115 18.9191 20.973L17.5636 19.6234C17.054 19.1159 16.2547 19.0852 15.5701 19.3058C15.1681 19.4353 14.7473 19.5 14.3076 19.5Z" fill="#F35418"/>
</svg>
