<svg width="40" height="40" viewBox="0 0 40 40" fill="none" xmlns="http://www.w3.org/2000/svg">
<rect x="0.357143" y="0.357143" width="39.2857" height="39.2857" rx="19.6429" stroke="white" stroke-opacity="0.1" stroke-width="0.714286"/>
<path fill-rule="evenodd" clip-rule="evenodd" d="M27.5007 14.6419C27.5007 13.458 26.5418 12.499 25.3579 12.499H14.6436C13.4597 12.499 12.5007 13.458 12.5007 14.6419V25.3562C12.5007 26.5401 13.4597 27.499 14.6436 27.499H25.3579C26.5418 27.499 27.5007 26.5401 27.5007 25.3562V14.6419Z" fill="white"/>
<path d="M15.4659 24.3601H16.5373L19.398 21.1083L21.8864 24.3547H24.7953L20.9784 19.3083L24.2087 15.6387H23.1373L20.4828 18.6547L18.206 15.6414H15.2034L18.8971 20.4601L15.4632 24.3628L15.4659 24.3601ZM16.8346 16.4422H17.8096L23.1828 23.5512H22.2855L16.8373 16.4422H16.8346Z" fill="white"/>
</svg>
