<svg version="1.1" id="Layer_1" xmlns="http://www.w3.org/2000/svg" xmlns:xlink="http://www.w3.org/1999/xlink" x="0px" y="0px"
	 width="100%" viewBox="0 0 500 500" enable-background="new 0 0 500 500" xml:space="preserve">
<path fill="#000000" opacity="1.000000" stroke="none" 
	d="
M447.000000,501.000000 
	C298.000031,501.000000 149.500076,501.000000 1.000080,501.000000 
	C1.000053,334.333405 1.000053,167.666824 1.000027,1.000169 
	C167.666550,1.000113 334.333099,1.000113 500.999756,1.000056 
	C500.999817,167.666519 500.999817,334.333038 500.999908,500.999756 
	C483.166656,501.000000 465.333344,501.000000 447.000000,501.000000 
M224.587555,247.488617 
	C216.803665,246.254837 209.373169,246.681763 202.579620,252.466827 
	C201.953476,247.217819 201.942352,242.316757 201.957291,237.415787 
	C201.967590,234.037903 200.622238,232.057144 196.937164,232.089920 
	C193.570541,232.119858 192.069336,233.829422 192.067459,237.041916 
	C192.057114,254.692764 191.989288,272.344452 192.190872,289.992981 
	C192.208847,291.566254 193.878784,294.296539 195.017975,294.427216 
	C197.144806,294.671051 199.495499,293.527161 201.645004,292.685028 
	C202.345551,292.410522 202.709961,291.278107 203.364212,290.343689 
	C211.090317,297.211853 219.791824,298.035675 228.248611,293.873291 
	C239.075653,288.544312 240.803436,278.352112 239.921280,267.394135 
	C239.149384,257.805939 234.228882,251.322449 224.587555,247.488617 
M402.931793,290.099060 
	C402.942963,277.960327 403.036469,265.820831 402.924988,253.683243 
	C402.880188,248.800522 398.570679,246.213120 394.880737,248.795639 
	C393.574554,249.709793 392.908661,251.538818 391.947876,252.953995 
	C381.230743,244.951782 368.145508,245.051712 360.586304,253.060165 
	C352.499847,261.627258 352.488739,280.021545 360.564240,289.692871 
	C367.384125,297.860382 379.919220,298.055298 391.032471,290.864563 
	C393.739563,292.419983 395.824097,294.423035 398.068512,294.621918 
	C399.545044,294.752716 401.252045,292.282257 402.931793,290.099060 
M100.190392,285.173279 
	C105.441032,295.444153 117.426308,297.426666 128.122131,295.481049 
	C135.009857,294.228149 140.687698,290.649841 142.983444,283.024658 
	C138.762695,281.282654 135.549225,280.716492 131.770996,284.030579 
	C124.620132,290.302948 112.561798,288.314056 108.709427,280.819763 
	C106.391083,276.309723 107.496094,274.172729 112.511093,274.072083 
	C120.166435,273.918427 127.826744,274.023590 135.484848,273.993591 
	C143.683960,273.961517 145.834274,271.063019 143.361801,263.107697 
	C138.373184,247.056610 123.557045,243.941650 110.741219,248.867676 
	C97.555405,253.935928 92.957420,269.947357 100.190392,285.173279 
M249.507843,288.961121 
	C264.283600,302.560699 286.530487,296.888123 291.302887,278.304108 
	C293.958771,267.962067 290.097015,256.077087 282.427399,250.988876 
	C273.711884,245.206772 260.290466,245.454269 252.272095,251.544937 
	C241.694733,259.579437 240.167923,276.854980 249.507843,288.961121 
M161.595551,256.849060 
	C160.499741,255.384201 159.422302,253.905182 158.304749,252.457108 
	C154.658798,247.732925 151.014908,246.823349 144.640808,249.139954 
	C144.790314,249.736420 144.781265,250.471268 145.126999,250.949799 
	C146.877426,253.372620 148.759659,255.699860 150.523834,258.113129 
	C161.524017,273.160675 161.376572,267.995178 150.445740,282.113068 
	C147.567535,285.830444 144.781586,289.619263 141.810715,293.564606 
	C148.961472,296.209686 152.238541,295.360626 156.125961,290.458527 
	C159.271896,286.491486 162.435974,282.538788 166.149536,277.880341 
	C170.155350,283.061951 173.421066,287.399231 176.810562,291.637543 
	C179.927750,295.535370 184.855988,296.182495 190.054337,293.123413 
	C185.304825,287.112274 180.708542,281.074005 175.860321,275.245270 
	C173.126175,271.958099 172.516052,269.192993 175.643021,265.683075 
	C179.284225,261.595978 182.459747,257.089844 185.766891,252.712311 
	C186.574310,251.643585 187.106628,250.367020 187.853439,249.028229 
	C179.840347,246.910675 177.394897,247.696793 172.962158,253.413666 
	C171.943726,254.727158 170.975784,256.079834 169.957230,257.393219 
	C166.255692,262.166290 166.008331,262.162903 161.595551,256.849060 
M330.802673,247.929901 
	C327.459412,247.873657 326.134644,246.009262 325.999725,242.837067 
	C325.895294,240.382553 326.081757,237.356796 322.319275,237.627808 
	C318.978973,237.868423 315.743835,238.299988 314.931549,242.792343 
	C314.577942,244.747925 313.001831,246.770828 311.442047,248.156540 
	C308.670380,250.618866 308.106323,253.885956 311.232727,255.457336 
	C314.882751,257.291962 314.896057,260.105804 315.023041,263.334412 
	C315.277557,269.804565 315.490723,276.288757 316.116425,282.728729 
	C316.931366,291.116241 321.888916,295.448547 330.233521,295.991486 
	C335.840820,296.356354 341.290558,294.209930 347.046661,295.639923 
	C349.987671,296.370544 352.372681,293.640961 351.518951,290.640686 
	C351.005371,288.835876 348.536011,287.271606 346.592468,286.321503 
	C345.604523,285.838531 343.733215,286.743439 342.436798,287.379028 
	C334.516327,291.262268 326.454498,286.779114 326.097473,278.067505 
	C325.879608,272.750916 326.125885,267.416809 325.999725,262.094482 
	C325.901489,257.950775 327.600067,256.019958 331.887482,255.946152 
	C334.928986,255.893799 339.525330,257.198822 339.605072,252.139023 
	C339.691833,246.631332 334.819275,248.494812 330.802673,247.929901 
M296.012726,247.506729 
	C296.025360,261.457947 296.056000,275.409210 296.038269,289.360382 
	C296.033691,292.971313 297.460083,294.945312 301.336334,294.967560 
	C305.016083,294.988647 306.962372,293.526642 306.958374,289.706818 
	C306.940033,272.268036 306.938843,254.829269 306.964600,237.390533 
	C306.970154,233.625732 305.165344,232.021057 301.433807,232.030045 
	C297.615509,232.039246 296.001251,233.871216 296.044708,237.542374 
	C296.080078,240.531219 296.026794,243.521103 296.012726,247.506729 
M92.000359,271.499969 
	C91.987656,260.202637 91.967491,248.905304 91.966957,237.607971 
	C91.966805,234.345306 90.912865,232.138733 87.151001,232.088837 
	C83.523094,232.040756 82.046066,233.884033 82.047218,237.306870 
	C82.053101,254.751068 82.052834,272.195251 82.044525,289.639465 
	C82.042915,293.032898 83.443825,294.942810 87.097168,294.911926 
	C90.837372,294.880280 91.967880,292.735535 91.965080,289.445709 
	C91.960274,283.797119 91.986916,278.148529 92.000359,271.499969 
M420.005554,265.502258 
	C420.000214,261.851807 419.939301,258.200317 420.004913,254.551132 
	C420.072571,250.789841 419.266785,248.046127 414.614563,248.015488 
	C410.083984,247.985641 408.987000,250.449677 409.009552,254.348862 
	C409.075806,265.797668 409.077820,277.247375 409.009705,288.696136 
	C408.986298,292.626068 410.154266,295.026978 414.659760,294.983490 
	C419.339081,294.938263 420.034943,292.134247 420.007599,288.404022 
	C419.954071,281.103485 420.000519,273.802216 420.005554,265.502258 
M409.356812,237.133560 
	C410.781311,241.378998 414.149261,241.699677 417.285370,240.081894 
	C418.746765,239.328003 420.156799,236.204315 419.766602,234.597641 
	C418.919647,231.110092 415.521515,230.356323 412.583923,231.610229 
	C411.074982,232.254318 410.347931,234.730118 409.356812,237.133560 
z"/>
<path fill="#191A1D" opacity="1.000000" stroke="none" 
	d="
M224.980835,247.610413 
	C234.228882,251.322449 239.149384,257.805939 239.921280,267.394135 
	C240.803436,278.352112 239.075653,288.544312 228.248611,293.873291 
	C219.791824,298.035675 211.090317,297.211853 203.364212,290.343689 
	C202.709961,291.278107 202.345551,292.410522 201.645004,292.685028 
	C199.495499,293.527161 197.144806,294.671051 195.017975,294.427216 
	C193.878784,294.296539 192.208847,291.566254 192.190872,289.992981 
	C191.989288,272.344452 192.057114,254.692764 192.067459,237.041916 
	C192.069336,233.829422 193.570541,232.119858 196.937164,232.089920 
	C200.622238,232.057144 201.967590,234.037903 201.957291,237.415787 
	C201.942352,242.316757 201.953476,247.217819 202.579620,252.466827 
	C209.373169,246.681763 216.803665,246.254837 224.980835,247.610413 
M226.348785,260.218018 
	C222.785919,256.386871 218.369003,254.894196 213.271378,255.806152 
	C204.260666,257.418182 199.651169,267.111633 202.791138,277.602753 
	C204.615402,283.697876 208.784515,286.988495 215.165848,287.370026 
	C221.307953,287.737244 226.090973,284.735840 228.378540,278.854797 
	C230.805054,272.616516 230.840195,266.517517 226.348785,260.218018 
z"/>
<path fill="#191A1D" opacity="1.000000" stroke="none" 
	d="
M402.893799,290.537872 
	C401.252045,292.282257 399.545044,294.752716 398.068512,294.621918 
	C395.824097,294.423035 393.739563,292.419983 391.032471,290.864563 
	C379.919220,298.055298 367.384125,297.860382 360.564240,289.692871 
	C352.488739,280.021545 352.499847,261.627258 360.586304,253.060165 
	C368.145508,245.051712 381.230743,244.951782 391.947876,252.953995 
	C392.908661,251.538818 393.574554,249.709793 394.880737,248.795639 
	C398.570679,246.213120 402.880188,248.800522 402.924988,253.683243 
	C403.036469,265.820831 402.942963,277.960327 402.893799,290.537872 
M380.856354,287.153046 
	C391.303650,284.458496 395.843292,274.141327 391.207794,263.627167 
	C388.654938,257.836670 382.364014,254.577026 376.130524,255.814819 
	C367.995728,257.430176 364.153381,264.017517 365.099579,274.726257 
	C365.796387,282.612030 371.028015,286.991364 380.856354,287.153046 
z"/>
<path fill="#191A1D" opacity="1.000000" stroke="none" 
	d="
M100.015472,284.843079 
	C92.957420,269.947357 97.555405,253.935928 110.741219,248.867676 
	C123.557045,243.941650 138.373184,247.056610 143.361801,263.107697 
	C145.834274,271.063019 143.683960,273.961517 135.484848,273.993591 
	C127.826744,274.023590 120.166435,273.918427 112.511093,274.072083 
	C107.496094,274.172729 106.391083,276.309723 108.709427,280.819763 
	C112.561798,288.314056 124.620132,290.302948 131.770996,284.030579 
	C135.549225,280.716492 138.762695,281.282654 142.983444,283.024658 
	C140.687698,290.649841 135.009857,294.228149 128.122131,295.481049 
	C117.426308,297.426666 105.441032,295.444153 100.015472,284.843079 
M113.036507,265.983978 
	C118.702888,265.975037 124.373100,266.089569 130.034332,265.914307 
	C133.883957,265.795074 134.652786,264.108551 132.703049,260.773651 
	C128.285690,253.218063 114.101166,253.064194 109.453072,260.550049 
	C107.449638,263.776611 107.744881,265.960876 113.036507,265.983978 
z"/>
<path fill="#191A1D" opacity="1.000000" stroke="none" 
	d="
M249.259613,288.700073 
	C240.167923,276.854980 241.694733,259.579437 252.272095,251.544937 
	C260.290466,245.454269 273.711884,245.206772 282.427399,250.988876 
	C290.097015,256.077087 293.958771,267.962067 291.302887,278.304108 
	C286.530487,296.888123 264.283600,302.560699 249.259613,288.700073 
M267.564606,287.387329 
	C280.934967,287.635681 285.494080,270.920593 278.996613,261.576416 
	C275.919586,257.151245 270.395050,254.762634 265.106659,255.819458 
	C257.586578,257.322266 253.879898,262.844421 254.020981,272.334625 
	C254.153168,281.225952 258.143555,285.895447 267.564606,287.387329 
z"/>
<path fill="#191A1D" opacity="1.000000" stroke="none" 
	d="
M161.808426,257.122772 
	C166.008331,262.162903 166.255692,262.166290 169.957230,257.393219 
	C170.975784,256.079834 171.943726,254.727158 172.962158,253.413666 
	C177.394897,247.696793 179.840347,246.910675 187.853439,249.028229 
	C187.106628,250.367020 186.574310,251.643585 185.766891,252.712311 
	C182.459747,257.089844 179.284225,261.595978 175.643021,265.683075 
	C172.516052,269.192993 173.126175,271.958099 175.860321,275.245270 
	C180.708542,281.074005 185.304825,287.112274 190.054337,293.123413 
	C184.855988,296.182495 179.927750,295.535370 176.810562,291.637543 
	C173.421066,287.399231 170.155350,283.061951 166.149536,277.880341 
	C162.435974,282.538788 159.271896,286.491486 156.125961,290.458527 
	C152.238541,295.360626 148.961472,296.209686 141.810715,293.564606 
	C144.781586,289.619263 147.567535,285.830444 150.445740,282.113068 
	C161.376572,267.995178 161.524017,273.160675 150.523834,258.113129 
	C148.759659,255.699860 146.877426,253.372620 145.126999,250.949799 
	C144.781265,250.471268 144.790314,249.736420 144.640808,249.139954 
	C151.014908,246.823349 154.658798,247.732925 158.304749,252.457108 
	C159.422302,253.905182 160.499741,255.384201 161.808426,257.122772 
z"/>
<path fill="#191A1D" opacity="1.000000" stroke="none" 
	d="
M331.242432,247.949921 
	C334.819275,248.494812 339.691833,246.631332 339.605072,252.139023 
	C339.525330,257.198822 334.928986,255.893799 331.887482,255.946152 
	C327.600067,256.019958 325.901489,257.950775 325.999725,262.094482 
	C326.125885,267.416809 325.879608,272.750916 326.097473,278.067505 
	C326.454498,286.779114 334.516327,291.262268 342.436798,287.379028 
	C343.733215,286.743439 345.604523,285.838531 346.592468,286.321503 
	C348.536011,287.271606 351.005371,288.835876 351.518951,290.640686 
	C352.372681,293.640961 349.987671,296.370544 347.046661,295.639923 
	C341.290558,294.209930 335.840820,296.356354 330.233521,295.991486 
	C321.888916,295.448547 316.931366,291.116241 316.116425,282.728729 
	C315.490723,276.288757 315.277557,269.804565 315.023041,263.334412 
	C314.896057,260.105804 314.882751,257.291962 311.232727,255.457336 
	C308.106323,253.885956 308.670380,250.618866 311.442047,248.156540 
	C313.001831,246.770828 314.577942,244.747925 314.931549,242.792343 
	C315.743835,238.299988 318.978973,237.868423 322.319275,237.627808 
	C326.081757,237.356796 325.895294,240.382553 325.999725,242.837067 
	C326.134644,246.009262 327.459412,247.873657 331.242432,247.949921 
z"/>
<path fill="#191A1D" opacity="1.000000" stroke="none" 
	d="
M296.012756,247.008636 
	C296.026794,243.521103 296.080078,240.531219 296.044708,237.542374 
	C296.001251,233.871216 297.615509,232.039246 301.433807,232.030045 
	C305.165344,232.021057 306.970154,233.625732 306.964600,237.390533 
	C306.938843,254.829269 306.940033,272.268036 306.958374,289.706818 
	C306.962372,293.526642 305.016083,294.988647 301.336334,294.967560 
	C297.460083,294.945312 296.033691,292.971313 296.038269,289.360382 
	C296.056000,275.409210 296.025360,261.457947 296.012756,247.008636 
z"/>
<path fill="#191A1D" opacity="1.000000" stroke="none" 
	d="
M92.000351,271.999939 
	C91.986916,278.148529 91.960274,283.797119 91.965080,289.445709 
	C91.967880,292.735535 90.837372,294.880280 87.097168,294.911926 
	C83.443825,294.942810 82.042915,293.032898 82.044525,289.639465 
	C82.052834,272.195251 82.053101,254.751068 82.047218,237.306870 
	C82.046066,233.884033 83.523094,232.040756 87.151001,232.088837 
	C90.912865,232.138733 91.966805,234.345306 91.966957,237.607971 
	C91.967491,248.905304 91.987656,260.202637 92.000351,271.999939 
z"/>
<path fill="#191A1D" opacity="1.000000" stroke="none" 
	d="
M420.005554,266.001770 
	C420.000519,273.802216 419.954071,281.103485 420.007599,288.404022 
	C420.034943,292.134247 419.339081,294.938263 414.659760,294.983490 
	C410.154266,295.026978 408.986298,292.626068 409.009705,288.696136 
	C409.077820,277.247375 409.075806,265.797668 409.009552,254.348862 
	C408.987000,250.449677 410.083984,247.985641 414.614563,248.015488 
	C419.266785,248.046127 420.072571,250.789841 420.004913,254.551132 
	C419.939301,258.200317 420.000214,261.851807 420.005554,266.001770 
z"/>
<path fill="#191A1D" opacity="1.000000" stroke="none" 
	d="
M409.312195,236.755859 
	C410.347931,234.730118 411.074982,232.254318 412.583923,231.610229 
	C415.521515,230.356323 418.919647,231.110092 419.766602,234.597641 
	C420.156799,236.204315 418.746765,239.328003 417.285370,240.081894 
	C414.149261,241.699677 410.781311,241.378998 409.312195,236.755859 
z"/>
<path fill="#000000" opacity="1.000000" stroke="none" 
	d="
M226.569183,260.516479 
	C230.840195,266.517517 230.805054,272.616516 228.378540,278.854797 
	C226.090973,284.735840 221.307953,287.737244 215.165848,287.370026 
	C208.784515,286.988495 204.615402,283.697876 202.791138,277.602753 
	C199.651169,267.111633 204.260666,257.418182 213.271378,255.806152 
	C218.369003,254.894196 222.785919,256.386871 226.569183,260.516479 
z"/>
<path fill="#000000" opacity="1.000000" stroke="none" 
	d="
M380.480072,287.219543 
	C371.028015,286.991364 365.796387,282.612030 365.099579,274.726257 
	C364.153381,264.017517 367.995728,257.430176 376.130524,255.814819 
	C382.364014,254.577026 388.654938,257.836670 391.207794,263.627167 
	C395.843292,274.141327 391.303650,284.458496 380.480072,287.219543 
z"/>
<path fill="#000000" opacity="1.000000" stroke="none" 
	d="
M112.620331,265.975220 
	C107.744881,265.960876 107.449638,263.776611 109.453072,260.550049 
	C114.101166,253.064194 128.285690,253.218063 132.703049,260.773651 
	C134.652786,264.108551 133.883957,265.795074 130.034332,265.914307 
	C124.373100,266.089569 118.702888,265.975037 112.620331,265.975220 
z"/>
<path fill="#000000" opacity="1.000000" stroke="none" 
	d="
M267.181854,287.337341 
	C258.143555,285.895447 254.153168,281.225952 254.020981,272.334625 
	C253.879898,262.844421 257.586578,257.322266 265.106659,255.819458 
	C270.395050,254.762634 275.919586,257.151245 278.996613,261.576416 
	C285.494080,270.920593 280.934967,287.635681 267.181854,287.337341 
z"/>
</svg>