<svg width="552" height="296" viewBox="0 0 552 296" fill="none" xmlns="http://www.w3.org/2000/svg">
<rect width="552" height="296" rx="16" fill="#F8F2F1"/>
<path d="M335.916 44.0008C340.204 44.0008 344.165 46.288 346.309 50.0008L396.527 136.982C398.671 140.694 398.671 145.269 396.527 148.982L346.309 235.962C344.165 239.675 340.204 241.962 335.916 241.962L235.48 241.962C231.193 241.962 227.231 239.675 225.087 235.962L174.869 148.982C172.726 145.269 172.726 140.694 174.869 136.982L225.087 50.0008C227.231 46.288 231.193 44.0008 235.48 44.0008L335.916 44.0008Z" fill="#F35418" fill-opacity="0.1"/>
<path d="M323.332 65.7972C327.619 65.7972 331.581 68.0844 333.725 71.7972L371.359 136.981C373.502 140.694 373.502 145.269 371.359 148.981L333.724 214.166C331.581 217.879 327.619 220.166 323.332 220.166L248.064 220.166C243.777 220.166 239.815 217.879 237.672 214.166L200.037 148.981C197.894 145.269 197.894 140.694 200.037 136.981L237.672 71.7972C239.815 68.0844 243.777 65.7972 248.064 65.7972L323.332 65.7972Z" fill="#F35418" fill-opacity="0.1"/>
<path d="M312.249 86.9938C315.821 86.9938 319.123 88.8999 320.909 91.9938L347.461 137.982C349.247 141.075 349.247 144.888 347.461 147.981L320.909 193.97C319.123 197.063 315.822 198.97 312.249 198.97L259.147 198.969C255.574 198.969 252.273 197.063 250.486 193.969L223.936 147.982C222.149 144.888 222.149 141.076 223.936 137.982L250.487 91.9937L250.659 91.7074C252.421 88.8769 255.481 87.1104 258.813 86.9996L259.147 86.9938L312.249 86.9938Z" fill="#F35418" fill-opacity="0.1" stroke="#F6C3B0" stroke-width="4"/>
<path d="M236.5 114.5L208.5 86.5" stroke="#F6C3B0" stroke-width="4"/>
<path d="M324 191L345 212" stroke="#F6C3B0" stroke-width="4"/>
<path d="M29 47C29 40.3726 34.3726 35 41 35H201C207.627 35 213 40.3726 213 47V79C213 85.6274 207.627 91 201 91H41C34.3726 91 29 85.6274 29 79V47Z" fill="white"/>
<rect x="69" y="49" width="28" height="28" rx="14" fill="#487FFF" fill-opacity="0.18"/>
<g clip-path="url(#clip0_632_402)">
<path d="M76.5833 63.0002C76.5833 63.0002 78.9166 58.3335 83 58.3335C87.0833 58.3335 89.4166 63.0002 89.4166 63.0002C89.4166 63.0002 87.0833 67.6668 83 67.6668C78.9166 67.6668 76.5833 63.0002 76.5833 63.0002Z" stroke="#487FFF" stroke-width="1.2" stroke-linecap="round" stroke-linejoin="round"/>
<path d="M83 64.75C83.9665 64.75 84.75 63.9665 84.75 63C84.75 62.0335 83.9665 61.25 83 61.25C82.0335 61.25 81.25 62.0335 81.25 63C81.25 63.9665 82.0335 64.75 83 64.75Z" stroke="#487FFF" stroke-width="1.2" stroke-linecap="round" stroke-linejoin="round"/>
</g>
<rect x="107" y="49" width="28" height="28" rx="14" fill="#45B369" fill-opacity="0.18"/>
<g clip-path="url(#clip1_632_402)">
<path d="M120.417 58.3335H116.333C116.024 58.3335 115.727 58.4564 115.508 58.6752C115.29 58.894 115.167 59.1907 115.167 59.5002V67.6668C115.167 67.9762 115.29 68.273 115.508 68.4918C115.727 68.7106 116.024 68.8335 116.333 68.8335H124.5C124.809 68.8335 125.106 68.7106 125.325 68.4918C125.544 68.273 125.667 67.9762 125.667 67.6668V63.5835" stroke="#45B369" stroke-width="1.2" stroke-linecap="round" stroke-linejoin="round"/>
<path d="M124.792 57.4586C125.024 57.2266 125.338 57.0962 125.667 57.0962C125.995 57.0962 126.31 57.2266 126.542 57.4586C126.774 57.6907 126.904 58.0054 126.904 58.3336C126.904 58.6618 126.774 58.9766 126.542 59.2086L121 64.7503L118.667 65.3336L119.25 63.0003L124.792 57.4586Z" stroke="#45B369" stroke-width="1.2" stroke-linecap="round" stroke-linejoin="round"/>
</g>
<rect x="145" y="49" width="28" height="28" rx="14" fill="#F86624" fill-opacity="0.18"/>
<path d="M153.75 59.5H154.917H164.25" stroke="#EF4A00" stroke-width="1.2" stroke-linecap="round" stroke-linejoin="round"/>
<path d="M163.083 59.4998V67.6665C163.083 67.9759 162.96 68.2727 162.742 68.4915C162.523 68.7103 162.226 68.8332 161.917 68.8332H156.083C155.774 68.8332 155.477 68.7103 155.258 68.4915C155.04 68.2727 154.917 67.9759 154.917 67.6665V59.4998M156.667 59.4998V58.3332C156.667 58.0238 156.79 57.727 157.008 57.5082C157.227 57.2894 157.524 57.1665 157.833 57.1665H160.167C160.476 57.1665 160.773 57.2894 160.992 57.5082C161.21 57.727 161.333 58.0238 161.333 58.3332V59.4998" stroke="#EF4A00" stroke-width="1.2" stroke-linecap="round" stroke-linejoin="round"/>
<path d="M157.833 62.4165V65.9165" stroke="#EF4A00" stroke-width="1.2" stroke-linecap="round" stroke-linejoin="round"/>
<path d="M160.167 62.4165V65.9165" stroke="#EF4A00" stroke-width="1.2" stroke-linecap="round" stroke-linejoin="round"/>
<path d="M340 221C340 214.373 345.373 209 352 209H512C518.627 209 524 214.373 524 221V249C524 255.627 518.627 261 512 261H352C345.373 261 340 255.627 340 249V221Z" fill="white"/>
<rect x="468" y="223" width="24" height="24" rx="4" fill="#FF8400" fill-opacity="0.1"/>
<path d="M476.568 232.9V228H485.187V232.9" stroke="#FF8400" stroke-linecap="round" stroke-linejoin="round"/>
<path d="M476.568 239.2H475.132C474.751 239.2 474.385 239.053 474.116 238.79C473.847 238.528 473.695 238.172 473.695 237.8V234.3C473.695 233.929 473.847 233.573 474.116 233.31C474.385 233.048 474.751 232.9 475.132 232.9H486.624C487.005 232.9 487.37 233.048 487.639 233.31C487.909 233.573 488.06 233.929 488.06 234.3V237.8C488.06 238.172 487.909 238.528 487.639 238.79C487.37 239.053 487.005 239.2 486.624 239.2H485.187" stroke="#FF8400" stroke-linecap="round" stroke-linejoin="round"/>
<path d="M485.187 236.4H476.568V242H485.187V236.4Z" stroke="#FF8400" stroke-linecap="round" stroke-linejoin="round"/>
<rect x="372" y="223" width="24" height="24" rx="4" fill="#00A551" fill-opacity="0.1"/>
<path d="M391.992 234.313C391.99 234.282 391.984 234.253 391.974 234.225C391.97 234.214 391.968 234.204 391.963 234.193C391.947 234.159 391.927 234.126 391.899 234.098C391.898 234.098 391.898 234.098 391.898 234.098L389.996 232.195V230.333C389.996 230.326 389.992 230.32 389.992 230.312C389.99 230.283 389.984 230.255 389.975 230.227C389.971 230.216 389.968 230.206 389.963 230.195C389.947 230.16 389.927 230.126 389.898 230.098L386.898 227.098C386.869 227.069 386.836 227.048 386.8 227.032C386.79 227.028 386.78 227.025 386.77 227.022C386.741 227.012 386.712 227.006 386.682 227.004C386.676 227.003 386.67 227 386.663 227H378.329C378.145 227 377.996 227.149 377.996 227.333V232.195L376.094 234.098C376.094 234.098 376.093 234.098 376.093 234.098C376.065 234.126 376.045 234.159 376.029 234.193C376.024 234.204 376.022 234.214 376.018 234.225C376.008 234.253 376.002 234.282 376 234.313C376 234.32 375.996 234.326 375.996 234.333V240.667C375.996 240.851 376.145 241 376.329 241H377.996V242.667C377.996 242.851 378.145 243 378.329 243H389.663C389.847 243 389.996 242.851 389.996 242.667V241H391.663C391.847 241 391.996 240.851 391.996 240.667V234.333C391.996 234.326 391.992 234.32 391.992 234.313ZM390.858 234H389.996V233.138L390.858 234ZM388.858 230H386.996V228.138L388.858 230ZM378.663 227.667H386.329V230.333C386.329 230.517 386.479 230.667 386.663 230.667H389.329V232.333V234H378.663V232.333V227.667ZM377.996 233.138V234H377.134L377.996 233.138ZM389.329 242.333H378.663V241H389.329V242.333ZM391.329 240.333H376.663V234.667H378.329H389.663H391.329V240.333Z" fill="#00A551"/>
<path d="M383.804 236.295C383.853 236.25 383.908 236.217 383.968 236.196C384.028 236.175 384.091 236.165 384.155 236.165C384.378 236.165 384.563 236.253 384.71 236.431L385.084 235.944C384.975 235.815 384.84 235.718 384.679 235.652C384.519 235.586 384.337 235.553 384.133 235.553C383.993 235.553 383.855 235.576 383.719 235.623C383.583 235.671 383.461 235.743 383.353 235.842C383.246 235.94 383.159 236.064 383.093 236.213C383.027 236.362 382.993 236.541 382.993 236.748C382.993 236.915 383.015 237.057 383.058 237.176C383.102 237.295 383.16 237.399 383.234 237.488C383.308 237.577 383.393 237.653 383.489 237.717C383.585 237.782 383.688 237.84 383.798 237.893C383.972 237.98 384.115 238.074 384.229 238.176C384.342 238.278 384.399 238.416 384.399 238.59C384.399 238.768 384.351 238.905 384.257 239.004C384.163 239.102 384.044 239.151 383.9 239.151C383.772 239.151 383.646 239.121 383.523 239.06C383.4 239 383.295 238.917 383.208 238.811L382.84 239.31C382.953 239.442 383.104 239.551 383.293 239.638C383.482 239.725 383.688 239.769 383.911 239.769C384.066 239.769 384.213 239.742 384.353 239.689C384.493 239.636 384.615 239.558 384.719 239.454C384.823 239.35 384.906 239.223 384.968 239.072C385.03 238.921 385.062 238.747 385.062 238.55C385.062 238.38 385.035 238.233 384.982 238.108C384.929 237.984 384.861 237.876 384.778 237.785C384.695 237.695 384.603 237.617 384.501 237.553C384.399 237.489 384.299 237.432 384.2 237.383C384.034 237.3 383.9 237.212 383.798 237.119C383.696 237.027 383.645 236.896 383.645 236.726C383.645 236.627 383.659 236.542 383.688 236.471C383.716 236.399 383.755 236.34 383.804 236.295Z" fill="#00A551"/>
<path d="M381.055 236.618C381.123 236.486 381.208 236.381 381.31 236.303C381.412 236.226 381.531 236.187 381.667 236.187C381.913 236.187 382.113 236.299 382.268 236.522L382.659 236.046C382.549 235.887 382.407 235.765 382.234 235.68C382.06 235.595 381.858 235.553 381.627 235.553C381.404 235.553 381.201 235.605 381.018 235.708C380.835 235.812 380.679 235.958 380.55 236.145C380.422 236.332 380.323 236.555 380.253 236.813C380.183 237.072 380.148 237.355 380.148 237.661C380.148 237.967 380.183 238.248 380.253 238.505C380.323 238.762 380.421 238.984 380.548 239.171C380.674 239.358 380.829 239.504 381.012 239.61C381.196 239.716 381.401 239.769 381.627 239.769C381.877 239.769 382.083 239.72 382.248 239.621C382.412 239.523 382.547 239.395 382.653 239.236L382.262 238.777C382.197 238.875 382.117 238.958 382.021 239.026C381.925 239.094 381.81 239.128 381.678 239.128C381.539 239.128 381.417 239.09 381.313 239.012C381.209 238.935 381.123 238.83 381.055 238.698C380.986 238.565 380.936 238.41 380.902 238.23C380.868 238.051 380.851 237.861 380.851 237.661C380.851 237.457 380.868 237.265 380.902 237.085C380.936 236.906 380.987 236.75 381.055 236.618Z" fill="#00A551"/>
<path d="M386.664 238.873H386.647L385.978 235.654H385.219L386.199 239.666H387.06L388.058 235.654H387.332L386.664 238.873Z" fill="#00A551"/>
<rect x="436" y="223" width="24" height="24" rx="4" fill="#F13C3C" fill-opacity="0.1"/>
<path d="M455.994 234.313C455.992 234.282 455.986 234.253 455.976 234.225C455.972 234.214 455.97 234.204 455.965 234.193C455.949 234.159 455.929 234.126 455.901 234.098C455.9 234.098 455.9 234.098 455.9 234.098L453.998 232.195V230.333C453.998 230.326 453.994 230.32 453.994 230.312C453.992 230.283 453.986 230.255 453.977 230.227C453.973 230.216 453.97 230.206 453.965 230.195C453.949 230.16 453.929 230.126 453.9 230.098L450.9 227.098C450.871 227.069 450.838 227.048 450.802 227.032C450.792 227.028 450.782 227.025 450.772 227.021C450.743 227.011 450.714 227.006 450.684 227.004C450.677 227.003 450.671 227 450.665 227H442.331C442.147 227 441.998 227.149 441.998 227.333V232.195L440.096 234.098C440.096 234.098 440.095 234.098 440.095 234.098C440.067 234.126 440.047 234.159 440.031 234.193C440.026 234.204 440.024 234.214 440.02 234.225C440.01 234.253 440.004 234.282 440.002 234.313C440.002 234.32 439.998 234.326 439.998 234.333V240.667C439.998 240.851 440.147 241 440.331 241H441.998V242.667C441.998 242.851 442.147 243 442.331 243H453.665C453.849 243 453.998 242.851 453.998 242.667V241H455.665C455.849 241 455.998 240.851 455.998 240.667V234.333C455.998 234.326 455.994 234.32 455.994 234.313ZM454.86 234H453.998V233.138L454.86 234ZM452.86 230H450.998V228.138L452.86 230ZM442.665 227.667H450.331V230.333C450.331 230.517 450.481 230.667 450.665 230.667H453.331V232.333V234H442.665V232.333V227.667ZM441.998 233.138V234H441.136L441.998 233.138ZM453.331 242.333H442.665V241H453.331V242.333ZM455.331 240.333H440.665V234.667H442.331H453.665H455.331V240.333Z" fill="#F13C3C"/>
<path d="M446.082 235.906C445.974 235.814 445.853 235.749 445.716 235.711C445.58 235.673 445.448 235.654 445.32 235.654H444.209V239.666H444.878V238.057H445.354C445.493 238.057 445.629 238.032 445.762 237.983C445.894 237.934 446.011 237.859 446.113 237.757C446.215 237.655 446.297 237.527 446.36 237.374C446.422 237.221 446.453 237.043 446.453 236.839C446.453 236.612 446.418 236.423 446.348 236.272C446.278 236.121 446.19 235.999 446.082 235.906ZM445.654 237.335C445.552 237.446 445.422 237.502 445.263 237.502H444.878V236.227H445.263C445.422 236.227 445.552 236.276 445.654 236.374C445.756 236.472 445.807 236.629 445.807 236.844C445.807 237.06 445.756 237.223 445.654 237.335Z" fill="#F13C3C"/>
<path d="M450.24 239.666H450.926V237.944H451.951V237.36H450.92V236.266H452.036V235.654H450.24V239.666Z" fill="#F13C3C"/>
<path d="M448.022 235.654H447.014V239.666H448.017C448.534 239.666 448.926 239.492 449.193 239.142C449.459 238.793 449.592 238.301 449.592 237.666C449.592 237.031 449.459 236.537 449.193 236.184C448.926 235.831 448.536 235.654 448.022 235.654ZM448.847 238.281C448.804 238.457 448.742 238.603 448.663 238.72C448.584 238.837 448.489 238.925 448.38 238.983C448.27 239.042 448.151 239.071 448.023 239.071H447.7V236.249H448.023C448.151 236.249 448.27 236.279 448.38 236.337C448.489 236.396 448.584 236.484 448.663 236.601C448.742 236.718 448.804 236.865 448.847 237.043C448.89 237.22 448.912 237.428 448.912 237.666C448.912 237.9 448.89 238.105 448.847 238.281Z" fill="#F13C3C"/>
<rect x="404" y="223" width="24" height="24" rx="4" fill="#9A5DFC" fill-opacity="0.15"/>
<g clip-path="url(#clip2_632_402)">
<path d="M418.296 227C418.431 227.098 418.577 227.185 418.697 227.296C420.045 228.538 421.386 229.784 422.735 231.024C422.821 231.099 422.89 231.19 422.936 231.291C422.981 231.392 423.003 231.501 423 231.611C422.994 235.54 422.992 239.468 422.996 243.397C422.996 243.823 422.804 244 422.344 244H409.647C409.201 244 409.007 243.819 409.007 243.404C409.007 238.148 409.005 232.891 409.002 227.634C409.002 227.333 409.103 227.123 409.401 227H418.296ZM421.908 242.998V231.98H418.218C417.822 231.98 417.615 231.786 417.615 231.416C417.615 230.338 417.615 229.258 417.615 228.179V228.009H410.09V242.999L421.908 242.998ZM421.054 230.982L418.706 228.809V230.982H421.054Z" fill="#9A5DFC"/>
<path d="M416.007 234.305C417.179 234.305 418.35 234.305 419.522 234.305C419.918 234.305 420.125 234.499 420.125 234.869C420.125 236.816 420.125 238.763 420.125 240.71C420.125 241.088 419.919 241.277 419.506 241.277H412.496C412.076 241.277 411.873 241.089 411.873 240.696V234.888C411.873 234.489 412.072 234.305 412.509 234.305C413.676 234.305 414.842 234.305 416.007 234.305ZM412.956 236.285H415.453V235.31H412.956V236.285ZM419.038 236.295V235.312H416.552V236.294L419.038 236.295ZM412.964 237.299V238.281H415.452V237.299H412.964ZM416.552 237.299V238.281H419.041V237.298L416.552 237.299ZM412.962 239.295V240.27H415.454V239.295H412.962ZM419.042 239.299H416.55V240.275H419.041L419.042 239.299Z" fill="#9A5DFC"/>
</g>
<rect x="258.487" y="116.36" width="54" height="54" rx="27" fill="#F35418"/>
<path d="M284.487 126.36C284.487 135.748 292.098 143.36 301.487 143.36C292.098 143.36 284.487 150.971 284.487 160.36C284.487 150.971 276.876 143.36 267.487 143.36C276.876 143.36 284.487 135.748 284.487 126.36Z" fill="white"/>
<path d="M298.487 150.36C298.487 153.673 301.173 156.36 304.487 156.36C301.173 156.36 298.487 159.046 298.487 162.36C298.487 159.046 295.801 156.36 292.487 156.36C295.801 156.36 298.487 153.673 298.487 150.36Z" fill="white"/>
<defs>
<clipPath id="clip0_632_402">
<rect width="14" height="14" fill="white" transform="translate(76 56)"/>
</clipPath>
<clipPath id="clip1_632_402">
<rect width="14" height="14" fill="white" transform="translate(114 56)"/>
</clipPath>
<clipPath id="clip2_632_402">
<rect width="14" height="17" fill="white" transform="translate(409 227)"/>
</clipPath>
</defs>
</svg>
