<svg width="40" height="40" viewBox="0 0 40 40" fill="none" xmlns="http://www.w3.org/2000/svg">
<g clip-path="url(#clip0_336_2420)">
<path d="M19.9999 8.48475C22.1756 8.48475 23.9393 6.72102 23.9393 4.54535C23.9393 2.36968 22.1756 0.605957 19.9999 0.605957C17.8243 0.605957 16.0605 2.36968 16.0605 4.54535C16.0605 6.72102 17.8243 8.48475 19.9999 8.48475Z" fill="#666666"/>
<path d="M17.0304 21.7575C17.0304 20.909 17.0304 15.3332 17.0304 14.4848C17.0304 12.7272 18.6061 11.2726 20.4243 11.5151C21.2728 11.6363 21.9395 12.0605 22.4243 12.7272C25.5152 12.7272 25.2728 12.7272 25.8182 12.7272C25.2728 10.9696 24.0001 9.57566 22.3031 8.84839C21.6364 9.21203 20.8485 9.39384 20.0001 9.39384C19.2122 9.39384 18.4243 9.21203 17.7576 8.84839C15.5152 9.87869 13.9395 12.1211 13.9395 14.6666C13.9395 14.7272 13.9395 21.6363 13.9395 21.6969C14.4243 21.8181 14.6061 21.7575 17.0304 21.7575ZM26.0607 25.3332V20.1211C26.0607 19.2726 25.394 18.606 24.5455 18.606C23.697 18.606 23.0304 19.2726 23.0304 20.1211V25.4544C23.0304 27.212 21.4546 28.6666 19.6364 28.4241C18.7879 28.3029 18.1213 27.8787 17.6364 27.212C14.2425 27.212 14.8485 27.212 14.2425 27.212C14.7879 28.9696 16.1213 30.4241 17.7576 31.0908C18.4243 30.7272 19.2122 30.5454 20.0607 30.5454C20.8485 30.5454 21.6364 30.7272 22.3031 31.0908C24.4849 30.1211 26.0607 27.8787 26.0607 25.3332Z" fill="#666666"/>
<path d="M19.9999 39.3939C22.1756 39.3939 23.9393 37.6302 23.9393 35.4545C23.9393 33.2789 22.1756 31.5151 19.9999 31.5151C17.8243 31.5151 16.0605 33.2789 16.0605 35.4545C16.0605 37.6302 17.8243 39.3939 19.9999 39.3939Z" fill="#666666"/>
<path d="M31.0909 17.7576C30.1212 15.5152 27.8788 13.9395 25.3334 13.9395C24.5455 13.9395 20.9091 13.9395 18.3031 13.9395C18.1818 14.3637 18.2424 14.5455 18.2424 16.9698C18.9697 16.9698 17.2121 16.9698 25.5152 16.9698C27.2727 16.9698 28.7273 18.5455 28.4849 20.3637C28.3637 21.2122 27.9394 21.8788 27.2727 22.3637C27.2727 25.5758 27.2727 25.1516 27.2727 25.7576C28.9697 25.2728 30.4243 24.0001 31.1515 22.2425C30.7879 21.5758 30.6061 20.7879 30.6061 19.9395C30.5455 19.2122 30.7273 18.4243 31.0909 17.7576Z" fill="#666666"/>
<path d="M35.4545 23.9393C37.6302 23.9393 39.3939 22.1756 39.3939 19.9999C39.3939 17.8243 37.6302 16.0605 35.4545 16.0605C33.2789 16.0605 31.5151 17.8243 31.5151 19.9999C31.5151 22.1756 33.2789 23.9393 35.4545 23.9393Z" fill="#666666"/>
<path d="M8.90912 22.2425C9.87881 24.4849 12.1212 26.0001 14.6667 26.0001C15.1515 26.0001 15.4546 26.0001 15.697 26.0001C15.8182 26.0001 15.9394 26.0001 16 26.0001C16.0606 26.0001 16.1212 26.0001 16.1212 26.0001C16.7879 26.0001 18.3031 26.0001 21.697 26.0001C21.8182 25.5152 21.7576 25.394 21.7576 22.9698C19.0303 22.9698 17.2121 22.9698 14.4849 22.9698C12.7273 22.9698 11.2728 21.394 11.5152 19.5758C11.6364 18.7273 12.0606 18.0607 12.7273 17.5758C12.7273 14.4243 12.7273 14.7879 12.7273 14.1819C11.0303 14.7273 9.57578 16.0001 8.84851 17.697C9.21215 18.3637 9.39397 19.1516 9.39397 20.0001C9.45457 20.7879 9.27275 21.5758 8.90912 22.2425Z" fill="#666666"/>
<path d="M4.54547 23.9393C6.72114 23.9393 8.48487 22.1756 8.48487 19.9999C8.48487 17.8243 6.72114 16.0605 4.54547 16.0605C2.36981 16.0605 0.606079 17.8243 0.606079 19.9999C0.606079 22.1756 2.36981 23.9393 4.54547 23.9393Z" fill="#666666"/>
</g>
<defs>
<clipPath id="clip0_336_2420">
<rect width="40" height="40" fill="white"/>
</clipPath>
</defs>
</svg>
