<svg width="40" height="40" viewBox="0 0 40 40" fill="none" xmlns="http://www.w3.org/2000/svg">
<path d="M8.26513 23.282C8.26736 21.0113 8.9261 18.7898 10.162 16.8849C11.3979 14.9801 13.1582 13.4732 15.2308 12.5459C15.1683 10.3824 14.0303 8.1876 12.0044 7.54357C11.4666 7.28097 9.68454 8.90045 9.81586 11.7517C9.31799 11.4227 8.75488 11.2051 8.1651 11.1139C8.07119 11.1067 7.97681 11.1197 7.88836 11.1521C7.7999 11.1844 7.71942 11.2354 7.65236 11.3015C7.57733 11.3765 5.88905 13.1586 6.90201 16.1975C6.10354 15.9183 5.24115 15.877 4.41965 16.0787C4.32974 16.1066 4.24718 16.1542 4.17796 16.218C4.10874 16.2819 4.0546 16.3603 4.01946 16.4476C3.98196 16.5414 3.15656 18.7675 5.13248 21.1248C4.26688 21.1497 3.42939 21.4376 2.73137 21.9501C2.6585 22.0087 2.59983 22.083 2.55976 22.1675C2.5197 22.2519 2.49927 22.3444 2.50002 22.4379C2.57543 23.2661 2.86536 24.0603 3.34123 24.7423C3.81711 25.4243 4.46249 25.9705 5.21377 26.3271C4.61502 26.5828 4.08563 26.9771 3.66929 27.4777C3.61329 27.5528 3.57517 27.6397 3.55783 27.7318C3.5405 27.8239 3.54441 27.9188 3.56926 28.0091C3.59426 28.1154 4.27584 30.5478 7.52107 31.2106C7.20787 31.4978 6.94568 31.8361 6.74568 32.2111C6.70553 32.2961 6.68471 32.389 6.68471 32.4831C6.68471 32.5771 6.70553 32.67 6.74568 32.7551C8.17135 35.5001 12.6672 35.8502 14.9869 33.9056C12.9769 32.9512 11.2786 31.4467 10.0889 29.5664C8.89916 27.6861 8.2668 25.5071 8.26513 23.282ZM34.8022 26.3271C37.4972 24.8202 37.8161 22.244 37.2846 21.9501C36.5866 21.4376 35.7491 21.1497 34.8835 21.1248C36.8594 18.7675 36.0341 16.5414 35.9965 16.4476C35.9614 16.3603 35.9073 16.2819 35.838 16.218C35.7688 16.1542 35.6863 16.1066 35.5963 16.0787C34.7748 15.877 33.9125 15.9183 33.114 16.1975C34.1269 13.1586 32.4387 11.3766 32.3636 11.3015C32.2966 11.2354 32.2161 11.1844 32.1276 11.1521C32.0392 11.1197 31.9448 11.1067 31.8509 11.1139C31.2611 11.2051 30.698 11.4227 30.2001 11.7517C30.3252 8.88792 28.5556 7.29971 28.0116 7.54361C27.9053 7.57486 25.4542 8.30018 24.8665 11.6142C24.8136 11.914 24.7801 12.2168 24.7664 12.5209C26.8313 13.4294 28.5912 14.9128 29.8361 16.7942C31.081 18.6755 31.7584 20.8753 31.7874 23.131C31.8164 25.3867 31.1958 27.6032 29.9997 29.5159C28.8035 31.4286 27.0824 32.9568 25.0415 33.9181C27.3488 35.8253 31.8259 35.5189 33.2703 32.7551C33.3104 32.6701 33.3313 32.5772 33.3313 32.4831C33.3313 32.3891 33.3104 32.2962 33.2703 32.2111C33.0703 31.8362 32.8081 31.4979 32.4949 31.2106C35.7401 30.5478 36.4217 28.1155 36.4467 28.0092C36.4716 27.9188 36.4755 27.824 36.4581 27.7319C36.4408 27.6398 36.4027 27.5529 36.3467 27.4777C35.9304 26.9772 35.401 26.5828 34.8022 26.3271Z" fill="#666666"/>
<path d="M30.5377 23.2822C30.5377 21.2033 29.9213 19.1711 28.7663 17.4425C27.6114 15.714 25.9698 14.3668 24.0491 13.5712C22.1285 12.7756 20.015 12.5675 17.9761 12.973C15.9371 13.3786 14.0642 14.3797 12.5942 15.8497C11.1242 17.3197 10.1232 19.1926 9.7176 21.2315C9.31203 23.2705 9.52018 25.3839 10.3157 27.3046C11.1113 29.2252 12.4585 30.8668 14.1871 32.0218C15.9156 33.1767 17.9478 33.7932 20.0267 33.7932C22.8135 33.7902 25.4853 32.6819 27.4559 30.7113C29.4264 28.7408 30.5348 26.069 30.5377 23.2822ZM25.6605 23.5885L24.2286 24.8391C24.1627 24.9 24.1136 24.9769 24.0862 25.0624C24.0588 25.1479 24.054 25.239 24.0723 25.3269L24.4975 27.1777C24.5682 27.5104 24.5409 27.8565 24.4189 28.174C24.2969 28.4915 24.0855 28.7669 23.8102 28.9667C23.535 29.1666 23.2077 29.2823 22.868 29.2999C22.5283 29.3176 22.1908 29.2363 21.8963 29.066L20.2643 28.0906C20.1867 28.0446 20.0982 28.0203 20.0079 28.0202C19.9177 28.0203 19.8292 28.0446 19.7516 28.0906C19.1888 28.3782 17.8945 29.3912 17.2254 29.3162C16.9634 29.3138 16.7051 29.253 16.4695 29.1382C16.2339 29.0235 16.0268 28.8577 15.8633 28.6529C15.6998 28.4481 15.5841 28.2094 15.5244 27.9542C15.4647 27.699 15.4627 27.4337 15.5184 27.1777L15.9436 25.3269C15.9619 25.239 15.9571 25.1479 15.9297 25.0624C15.9023 24.9769 15.8532 24.9 15.7873 24.8391L14.3554 23.5885C14.1015 23.3614 13.9191 23.0653 13.8305 22.7363C13.7418 22.4074 13.7507 22.0597 13.8561 21.7357C13.9614 21.4117 14.1587 21.1254 14.4238 20.9114C14.689 20.6975 15.0106 20.5653 15.3496 20.5309L17.2379 20.3558C17.3278 20.3489 17.4139 20.3172 17.4868 20.2642C17.5596 20.2112 17.6163 20.139 17.6506 20.0557L18.401 18.3111C18.535 17.9959 18.7588 17.727 19.0446 17.5379C19.3303 17.3489 19.6654 17.2482 20.008 17.2482C20.3506 17.2482 20.6856 17.3489 20.9713 17.5379C21.2571 17.727 21.4809 17.9959 21.6149 18.3111L22.3653 20.0557C22.3995 20.139 22.4563 20.2112 22.5291 20.2642C22.602 20.3171 22.6881 20.3489 22.7779 20.3558L24.6726 20.5309C25.0131 20.5626 25.3369 20.6935 25.6038 20.9074C25.8707 21.1212 26.069 21.4087 26.1741 21.7342C26.2793 22.0596 26.2866 22.4087 26.1954 22.7384C26.1041 23.068 25.9181 23.3636 25.6605 23.5885ZM17.0503 10.7389C17.0992 10.8495 17.1788 10.9436 17.2797 11.0102C17.3806 11.0767 17.4985 11.1128 17.6193 11.1141H22.3965C22.5174 11.1128 22.6353 11.0767 22.7362 11.0102C22.837 10.9436 22.9167 10.8495 22.9655 10.7389L24.585 7.06853C24.6329 6.9563 24.6471 6.83254 24.6258 6.71238C24.6045 6.59222 24.5486 6.48088 24.4651 6.39197C24.3815 6.30307 24.2738 6.24046 24.1551 6.2118C24.0365 6.18315 23.9121 6.18969 23.7972 6.23063L22.1776 6.81218L20.4581 5.04887C20.3376 4.93159 20.1761 4.86597 20.0079 4.86597C19.8398 4.86597 19.6783 4.93159 19.5577 5.04887L17.8382 6.81218L16.2187 6.23063C16.1037 6.18969 15.9793 6.18315 15.8607 6.2118C15.7421 6.24046 15.6344 6.30307 15.5508 6.39197C15.4672 6.48087 15.4113 6.59222 15.39 6.71238C15.3687 6.83254 15.3829 6.9563 15.4308 7.06853L17.0503 10.7389Z" fill="#666666"/>
<path d="M24.5538 21.7751L22.6654 21.6C22.3508 21.574 22.0492 21.4624 21.7935 21.2772C21.5378 21.092 21.3376 20.8404 21.2148 20.5495L20.4644 18.805C20.4274 18.7143 20.3642 18.6368 20.2829 18.5822C20.2016 18.5277 20.1059 18.4985 20.008 18.4985C19.9101 18.4985 19.8144 18.5277 19.7331 18.5822C19.6518 18.6368 19.5886 18.7143 19.5515 18.805L18.8012 20.5495C18.6783 20.8404 18.4782 21.092 18.2225 21.2772C17.9667 21.4624 17.6652 21.574 17.3505 21.6L15.4621 21.7751C15.3642 21.7832 15.271 21.8202 15.1941 21.8814C15.1173 21.9426 15.0604 22.0253 15.0307 22.119C14.9997 22.2109 14.9968 22.31 15.0224 22.4035C15.0481 22.4971 15.101 22.5809 15.1745 22.6442L16.6064 23.901C16.8441 24.1078 17.0214 24.3752 17.1193 24.6746C17.2173 24.9741 17.2324 25.2945 17.1629 25.6018L16.7377 27.4526C16.7165 27.5479 16.7237 27.6474 16.7584 27.7387C16.7931 27.83 16.8537 27.9091 16.9329 27.9663C17.012 28.0235 17.1062 28.0563 17.2037 28.0605C17.3013 28.0648 17.398 28.0404 17.4818 27.9904L19.1138 27.0212C19.3837 26.8586 19.6929 26.7726 20.008 26.7726C20.3231 26.7726 20.6322 26.8586 20.9021 27.0212L22.5341 27.9904C22.618 28.0404 22.7146 28.0648 22.8122 28.0606C22.9098 28.0563 23.0039 28.0235 23.0831 27.9663C23.1622 27.9091 23.2229 27.83 23.2576 27.7387C23.2922 27.6474 23.2994 27.5479 23.2782 27.4526L22.853 25.6018C22.7836 25.2945 22.7986 24.9741 22.8966 24.6746C22.9946 24.3752 23.1718 24.1078 23.4095 23.901L24.8414 22.6442C24.9149 22.5809 24.9679 22.4971 24.9935 22.4035C25.0191 22.31 25.0163 22.2109 24.9852 22.119C24.9555 22.0253 24.8986 21.9426 24.8218 21.8814C24.745 21.8202 24.6517 21.7832 24.5538 21.7751Z" fill="#666666"/>
</svg>
