<svg width="40" height="40" viewBox="0 0 40 40" fill="none" xmlns="http://www.w3.org/2000/svg">
<g clip-path="url(#clip0_336_2399)">
<path d="M38.5845 25.7561L36.0323 25.14C35.9845 25.02 35.9364 24.9001 35.8804 24.78L37.2483 22.54C37.4323 22.228 37.3925 21.828 37.1284 21.5641L34.8724 19.2761C34.6085 19.004 34.2005 18.9561 33.8804 19.1561L31.6483 20.5481C31.5364 20.5001 31.4163 20.4521 31.2964 20.404L30.7044 17.8521C30.6163 17.4841 30.2964 17.228 29.9284 17.228H26.7204C26.3524 17.228 26.0323 17.4841 25.9444 17.8521L25.3364 20.436C25.2245 20.4841 25.1124 20.532 25.0005 20.58L22.7925 19.204C22.4724 19.012 22.0644 19.0601 21.8005 19.324L19.5364 21.612C19.2804 21.8681 19.2323 22.2761 19.4245 22.588L20.8005 24.8521C20.7524 24.98 20.6964 25.1001 20.6563 25.22L18.1364 25.828C17.7765 25.9161 17.5204 26.236 17.5204 26.604V29.844C17.5204 30.212 17.7765 30.532 18.1364 30.62L20.6804 31.228C20.7284 31.3561 20.7845 31.4761 20.8405 31.596L19.4724 33.836C19.2804 34.148 19.3284 34.548 19.5845 34.812L21.8483 37.1001C22.1124 37.3721 22.5284 37.42 22.8405 37.22L25.0724 35.828C25.1845 35.8761 25.2964 35.924 25.4163 35.9721L26.0163 38.524C26.0964 38.8921 26.4245 39.148 26.7925 39.148H29.9925C30.3604 39.148 30.6884 38.8921 30.7684 38.524L31.3764 35.94C31.4964 35.8921 31.6085 35.844 31.7204 35.788L33.9284 37.1641C34.2483 37.3641 34.6563 37.3161 34.9204 37.0521L37.1845 34.7641C37.4405 34.5001 37.4884 34.1001 37.2964 33.788L35.9124 31.5161C35.9604 31.396 36.0163 31.2761 36.0643 31.1561L38.5845 30.5481C38.9444 30.4601 39.2005 30.14 39.2005 29.7721V26.532C39.2005 26.1641 38.9444 25.844 38.5845 25.7561ZM28.3604 32.596C25.9524 32.596 23.9925 30.62 23.9925 28.188C23.9925 25.7561 25.9524 23.78 28.3604 23.78C30.7685 23.78 32.7284 25.7561 32.7284 28.188C32.7284 30.62 30.7685 32.596 28.3604 32.596ZM11.0672 27.9907C10.7368 27.5469 10.5066 27.0359 10.402 26.5137C10.3052 26.0306 9.84308 25.7132 9.35132 25.8135C8.86828 25.9103 8.55439 26.3803 8.65117 26.8642C8.71547 27.1855 8.81814 27.5007 8.94217 27.8087C7.18438 27.759 6.0533 26.4127 5.68055 25.3296C5.41549 24.561 5.39456 23.5452 6.20458 23.21C6.65971 23.0216 6.87595 22.4994 6.68762 22.0438C6.49928 21.5878 5.97962 21.372 5.52099 21.5603C4.71839 21.8925 4.16713 22.5067 3.90315 23.2835C3.26491 22.6921 2.83985 21.7892 2.78056 20.7721C2.68726 19.156 3.48245 17.7936 4.90716 17.1275C5.35358 16.9187 5.54627 16.3872 5.33789 15.9408C5.12863 15.4944 4.60025 15.3017 4.15034 15.5101C3.07854 16.0112 2.24411 16.8035 1.69982 17.7705C1.12806 17.1055 0.799561 16.2562 0.799561 15.3514C0.799561 13.8818 1.66624 12.5464 3.01597 11.9461C3.4868 11.7308 3.99513 11.6218 4.52874 11.6218C5.02225 11.6218 5.42158 11.222 5.42158 10.7289C5.42158 9.6778 4.25353 9.75677 3.2915 9.97908C3.1107 8.43528 3.84148 7.10959 5.00394 6.37808C5.81401 5.86879 6.42242 5.86097 7.06254 5.80872C8.0851 5.73248 7.87516 4.44004 7.87516 4.58455C7.87516 2.5277 9.54837 0.854492 11.6052 0.854492C13.4696 0.854492 15.048 2.2416 15.2978 4.08581V9.17998L13.5662 10.1164C12.9447 10.4511 12.1833 10.1297 11.9801 9.46772C11.5796 8.16798 10.0876 7.02877 9.44548 8.13936C9.19786 8.56616 9.34346 9.11241 9.76983 9.36004C10.0122 9.50041 10.191 9.72493 10.2729 9.99261C10.5293 10.8249 11.1387 11.491 11.9444 11.8201C13.6708 12.5278 14.9492 11.2973 15.2978 11.2096V19.1134L15.1025 18.8949C13.6472 17.267 11.4256 16.5865 9.30946 17.117C8.83078 17.2369 8.54043 17.7217 8.66076 18.2C8.78022 18.6791 9.27285 18.9681 9.74368 18.8487C11.2163 18.4794 12.7596 18.9537 13.7719 20.085L15.2978 21.7922V29.2682C13.7719 29.8164 12.0599 29.3271 11.0672 27.9907Z" fill="#666666"/>
<path d="M29.3523 11.948C28.8883 11.732 28.3764 11.62 27.8404 11.62C27.3523 11.62 26.9523 11.22 26.9523 10.732C26.9523 9.67607 28.1123 9.75605 29.0803 9.97998C29.0963 9.83603 29.1203 9.69209 29.1203 9.54003C29.1203 8.25204 28.4643 7.06806 27.3684 6.37998C25.8404 5.42002 24.6562 6.32402 24.4883 4.90811C24.5203 2.30811 22.6963 0.852051 20.7684 0.852051C18.9043 0.852051 17.3203 2.24404 17.0723 4.08408V9.17998L18.8084 10.1161C19.0963 10.2761 19.4404 10.2921 19.7523 10.1641C20.0643 10.0441 20.2963 9.78799 20.3924 9.46807C20.6084 8.77207 21.0723 8.17998 21.7043 7.81201C22.7283 7.22002 23.6244 8.76406 22.6004 9.35605C21.8244 9.81201 22.1523 11.1161 20.4244 11.82C18.8643 12.4601 17.7283 11.5161 17.0723 11.212V19.1161C17.1523 19.0601 19.3844 16.196 23.0643 17.1161C23.4404 17.212 23.6963 17.532 23.7283 17.9001L24.2162 18.204L24.3844 17.4841C24.6482 16.388 25.6084 15.628 26.7203 15.628C27.4883 15.4521 29.8482 15.612 29.9283 15.628C30.5043 15.628 31.0482 15.836 31.4643 16.188C31.5363 15.9161 31.5684 15.636 31.5684 15.348C31.5684 13.8841 30.7043 12.548 29.3523 11.948ZM18.4084 20.4761L19.6004 19.2681C19.2322 19.4841 18.8963 19.7561 18.6004 20.0841L17.0723 21.796V24.556C17.2803 24.428 17.5043 24.332 17.7523 24.2761L18.4723 24.1001L18.0563 23.42C17.4803 22.4761 17.6162 21.2681 18.4084 20.4761Z" fill="#666666"/>
</g>
<defs>
<clipPath id="clip0_336_2399">
<rect width="40" height="40" fill="white"/>
</clipPath>
</defs>
</svg>
