<svg width="50" height="50" viewBox="0 0 50 50" fill="none" xmlns="http://www.w3.org/2000/svg">
<rect width="50" height="50" rx="25" fill="#F35418"/>
<path d="M22 30.75H28C28.2128 30.75 28.391 30.6782 28.5345 30.5345C28.6782 30.391 28.75 30.2128 28.75 30C28.75 29.7872 28.6782 29.609 28.5345 29.4655C28.391 29.3218 28.2128 29.25 28 29.25H22C21.7872 29.25 21.609 29.3218 21.4655 29.4655C21.3218 29.609 21.25 29.7872 21.25 30C21.25 30.2128 21.3218 30.391 21.4655 30.5345C21.609 30.6782 21.7872 30.75 22 30.75ZM22 26.75H28C28.2128 26.75 28.391 26.6782 28.5345 26.5345C28.6782 26.391 28.75 26.2128 28.75 26C28.75 25.7872 28.6782 25.609 28.5345 25.4655C28.391 25.3218 28.2128 25.25 28 25.25H22C21.7872 25.25 21.609 25.3218 21.4655 25.4655C21.3218 25.609 21.25 25.7872 21.25 26C21.25 26.2128 21.3218 26.391 21.4655 26.5345C21.609 26.6782 21.7872 26.75 22 26.75ZM19.3077 34.5C18.8026 34.5 18.375 34.325 18.025 33.975C17.675 33.625 17.5 33.1974 17.5 32.6923V17.3077C17.5 16.8026 17.675 16.375 18.025 16.025C18.375 15.675 18.8026 15.5 19.3077 15.5H26.502C26.743 15.5 26.9748 15.5468 27.1973 15.6405C27.4196 15.734 27.6128 15.8628 27.777 16.027L31.973 20.223C32.1372 20.3872 32.266 20.5804 32.3595 20.8027C32.4532 21.0252 32.5 21.257 32.5 21.498V32.6923C32.5 33.1974 32.325 33.625 31.975 33.975C31.625 34.325 31.1974 34.5 30.6923 34.5H19.3077ZM26.5 20.596C26.5 18.61 24.89 17 22.904 17H19.3077C19.2307 17 19.1603 17.0321 19.0963 17.0962C19.0321 17.1602 19 17.2307 19 17.3077V32.6923C19 32.7693 19.0321 32.8398 19.0963 32.9038C19.1603 32.9679 19.2307 33 19.3077 33H30.6923C30.7692 33 30.8398 32.9679 30.9038 32.9038C30.9679 32.8398 31 32.7693 31 32.6923V25.096C31 23.11 29.39 21.5 27.404 21.5C27.1462 21.5 26.9311 21.4138 26.7587 21.2413C26.5862 21.0689 26.5 20.8538 26.5 20.596Z" fill="white"/>
</svg>
