<svg width="126" height="155" viewBox="0 0 126 155" fill="none" xmlns="http://www.w3.org/2000/svg">
<rect x="15" y="14.0234" width="20" height="20" rx="10" fill="#F35418" fill-opacity="0.2"/>
<rect x="55" y="14.0234" width="20" height="20" rx="10" fill="#F35418" fill-opacity="0.2"/>
<rect x="95" y="14.0234" width="20" height="20" rx="10" fill="#F35418" fill-opacity="0.2"/>
<rect x="15" y="54.0234" width="20" height="20" rx="10" fill="#F35418" fill-opacity="0.2"/>
<rect x="55" y="54.0234" width="20" height="20" rx="10" fill="#F35418" fill-opacity="0.2"/>
<rect x="95" y="54.0234" width="20" height="20" rx="10" fill="#F35418" fill-opacity="0.2"/>
<rect x="15" y="94.0234" width="20" height="20" rx="10" fill="#F35418" fill-opacity="0.2"/>
<rect x="55" y="94.0234" width="20" height="20" rx="10" fill="#F35418" fill-opacity="0.2"/>
<rect x="95" y="94.0234" width="20" height="20" rx="10" fill="#F35418" fill-opacity="0.2"/>
<rect x="15" y="134.023" width="20" height="20" rx="10" fill="#F35418" fill-opacity="0.2"/>
<rect x="55" y="134.023" width="20" height="20" rx="10" fill="#F35418" fill-opacity="0.2"/>
<rect x="95" y="134.023" width="20" height="20" rx="10" fill="#F35418" fill-opacity="0.2"/>
</svg>
