<svg width="50" height="50" viewBox="0 0 50 50" fill="none" xmlns="http://www.w3.org/2000/svg">
<rect width="50" height="50" rx="25" fill="#F35418"/>
<path d="M17.25 32.5C16.7642 32.5 16.351 32.3298 16.0105 31.9895C15.6702 31.649 15.5 31.2358 15.5 30.75V19.3077C15.5 18.8219 15.6798 18.3992 16.0395 18.0395C16.3992 17.6798 16.8219 17.5 17.3077 17.5H22.05C22.291 17.5 22.5227 17.5468 22.7453 17.6405C22.9676 17.734 23.1608 17.8628 23.325 18.027L24.798 19.5H33.6635C33.8763 19.5 34.0545 19.5718 34.198 19.7155C34.3417 19.859 34.4135 20.0372 34.4135 20.25C34.4135 20.4628 34.3417 20.641 34.198 20.7845C34.0545 20.9282 33.8763 21 33.6635 21H24.1845L22.1845 19H17.3077C17.2179 19 17.1442 19.0288 17.0865 19.0865C17.0288 19.1442 17 19.2179 17 19.3077V31C17 30.9102 17.0177 30.8765 17.053 30.899C17.0882 30.9215 17.1346 30.9487 17.1923 30.9808L19.1385 24.4827C19.259 24.0943 19.4807 23.7821 19.8038 23.5462C20.1269 23.3102 20.4859 23.1923 20.8808 23.1923H33.7423C34.3551 23.1923 34.8413 23.4358 35.201 23.923C35.5605 24.4102 35.655 24.9416 35.4845 25.5173L33.7615 31.2578C33.6473 31.6333 33.4336 31.9342 33.1203 32.1605C32.8067 32.3868 32.459 32.5 32.077 32.5H17.25ZM18.7635 31H32.0385C32.109 31 32.1715 30.9808 32.226 30.9423C32.2805 30.9038 32.3173 30.8493 32.3365 30.7788L34.0405 25.0865C34.0725 24.984 34.0564 24.8927 33.9923 24.8125C33.9283 24.7323 33.8449 24.6923 33.7423 24.6923H20.8808C20.8103 24.6923 20.7478 24.7115 20.6933 24.75C20.6388 24.7885 20.6019 24.843 20.5827 24.9135L18.7635 31ZM18.7635 31L20.5827 24.9135C20.6019 24.843 20.6179 24.7885 20.6308 24.75L20.65 24.6923L20.6163 24.8125C20.5939 24.8927 20.5667 24.984 20.5345 25.0865L18.8307 30.7788C18.8116 30.8493 18.7956 30.9038 18.7827 30.9423L18.7635 31Z" fill="white"/>
</svg>
