<svg width="20" height="20" viewBox="0 0 20 20" fill="none" xmlns="http://www.w3.org/2000/svg">
<path d="M15.1161 18.0169C14.3828 18.2335 13.5161 18.3335 12.4995 18.3335H7.49948C6.48281 18.3335 5.61615 18.2335 4.88281 18.0169C5.06615 15.8502 7.29115 14.1418 9.99948 14.1418C12.7078 14.1418 14.9328 15.8502 15.1161 18.0169Z" stroke="white" stroke-width="1.5" stroke-linecap="round" stroke-linejoin="round"/>
<path d="M12.4984 1.66687H7.49837C3.33171 1.66687 1.66504 3.33354 1.66504 7.5002V12.5002C1.66504 15.6502 2.61504 17.3752 4.88171 18.0169C5.06504 15.8502 7.29004 14.1418 9.99837 14.1418C12.7067 14.1418 14.9317 15.8502 15.115 18.0169C17.3817 17.3752 18.3317 15.6502 18.3317 12.5002V7.5002C18.3317 3.33354 16.665 1.66687 12.4984 1.66687ZM9.99837 11.8085C8.34837 11.8085 7.01504 10.4669 7.01504 8.81689C7.01504 7.16689 8.34837 5.83354 9.99837 5.83354C11.6484 5.83354 12.9817 7.16689 12.9817 8.81689C12.9817 10.4669 11.6484 11.8085 9.99837 11.8085Z" stroke="white" stroke-width="1.5" stroke-linecap="round" stroke-linejoin="round"/>
<path d="M12.9813 8.81648C12.9813 10.4665 11.648 11.8081 9.99798 11.8081C8.34798 11.8081 7.01465 10.4665 7.01465 8.81648C7.01465 7.16648 8.34798 5.83313 9.99798 5.83313C11.648 5.83313 12.9813 7.16648 12.9813 8.81648Z" stroke="white" stroke-width="1.5" stroke-linecap="round" stroke-linejoin="round"/>
</svg>
