<svg width="40" height="40" viewBox="0 0 40 40" fill="none" xmlns="http://www.w3.org/2000/svg">
<rect x="0.357143" y="0.357143" width="39.2857" height="39.2857" rx="19.6429" stroke="white" stroke-opacity="0.1" stroke-width="0.714286"/>
<g clip-path="url(#clip0_299_546)">
<path d="M24.8447 27.0153H15.2487C13.9817 27.0153 12.9509 25.9867 12.9509 24.7223V15.1505C12.9509 13.886 13.9817 12.8574 15.2487 12.8574H24.8447C26.1114 12.8574 27.1421 13.886 27.1421 15.1505V24.7226C27.1421 25.9871 26.1114 27.0153 24.8447 27.0153ZM17.7462 24.5618H17.7491V18.4549H15.8491V24.5618H17.7458H17.7462ZM16.7978 17.6208C16.9423 17.621 17.0854 17.5927 17.2189 17.5375C17.3524 17.4823 17.4737 17.4013 17.5758 17.2991C17.678 17.197 17.7589 17.0757 17.8141 16.9422C17.8693 16.8087 17.8976 16.6656 17.8974 16.5212C17.8969 16.2297 17.7808 15.9503 17.5747 15.7442C17.3686 15.5381 17.0893 15.4221 16.7978 15.4215C16.5062 15.4216 16.2266 15.5375 16.0204 15.7437C15.8142 15.9499 15.6983 16.2295 15.6982 16.5212C15.6983 16.8128 15.8142 17.0924 16.0204 17.2986C16.2266 17.5048 16.5062 17.6207 16.7978 17.6208ZM24.8557 24.5622V21.2142C24.8557 19.5691 24.4985 18.3036 22.5791 18.3036C21.6564 18.3036 21.037 18.8091 20.7824 19.2889H20.7568V18.4549H18.9374V24.5618H20.8341V21.5398C20.8341 20.7428 20.9854 19.9717 21.9733 19.9717C22.9447 19.9717 22.959 20.8831 22.959 21.5911V24.5618H24.8557V24.5622Z" fill="white"/>
</g>
<defs>
<clipPath id="clip0_299_546">
<rect width="14.2857" height="14.2857" fill="white" transform="translate(12.8569 12.8579)"/>
</clipPath>
</defs>
</svg>
