<svg width="25" height="25" viewBox="0 0 25 25" fill="none" xmlns="http://www.w3.org/2000/svg">
<path d="M11.1766 5.26496C11.5932 3.98297 13.4069 3.98297 13.8234 5.26496L14.9993 8.88396C15.1856 9.45728 15.7198 9.84546 16.3227 9.84546H20.1279C21.4759 9.84546 22.0363 11.5704 20.9458 12.3627L17.8673 14.5993C17.3796 14.9537 17.1755 15.5818 17.3618 16.1551L18.5377 19.7741C18.9542 21.0561 17.4869 22.1221 16.3964 21.3298L13.3179 19.0931C12.8302 18.7388 12.1698 18.7388 11.6821 19.0931L8.60361 21.3298C7.51308 22.1221 6.04579 21.0561 6.46233 19.7741L7.63822 16.1551C7.8245 15.5818 7.62043 14.9537 7.13273 14.5993L4.05423 12.3627C2.9637 11.5704 3.52415 9.84546 4.87212 9.84546H8.67736C9.28019 9.84546 9.81446 9.45728 10.0007 8.88396L11.1766 5.26496Z" fill="#FF9F29"/>
</svg>
