<svg width="14" height="14" viewBox="0 0 14 14" fill="none" xmlns="http://www.w3.org/2000/svg">
<path d="M13.4681 5.47795C13.3825 5.21467 13.149 5.02827 12.8738 5.00337L9.12048 4.66262L7.63714 1.18983C7.52762 0.934691 7.27843 0.77002 7.00107 0.77002C6.72371 0.77002 6.47442 0.934691 6.3656 1.18983L4.88226 4.66262L1.12834 5.00337C0.853159 5.02877 0.620139 5.21517 0.534033 5.47795C0.448424 5.74122 0.527486 6.02999 0.735608 6.21252L3.57282 8.70036L2.73627 12.3848C2.67506 12.6558 2.78022 12.9359 3.005 13.0984C3.12583 13.1862 3.26778 13.23 3.41023 13.23C3.53265 13.23 3.65516 13.1975 3.76458 13.132L7.00107 11.1968L10.237 13.132C10.4744 13.2739 10.7728 13.2609 10.9971 13.0984C11.2219 12.9359 11.3271 12.6558 11.2659 12.3848L10.4293 8.70036L13.2665 6.21252C13.4746 6.02999 13.5537 5.74182 13.4681 5.47795Z" fill="#F35418"/>
</svg>
