<svg width="598" height="296" viewBox="0 0 598 296" fill="none" xmlns="http://www.w3.org/2000/svg">
<g clip-path="url(#clip0_336_1458)">
<rect width="598" height="296" rx="16" fill="#F8F2F1"/>
<path opacity="0.3" d="M365.449 22.3673C369.395 22.3591 373.043 24.4654 375.009 27.8868L440.985 142.705C442.939 146.105 442.935 150.289 440.974 153.685L374.477 268.86C372.517 272.257 368.895 274.353 364.973 274.361L232.55 274.633C228.604 274.641 224.956 272.535 222.99 269.113L157.015 154.296C155.061 150.896 155.065 146.711 157.026 143.315L223.523 28.1395C225.484 24.7431 229.105 22.6479 233.027 22.6398L365.449 22.3673Z" fill="#F35418" fill-opacity="0.1" stroke="#F35418" stroke-width="2"/>
<path d="M442.5 148.5H619.5" stroke="#F6C3B0" stroke-width="2"/>
<path d="M-21 148.5H156" stroke="#F6C3B0" stroke-width="2"/>
<path opacity="0.3" d="M344.59 58.5303C348.522 58.5293 352.156 60.6275 354.121 64.0332L399.669 142.973C401.633 146.376 401.632 150.568 399.668 153.97L354.071 232.946C352.107 236.348 348.477 238.445 344.548 238.446L253.41 238.47C249.478 238.471 245.844 236.373 243.879 232.967L198.33 154.027C196.367 150.624 196.368 146.432 198.332 143.03L243.929 64.0541C245.893 60.6519 249.523 58.5555 253.452 58.5543L344.59 58.5303Z" fill="#F35418" fill-opacity="0.1" stroke="#F35418" stroke-width="2"/>
<path opacity="0.3" d="M325.762 91.634C329.692 91.634 333.323 93.7308 335.288 97.134L361.84 143.122C363.805 146.525 363.805 150.718 361.84 154.122L335.288 200.11C333.323 203.513 329.692 205.61 325.762 205.61L272.66 205.61C268.73 205.609 265.098 203.513 263.133 200.11L236.583 154.122C234.618 150.719 234.618 146.526 236.583 143.122L263.134 97.1341L263.323 96.819C265.326 93.6017 268.853 91.634 272.66 91.634L325.762 91.634Z" fill="#F35418" fill-opacity="0.1" stroke="#F35418" stroke-width="2"/>
<rect x="272" y="122" width="54" height="54" rx="27" fill="#F35418"/>
<path d="M298 132C298 141.389 305.611 149 315 149C305.611 149 298 156.611 298 166C298 156.611 290.389 149 281 149C290.389 149 298 141.389 298 132Z" fill="white"/>
<path d="M312 156C312 159.314 314.686 162 318 162C314.686 162 312 164.686 312 168C312 164.686 309.314 162 306 162C309.314 162 312 159.314 312 156Z" fill="white"/>
</g>
<defs>
<clipPath id="clip0_336_1458">
<rect width="598" height="296" rx="16" fill="white"/>
</clipPath>
</defs>
</svg>
