<svg width="50" height="50" viewBox="0 0 50 50" fill="none" xmlns="http://www.w3.org/2000/svg">
<rect width="50" height="50" rx="25" fill="#F35418"/>
<path d="M15.0673 26.1788C14.9019 26.0673 14.8033 25.9144 14.7713 25.7203C14.7391 25.5259 14.7737 25.341 14.875 25.1655L17.8193 20.4385C18.1474 19.9129 18.6154 19.6308 19.223 19.5923C19.8307 19.5539 20.332 19.7674 20.727 20.2328L21.7885 21.4655C21.859 21.5489 21.9472 21.5857 22.053 21.576C22.1587 21.5664 22.2372 21.5167 22.2885 21.427L24.5 17.8365C24.8449 17.2674 25.3461 16.977 26.0038 16.9655C26.6614 16.9539 27.1711 17.2275 27.5328 17.7865L28.6443 19.4655C28.7083 19.5552 28.7964 19.6 28.9088 19.6C29.0209 19.6 29.1059 19.5519 29.1635 19.4558L31.848 15.1788C31.9597 14.9929 32.1244 14.8789 32.3423 14.8365C32.5603 14.7942 32.7571 14.8423 32.9328 14.9808C33.0916 15.0923 33.1871 15.2419 33.2193 15.4298C33.2513 15.6176 33.2166 15.7994 33.1153 15.975L30.4308 20.252C30.0859 20.8109 29.5847 21.0903 28.927 21.0903C28.2694 21.0903 27.7597 20.8192 27.398 20.277L26.2963 18.6173C26.2321 18.5211 26.1439 18.4747 26.0318 18.478C25.9196 18.4812 25.8347 18.5309 25.777 18.627L23.5653 22.2078C23.2474 22.7334 22.783 23.0196 22.172 23.0663C21.5612 23.1131 21.0584 22.9039 20.6635 22.4385L19.5865 21.1808C19.516 21.0974 19.4295 21.0606 19.327 21.0703C19.2244 21.0798 19.1474 21.1294 19.0963 21.2193L16.152 25.9713C16.0404 26.1571 15.8756 26.2728 15.6578 26.3183C15.4398 26.3638 15.2429 26.3173 15.0673 26.1788ZM27.3078 31C28.0589 31 28.6939 30.7407 29.2125 30.222C29.7312 29.7035 29.9905 29.0686 29.9905 28.3173C29.9905 27.5659 29.7312 26.931 29.2125 26.4125C28.6939 25.8939 28.0589 25.6345 27.3078 25.6345C26.5564 25.6345 25.9214 25.8939 25.4028 26.4125C24.8843 26.931 24.625 27.5659 24.625 28.3173C24.625 29.0686 24.8843 29.7035 25.4028 30.222C25.9214 30.7407 26.5564 31 27.3078 31ZM27.3078 32.5C26.1474 32.5 25.1603 32.0929 24.3463 31.2788C23.5321 30.4648 23.125 29.4776 23.125 28.3173C23.125 27.1571 23.5321 26.1699 24.3463 25.3558C25.1603 24.5418 26.1474 24.1348 27.3078 24.1348C28.4679 24.1348 29.4551 24.5418 30.2693 25.3558C31.0833 26.1699 31.4903 27.1571 31.4903 28.3173C31.4903 28.7571 31.4255 29.1795 31.296 29.5845C31.0765 30.2721 31.1078 31.0747 31.6171 31.5862L32.9635 32.9385C33.1019 33.077 33.171 33.2494 33.171 33.4558C33.171 33.6621 33.1019 33.8345 32.9635 33.973C32.825 34.1115 32.6509 34.1808 32.4413 34.1808C32.2318 34.1808 32.0578 34.1115 31.9193 33.973L30.5638 32.6234C30.0541 32.1159 29.2548 32.0852 28.5703 32.3058C28.1683 32.4353 27.7474 32.5 27.3078 32.5Z" fill="white"/>
</svg>
