<svg width="598" height="296" viewBox="0 0 598 296" fill="none" xmlns="http://www.w3.org/2000/svg">
<g clip-path="url(#clip0_336_1390)">
<rect width="598" height="296" rx="16" fill="#F8F2F1"/>
<g clip-path="url(#clip1_336_1390)">
<rect x="15" y="109.457" width="392" height="330" rx="8" transform="rotate(-15 15 109.457)" fill="white"/>
<mask id="path-4-inside-1_336_1390" fill="white">
<path d="M-217.788 171.832L46.8755 100.916L59.8165 149.212L-204.847 220.129L-217.788 171.832Z"/>
</mask>
<path d="M-217.788 171.832L46.8755 100.916L59.8165 149.212L-204.847 220.129L-217.788 171.832Z" fill="#F5F6FA"/>
<path d="M59.8165 149.212L59.5577 148.246L-205.106 219.163L-204.847 220.129L-204.588 221.095L60.0753 150.178L59.8165 149.212Z" fill="#EBECEF" mask="url(#path-4-inside-1_336_1390)"/>
<mask id="path-6-inside-2_336_1390" fill="white">
<path d="M-204.847 220.129L59.8165 149.212L74.3104 203.304L-190.353 274.221L-204.847 220.129Z"/>
</mask>
<path d="M74.3104 203.304L74.0516 202.338L-190.612 273.255L-190.353 274.221L-190.094 275.186L74.5692 204.27L74.3104 203.304Z" fill="#EBECEF" mask="url(#path-6-inside-2_336_1390)"/>
<mask id="path-8-inside-3_336_1390" fill="white">
<path d="M-190.353 274.221L74.3103 203.304L88.8042 257.396L-175.859 328.312L-190.353 274.221Z"/>
</mask>
<path d="M88.8042 257.396L88.5454 256.43L-176.118 327.347L-175.859 328.312L-175.601 329.278L89.063 258.362L88.8042 257.396Z" fill="#EBECEF" mask="url(#path-8-inside-3_336_1390)"/>
<mask id="path-10-inside-4_336_1390" fill="white">
<path d="M-175.859 328.312L88.8042 257.396L103.298 311.488L-161.366 382.404L-175.859 328.312Z"/>
</mask>
<path d="M103.298 311.488L103.039 310.522L-161.624 381.438L-161.366 382.404L-161.107 383.37L103.557 312.454L103.298 311.488Z" fill="#EBECEF" mask="url(#path-10-inside-4_336_1390)"/>
<mask id="path-12-inside-5_336_1390" fill="white">
<path d="M46.8755 100.916L215.913 55.6227L228.854 103.919L59.8165 149.212L46.8755 100.916Z"/>
</mask>
<path d="M46.8755 100.916L215.913 55.6227L228.854 103.919L59.8165 149.212L46.8755 100.916Z" fill="#F5F6FA"/>
<path d="M228.854 103.919L228.595 102.953L59.5577 148.246L59.8165 149.212L60.0753 150.178L229.112 104.885L228.854 103.919Z" fill="#EBECEF" mask="url(#path-12-inside-5_336_1390)"/>
<path d="M120.414 104.423C120.216 103.919 119.867 103.581 119.366 103.41C118.864 103.234 118.291 103.233 117.647 103.405C117.186 103.529 116.807 103.709 116.51 103.945C116.211 104.178 116.003 104.446 115.884 104.749C115.767 105.046 115.752 105.354 115.837 105.673C115.909 105.94 116.033 106.154 116.209 106.314C116.389 106.474 116.599 106.592 116.839 106.669C117.082 106.741 117.334 106.789 117.596 106.813C117.856 106.834 118.103 106.842 118.338 106.838L119.512 106.829C119.894 106.821 120.293 106.841 120.71 106.89C121.127 106.939 121.53 107.043 121.917 107.202C122.305 107.361 122.646 107.595 122.941 107.904C123.239 108.213 123.456 108.619 123.591 109.124C123.762 109.761 123.749 110.37 123.552 110.953C123.358 111.534 122.989 112.05 122.444 112.502C121.902 112.953 121.192 113.297 120.314 113.532C119.472 113.757 118.708 113.819 118.022 113.717C117.336 113.614 116.753 113.364 116.274 112.967C115.794 112.566 115.445 112.033 115.227 111.365L116.929 110.91C117.07 111.307 117.293 111.61 117.596 111.819C117.902 112.023 118.253 112.143 118.651 112.178C119.051 112.208 119.469 112.164 119.904 112.048C120.383 111.919 120.79 111.73 121.123 111.48C121.458 111.225 121.698 110.934 121.841 110.605C121.983 110.273 122.006 109.924 121.907 109.558C121.818 109.225 121.65 108.978 121.403 108.817C121.16 108.654 120.858 108.547 120.499 108.494C120.143 108.44 119.75 108.414 119.319 108.416L117.894 108.41C116.928 108.406 116.118 108.237 115.464 107.902C114.813 107.567 114.383 107.007 114.173 106.224C114 105.577 114.024 104.964 114.246 104.387C114.468 103.81 114.843 103.308 115.371 102.88C115.899 102.448 116.539 102.132 117.293 101.93C118.054 101.726 118.761 101.679 119.415 101.791C120.071 101.901 120.631 102.145 121.093 102.523C121.554 102.898 121.873 103.385 122.049 103.985L120.414 104.423ZM127.995 102.239L128.348 103.556L123.743 104.79L123.39 103.472L127.995 102.239ZM124.084 101.122L125.725 100.682L127.861 108.657C127.947 108.975 128.059 109.202 128.197 109.337C128.334 109.469 128.486 109.544 128.651 109.563C128.82 109.576 128.993 109.559 129.173 109.511C129.304 109.476 129.417 109.436 129.511 109.391C129.605 109.346 129.678 109.311 129.73 109.285L130.389 110.562C130.304 110.624 130.179 110.696 130.013 110.78C129.848 110.867 129.634 110.948 129.372 111.022C128.942 111.145 128.519 111.176 128.103 111.115C127.686 111.054 127.318 110.887 126.997 110.612C126.676 110.337 126.448 109.945 126.312 109.437L124.084 101.122ZM134.572 109.711C134.038 109.855 133.528 109.885 133.044 109.803C132.558 109.718 132.138 109.519 131.784 109.206C131.433 108.892 131.183 108.459 131.035 107.906C130.908 107.43 130.894 107.014 130.995 106.658C131.096 106.302 131.277 105.992 131.54 105.73C131.803 105.467 132.115 105.239 132.474 105.044C132.834 104.85 133.207 104.675 133.593 104.521C134.082 104.327 134.479 104.17 134.784 104.049C135.088 103.924 135.299 103.799 135.419 103.673C135.538 103.547 135.571 103.385 135.518 103.187L135.508 103.149C135.379 102.67 135.144 102.335 134.803 102.144C134.465 101.952 134.031 101.927 133.501 102.069C132.948 102.217 132.546 102.456 132.293 102.787C132.043 103.113 131.897 103.44 131.856 103.769L130.22 103.831C130.265 103.269 130.422 102.784 130.689 102.376C130.958 101.962 131.305 101.622 131.727 101.356C132.149 101.086 132.614 100.883 133.123 100.747C133.459 100.657 133.827 100.601 134.225 100.581C134.626 100.556 135.02 100.603 135.405 100.724C135.794 100.843 136.146 101.068 136.462 101.399C136.777 101.726 137.017 102.197 137.182 102.812L138.682 108.41L137.079 108.84L136.771 107.687L136.705 107.705C136.656 107.945 136.552 108.196 136.395 108.458C136.238 108.72 136.011 108.963 135.714 109.188C135.417 109.412 135.037 109.587 134.572 109.711ZM134.576 108.299C135.029 108.177 135.393 107.984 135.667 107.718C135.945 107.451 136.129 107.151 136.22 106.817C136.313 106.478 136.316 106.142 136.226 105.809L135.935 104.723C135.892 104.797 135.794 104.882 135.639 104.979C135.487 105.07 135.31 105.163 135.108 105.256C134.904 105.346 134.706 105.432 134.512 105.516C134.318 105.595 134.156 105.662 134.025 105.717C133.718 105.842 133.445 105.988 133.207 106.154C132.973 106.318 132.801 106.512 132.692 106.733C132.585 106.95 132.571 107.205 132.649 107.497C132.758 107.903 132.99 108.17 133.346 108.299C133.701 108.423 134.111 108.423 134.576 108.299ZM142.544 98.3402L142.897 99.6573L138.292 100.891L137.939 99.574L142.544 98.3402ZM138.633 97.2234L140.274 96.7837L142.411 104.758C142.496 105.076 142.608 105.303 142.746 105.439C142.883 105.571 143.035 105.646 143.201 105.664C143.369 105.678 143.543 105.661 143.722 105.613C143.854 105.577 143.967 105.537 144.06 105.493C144.154 105.448 144.227 105.413 144.279 105.387L144.939 106.663C144.853 106.725 144.728 106.798 144.562 106.882C144.397 106.969 144.184 107.05 143.921 107.124C143.491 107.247 143.068 107.278 142.652 107.217C142.236 107.156 141.867 106.988 141.546 106.713C141.226 106.438 140.997 106.047 140.861 105.538L138.633 97.2234ZM151.021 101.357L149.699 96.4229L151.346 95.9818L153.604 104.412L151.991 104.844L151.6 103.384L151.512 103.408C151.439 103.91 151.228 104.368 150.88 104.783C150.535 105.193 150.046 105.483 149.413 105.652C148.872 105.797 148.361 105.807 147.88 105.681C147.402 105.55 146.981 105.281 146.616 104.872C146.256 104.463 145.982 103.911 145.796 103.216L144.359 97.8538L146 97.4141L147.384 102.578C147.538 103.153 147.82 103.568 148.229 103.823C148.639 104.078 149.098 104.137 149.606 104.001C149.914 103.918 150.198 103.76 150.461 103.525C150.727 103.289 150.919 102.988 151.037 102.623C151.159 102.257 151.153 101.835 151.021 101.357ZM160.419 95.7564L159.002 96.4184C158.889 96.2448 158.742 96.0901 158.56 95.9545C158.382 95.8178 158.165 95.725 157.909 95.676C157.653 95.627 157.355 95.6481 157.014 95.7393C156.55 95.8638 156.19 96.072 155.935 96.3639C155.679 96.6521 155.594 96.959 155.681 97.2846C155.757 97.5664 155.922 97.7653 156.177 97.8814C156.431 97.9974 156.806 98.0481 157.3 98.0334L158.721 97.9819C159.545 97.9533 160.197 98.0747 160.678 98.3459C161.158 98.6172 161.478 99.051 161.638 99.6474C161.773 100.152 161.748 100.642 161.561 101.115C161.377 101.584 161.055 102 160.595 102.362C160.139 102.724 159.57 102.995 158.89 103.178C157.946 103.431 157.122 103.436 156.418 103.193C155.712 102.947 155.192 102.469 154.857 101.759L156.378 101.092C156.588 101.479 156.875 101.737 157.239 101.867C157.602 101.993 158.031 101.99 158.525 101.858C159.062 101.714 159.462 101.487 159.725 101.178C159.986 100.865 160.073 100.545 159.985 100.22C159.915 99.9561 159.757 99.7612 159.511 99.6349C159.269 99.5076 158.935 99.4521 158.508 99.4685L156.997 99.538C156.162 99.5695 155.504 99.44 155.022 99.1495C154.544 98.858 154.225 98.4122 154.064 97.8122C153.931 97.3146 153.953 96.8419 154.131 96.3942C154.309 95.9465 154.615 95.5527 155.05 95.2128C155.483 94.8692 156.016 94.6126 156.649 94.443C157.56 94.1989 158.331 94.2043 158.96 94.4592C159.588 94.7105 160.074 95.1429 160.419 95.7564Z" fill="#111827"/>
<mask id="path-15-inside-6_336_1390" fill="white">
<path d="M59.8165 149.212L228.854 103.919L243.347 158.011L74.3104 203.304L59.8165 149.212Z"/>
</mask>
<path d="M243.347 158.011L243.089 157.045L74.0516 202.338L74.3104 203.304L74.5692 204.27L243.606 158.977L243.347 158.011Z" fill="#EBECEF" mask="url(#path-15-inside-6_336_1390)"/>
<path d="M97.2821 155.738C96.7103 153.604 97.9767 151.411 100.111 150.839L194.771 125.475C196.905 124.903 199.098 126.169 199.67 128.303L205.882 151.485C206.454 153.619 205.187 155.812 203.053 156.384L108.393 181.748C106.259 182.32 104.066 181.054 103.494 178.92L97.2821 155.738Z" fill="#45B369" fill-opacity="0.15"/>
<path d="M124.823 158.845L123.324 159.246C123.181 158.942 122.998 158.689 122.776 158.487C122.554 158.286 122.307 158.131 122.034 158.022C121.761 157.914 121.472 157.854 121.167 157.843C120.866 157.831 120.558 157.867 120.244 157.951C119.678 158.103 119.208 158.381 118.837 158.786C118.468 159.191 118.228 159.703 118.116 160.323C118.007 160.942 118.059 161.649 118.272 162.443C118.487 163.243 118.796 163.884 119.199 164.366C119.606 164.848 120.071 165.169 120.595 165.331C121.119 165.492 121.661 165.498 122.221 165.348C122.532 165.265 122.815 165.144 123.071 164.986C123.33 164.824 123.55 164.63 123.733 164.402C123.916 164.175 124.053 163.92 124.146 163.638C124.241 163.352 124.277 163.044 124.253 162.714L125.753 162.317C125.802 162.822 125.766 163.308 125.645 163.777C125.526 164.241 125.326 164.668 125.047 165.059C124.769 165.446 124.423 165.78 124.008 166.063C123.593 166.346 123.115 166.56 122.574 166.705C121.723 166.933 120.91 166.934 120.136 166.709C119.361 166.481 118.68 166.041 118.094 165.388C117.51 164.735 117.078 163.885 116.798 162.838C116.516 161.788 116.467 160.835 116.65 159.98C116.831 159.121 117.201 158.401 117.759 157.819C118.316 157.234 119.019 156.828 119.867 156.601C120.389 156.461 120.896 156.406 121.387 156.435C121.881 156.461 122.348 156.569 122.787 156.76C123.225 156.948 123.618 157.217 123.965 157.567C124.312 157.913 124.598 158.339 124.823 158.845ZM131.408 164.353C130.717 164.538 130.071 164.542 129.47 164.363C128.87 164.184 128.351 163.848 127.913 163.354C127.476 162.861 127.155 162.233 126.951 161.471C126.746 160.706 126.709 159.999 126.84 159.349C126.972 158.7 127.253 158.148 127.683 157.692C128.114 157.237 128.675 156.917 129.366 156.732C130.058 156.547 130.704 156.543 131.304 156.722C131.904 156.901 132.424 157.239 132.862 157.736C133.301 158.232 133.622 158.863 133.827 159.628C134.032 160.39 134.068 161.094 133.935 161.741C133.803 162.387 133.522 162.937 133.091 163.392C132.661 163.848 132.1 164.168 131.408 164.353ZM131.09 163.146C131.538 163.026 131.878 162.808 132.109 162.492C132.34 162.177 132.473 161.803 132.509 161.371C132.547 160.939 132.503 160.486 132.376 160.012C132.25 159.542 132.062 159.129 131.812 158.773C131.565 158.414 131.262 158.154 130.903 157.993C130.544 157.832 130.141 157.811 129.693 157.931C129.241 158.052 128.899 158.273 128.665 158.592C128.435 158.911 128.301 159.289 128.264 159.724C128.228 160.156 128.274 160.607 128.4 161.078C128.527 161.551 128.713 161.966 128.96 162.322C129.209 162.678 129.513 162.934 129.871 163.092C130.232 163.249 130.639 163.267 131.09 163.146ZM136.409 162.853L134.433 155.477L135.811 155.108L136.133 156.308L136.224 156.284C136.269 155.836 136.435 155.452 136.723 155.131C137.01 154.807 137.397 154.58 137.884 154.45C138.377 154.317 138.821 154.322 139.216 154.463C139.614 154.604 139.947 154.854 140.215 155.215L140.292 155.194C140.362 154.753 140.558 154.364 140.88 154.028C141.2 153.688 141.627 153.447 142.158 153.304C142.827 153.125 143.429 153.189 143.964 153.495C144.502 153.8 144.885 154.375 145.111 155.22L146.436 160.167L145.001 160.551L143.711 155.74C143.577 155.24 143.344 154.915 143.012 154.764C142.68 154.613 142.325 154.588 141.947 154.689C141.48 154.814 141.155 155.055 140.973 155.413C140.79 155.767 140.759 156.169 140.879 156.617L142.138 161.318L140.707 161.702L139.394 156.799C139.286 156.399 139.075 156.11 138.76 155.934C138.445 155.757 138.088 155.723 137.688 155.83C137.416 155.903 137.184 156.042 136.992 156.248C136.802 156.45 136.671 156.696 136.598 156.987C136.528 157.277 136.538 157.588 136.627 157.921L137.845 162.469L136.409 162.853ZM149.102 162.417L146.384 152.275L147.787 151.899L148.107 153.095L148.227 153.063C148.269 152.887 148.342 152.677 148.444 152.433C148.547 152.189 148.718 151.955 148.956 151.73C149.193 151.502 149.541 151.326 149.999 151.203C150.594 151.044 151.166 151.052 151.714 151.228C152.262 151.403 152.745 151.739 153.162 152.234C153.583 152.729 153.9 153.375 154.114 154.172C154.328 154.969 154.378 155.688 154.265 156.329C154.151 156.967 153.903 157.502 153.521 157.934C153.138 158.362 152.649 158.656 152.054 158.816C151.606 158.936 151.219 158.959 150.894 158.885C150.572 158.81 150.304 158.693 150.09 158.534C149.875 158.375 149.704 158.229 149.576 158.095L149.489 158.119L150.538 162.032L149.102 162.417ZM148.78 155.586C148.919 156.105 149.116 156.539 149.371 156.889C149.626 157.24 149.926 157.487 150.27 157.631C150.613 157.773 150.991 157.788 151.404 157.678C151.833 157.563 152.161 157.353 152.388 157.048C152.615 156.741 152.749 156.37 152.791 155.937C152.836 155.503 152.792 155.039 152.66 154.546C152.529 154.06 152.339 153.642 152.088 153.294C151.84 152.946 151.54 152.698 151.189 152.552C150.841 152.405 150.45 152.39 150.018 152.506C149.602 152.617 149.279 152.819 149.048 153.11C148.821 153.401 148.685 153.758 148.64 154.182C148.596 154.606 148.642 155.074 148.78 155.586ZM155.508 147.195L158.143 157.03L156.707 157.415L154.072 147.58L155.508 147.195ZM163.294 155.809C162.567 156.004 161.899 156.017 161.291 155.847C160.685 155.673 160.164 155.341 159.727 154.85C159.293 154.356 158.973 153.726 158.768 152.961C158.565 152.206 158.528 151.502 158.655 150.85C158.786 150.197 159.062 149.641 159.485 149.182C159.91 148.721 160.466 148.399 161.151 148.215C161.567 148.104 161.989 148.065 162.416 148.098C162.844 148.131 163.252 148.253 163.642 148.464C164.031 148.675 164.378 148.992 164.684 149.415C164.988 149.834 165.23 150.379 165.409 151.048L165.546 151.557L159.682 153.128L159.394 152.052L163.851 150.858C163.749 150.48 163.583 150.166 163.351 149.916C163.119 149.663 162.84 149.489 162.516 149.393C162.196 149.298 161.849 149.299 161.478 149.399C161.075 149.507 160.749 149.701 160.501 149.98C160.256 150.255 160.094 150.573 160.016 150.933C159.94 151.29 159.951 151.652 160.05 152.021L160.275 152.861C160.407 153.354 160.606 153.75 160.871 154.05C161.14 154.348 161.456 154.547 161.818 154.645C162.18 154.74 162.571 154.732 162.99 154.619C163.262 154.546 163.5 154.442 163.704 154.305C163.906 154.165 164.068 153.994 164.189 153.794C164.311 153.593 164.384 153.366 164.408 153.112L165.833 152.993C165.831 153.422 165.73 153.825 165.529 154.202C165.33 154.574 165.042 154.9 164.664 155.18C164.288 155.455 163.831 155.665 163.294 155.809ZM169.478 146.087L169.787 147.239L165.758 148.319L165.449 147.166L169.478 146.087ZM166.056 145.11L167.492 144.725L169.362 151.703C169.436 151.981 169.534 152.18 169.655 152.298C169.775 152.414 169.908 152.479 170.053 152.495C170.2 152.507 170.352 152.492 170.509 152.45C170.624 152.419 170.723 152.384 170.805 152.345C170.887 152.306 170.951 152.275 170.996 152.253L171.574 153.369C171.499 153.424 171.389 153.487 171.244 153.561C171.1 153.637 170.913 153.708 170.683 153.773C170.307 153.88 169.937 153.907 169.573 153.854C169.208 153.801 168.886 153.654 168.605 153.413C168.325 153.173 168.125 152.83 168.005 152.385L166.056 145.11ZM176.183 152.356C175.456 152.55 174.788 152.563 174.18 152.393C173.574 152.219 173.053 151.887 172.616 151.397C172.182 150.902 171.862 150.273 171.657 149.507C171.455 148.752 171.417 148.048 171.544 147.396C171.675 146.744 171.951 146.188 172.374 145.728C172.799 145.267 173.355 144.945 174.04 144.762C174.456 144.65 174.878 144.611 175.305 144.644C175.733 144.677 176.141 144.799 176.531 145.01C176.92 145.222 177.267 145.539 177.573 145.961C177.877 146.381 178.119 146.925 178.299 147.594L178.435 148.103L172.571 149.674L172.283 148.598L176.74 147.404C176.638 147.027 176.472 146.713 176.24 146.462C176.008 146.209 175.729 146.035 175.405 145.94C175.085 145.844 174.739 145.846 174.367 145.945C173.964 146.053 173.638 146.247 173.39 146.526C173.145 146.801 172.983 147.119 172.905 147.48C172.829 147.836 172.84 148.199 172.939 148.567L173.164 149.407C173.296 149.9 173.495 150.297 173.76 150.596C174.029 150.895 174.345 151.093 174.707 151.191C175.069 151.287 175.46 151.278 175.879 151.166C176.151 151.093 176.389 150.988 176.593 150.851C176.795 150.711 176.957 150.541 177.078 150.34C177.2 150.139 177.273 149.912 177.297 149.659L178.722 149.539C178.72 149.969 178.619 150.372 178.418 150.748C178.219 151.12 177.931 151.446 177.553 151.726C177.177 152.002 176.72 152.212 176.183 152.356ZM183.7 150.336C183.105 150.496 182.533 150.486 181.984 150.307C181.437 150.124 180.955 149.785 180.538 149.29C180.122 148.79 179.808 148.142 179.594 147.345C179.381 146.547 179.331 145.83 179.445 145.192C179.562 144.553 179.814 144.021 180.201 143.595C180.587 143.169 181.077 142.876 181.669 142.717C182.127 142.595 182.516 142.573 182.835 142.652C183.157 142.727 183.422 142.845 183.63 143.005C183.841 143.165 184.01 143.31 184.138 143.44L184.224 143.417L183.245 139.763L184.681 139.378L187.316 149.213L185.914 149.589L185.606 148.441L185.486 148.473C185.442 148.653 185.365 148.866 185.256 149.111C185.15 149.356 184.976 149.591 184.735 149.817C184.493 150.043 184.149 150.216 183.7 150.336ZM183.689 149.027C184.102 148.916 184.422 148.714 184.649 148.42C184.877 148.122 185.013 147.758 185.056 147.327C185.102 146.897 185.055 146.422 184.916 145.903C184.779 145.391 184.585 144.962 184.335 144.618C184.085 144.273 183.788 144.032 183.446 143.893C183.104 143.755 182.723 143.742 182.303 143.855C181.871 143.971 181.541 144.179 181.313 144.48C181.085 144.782 180.949 145.146 180.906 145.573C180.865 145.999 180.91 146.455 181.041 146.942C181.173 147.435 181.365 147.858 181.618 148.213C181.871 148.567 182.172 148.821 182.522 148.974C182.874 149.123 183.263 149.141 183.689 149.027Z" fill="#45B369"/>
<mask id="path-19-inside-7_336_1390" fill="white">
<path d="M74.3104 203.304L243.347 158.011L257.841 212.103L88.8042 257.396L74.3104 203.304Z"/>
</mask>
<path d="M257.841 212.103L257.582 211.137L88.5454 256.43L88.8042 257.396L89.063 258.362L258.1 213.069L257.841 212.103Z" fill="#EBECEF" mask="url(#path-19-inside-7_336_1390)"/>
<path d="M111.293 209.959C110.721 207.825 111.988 205.632 114.121 205.06L209.748 179.437C211.882 178.865 214.075 180.132 214.647 182.266L220.859 205.448C221.43 207.582 220.164 209.775 218.03 210.347L122.404 235.97C120.27 236.542 118.076 235.275 117.505 233.141L111.293 209.959Z" fill="#FFC02D" fill-opacity="0.15"/>
<path d="M132.636 221.84L130 212.005L133.506 211.066C134.271 210.861 134.942 210.83 135.52 210.974C136.097 211.118 136.575 211.398 136.954 211.815C137.333 212.228 137.603 212.736 137.764 213.337C137.926 213.942 137.945 214.521 137.822 215.072C137.701 215.619 137.425 216.101 136.995 216.518C136.567 216.932 135.972 217.24 135.21 217.444L132.799 218.09L132.462 216.832L134.738 216.222C135.222 216.093 135.592 215.904 135.848 215.657C136.104 215.407 136.263 215.117 136.326 214.788C136.388 214.459 136.37 214.109 136.27 213.738C136.171 213.366 136.012 213.055 135.794 212.805C135.576 212.555 135.293 212.388 134.945 212.307C134.6 212.224 134.182 212.249 133.689 212.381L131.825 212.88L134.12 221.442L132.636 221.84ZM141.17 219.553L139.194 212.177L140.582 211.805L140.896 212.977L140.973 212.956C141.001 212.523 141.154 212.148 141.432 211.829C141.713 211.507 142.07 211.288 142.502 211.172C142.592 211.148 142.698 211.123 142.821 211.097C142.948 211.07 143.048 211.052 143.121 211.042L143.489 212.416C143.427 212.415 143.32 212.425 143.167 212.445C143.014 212.463 142.864 212.491 142.716 212.53C142.377 212.621 142.094 212.774 141.867 212.99C141.642 213.201 141.487 213.453 141.401 213.747C141.314 214.038 141.314 214.344 141.399 214.664L142.606 219.168L141.17 219.553ZM149.243 217.55C148.552 217.735 147.906 217.738 147.305 217.559C146.705 217.381 146.186 217.044 145.748 216.551C145.311 216.057 144.99 215.43 144.786 214.668C144.581 213.902 144.544 213.195 144.675 212.546C144.807 211.896 145.088 211.344 145.518 210.889C145.949 210.434 146.51 210.114 147.201 209.929C147.893 209.743 148.539 209.74 149.139 209.919C149.739 210.098 150.259 210.436 150.697 210.932C151.136 211.429 151.457 212.06 151.662 212.825C151.867 213.587 151.903 214.291 151.77 214.937C151.638 215.583 151.357 216.134 150.926 216.589C150.496 217.044 149.935 217.364 149.243 217.55ZM148.925 216.343C149.373 216.223 149.713 216.005 149.944 215.689C150.175 215.373 150.308 215 150.343 214.568C150.382 214.136 150.338 213.683 150.211 213.209C150.085 212.738 149.897 212.325 149.647 211.97C149.4 211.611 149.097 211.351 148.738 211.189C148.379 211.028 147.976 211.008 147.528 211.128C147.076 211.249 146.734 211.469 146.5 211.789C146.27 212.108 146.136 212.485 146.099 212.921C146.063 213.353 146.109 213.804 146.235 214.274C146.362 214.748 146.548 215.163 146.795 215.519C147.044 215.874 147.348 216.131 147.706 216.289C148.067 216.446 148.474 216.464 148.925 216.343ZM157.391 215.366C156.677 215.558 156.019 215.561 155.417 215.375C154.818 215.186 154.303 214.842 153.874 214.343C153.445 213.843 153.132 213.224 152.934 212.484C152.733 211.735 152.697 211.036 152.825 210.388C152.952 209.736 153.229 209.18 153.654 208.719C154.08 208.259 154.64 207.935 155.335 207.749C155.895 207.599 156.422 207.569 156.917 207.66C157.41 207.747 157.841 207.941 158.21 208.24C158.581 208.538 158.859 208.929 159.043 209.411L157.646 209.786C157.476 209.461 157.221 209.21 156.878 209.034C156.539 208.857 156.141 208.83 155.683 208.953C155.283 209.06 154.961 209.26 154.716 209.552C154.474 209.84 154.322 210.199 154.259 210.631C154.196 211.06 154.234 211.537 154.375 212.062C154.519 212.6 154.725 213.042 154.993 213.389C155.261 213.736 155.573 213.977 155.928 214.111C156.286 214.245 156.669 214.258 157.075 214.149C157.347 214.076 157.581 213.96 157.775 213.802C157.972 213.639 158.12 213.443 158.22 213.214C158.323 212.984 158.369 212.728 158.359 212.446L159.756 212.072C159.833 212.562 159.792 213.03 159.633 213.474C159.474 213.918 159.205 214.306 158.827 214.637C158.453 214.967 157.974 215.21 157.391 215.366ZM165.136 213.291C164.409 213.486 163.742 213.498 163.134 213.328C162.528 213.155 162.006 212.822 161.57 212.332C161.135 211.838 160.815 211.208 160.61 210.443C160.408 209.687 160.37 208.984 160.498 208.332C160.628 207.679 160.905 207.123 161.327 206.663C161.753 206.203 162.308 205.881 162.993 205.697C163.409 205.586 163.831 205.546 164.259 205.579C164.686 205.612 165.095 205.735 165.484 205.946C165.873 206.157 166.221 206.474 166.526 206.897C166.831 207.316 167.073 207.86 167.252 208.529L167.388 209.038L161.525 210.61L161.237 209.534L165.693 208.34C165.592 207.962 165.425 207.648 165.194 207.398C164.961 207.145 164.683 206.97 164.359 206.875C164.038 206.779 163.692 206.781 163.321 206.881C162.917 206.989 162.592 207.182 162.344 207.462C162.098 207.737 161.937 208.054 161.858 208.415C161.782 208.772 161.793 209.134 161.892 209.502L162.117 210.343C162.249 210.836 162.448 211.232 162.714 211.531C162.982 211.83 163.298 212.029 163.661 212.127C164.023 212.222 164.413 212.214 164.833 212.101C165.105 212.028 165.343 211.923 165.546 211.786C165.749 211.646 165.911 211.476 166.032 211.275C166.153 211.075 166.226 210.848 166.251 210.594L167.675 210.475C167.674 210.904 167.572 211.307 167.371 211.683C167.173 212.056 166.884 212.382 166.506 212.662C166.131 212.937 165.674 213.147 165.136 213.291ZM173.887 204.811L172.648 205.39C172.549 205.238 172.42 205.103 172.261 204.984C172.105 204.865 171.915 204.784 171.691 204.741C171.467 204.698 171.206 204.716 170.908 204.796C170.502 204.905 170.187 205.087 169.964 205.343C169.74 205.595 169.666 205.863 169.742 206.148C169.808 206.395 169.952 206.569 170.175 206.67C170.398 206.772 170.726 206.816 171.158 206.803L172.402 206.758C173.122 206.733 173.693 206.84 174.114 207.077C174.534 207.314 174.814 207.694 174.954 208.216C175.072 208.657 175.05 209.086 174.886 209.5C174.725 209.91 174.443 210.274 174.041 210.591C173.642 210.907 173.145 211.145 172.549 211.305C171.723 211.526 171.002 211.531 170.386 211.318C169.769 211.103 169.314 210.684 169.02 210.063L170.352 209.48C170.535 209.818 170.786 210.044 171.105 210.158C171.422 210.269 171.797 210.266 172.23 210.15C172.7 210.024 173.05 209.825 173.28 209.555C173.508 209.281 173.584 209.001 173.508 208.716C173.446 208.486 173.308 208.315 173.093 208.205C172.881 208.093 172.589 208.045 172.215 208.059L170.893 208.12C170.163 208.148 169.587 208.034 169.165 207.78C168.747 207.525 168.467 207.135 168.327 206.61C168.21 206.174 168.23 205.761 168.385 205.369C168.541 204.977 168.809 204.633 169.189 204.335C169.569 204.035 170.035 203.81 170.589 203.662C171.386 203.448 172.06 203.453 172.61 203.676C173.16 203.896 173.586 204.274 173.887 204.811ZM181.137 202.868L179.898 203.448C179.799 203.296 179.67 203.16 179.511 203.042C179.355 202.922 179.166 202.841 178.941 202.798C178.717 202.755 178.456 202.774 178.158 202.853C177.752 202.962 177.437 203.145 177.214 203.4C176.99 203.652 176.916 203.921 176.992 204.206C177.058 204.452 177.203 204.626 177.425 204.728C177.648 204.829 177.976 204.874 178.408 204.861L179.652 204.816C180.373 204.791 180.943 204.897 181.364 205.134C181.784 205.372 182.064 205.751 182.204 206.273C182.322 206.715 182.3 207.143 182.136 207.557C181.975 207.968 181.694 208.331 181.291 208.648C180.892 208.965 180.395 209.203 179.799 209.362C178.974 209.583 178.252 209.588 177.636 209.376C177.019 209.16 176.564 208.742 176.27 208.12L177.602 207.537C177.785 207.876 178.036 208.102 178.355 208.215C178.673 208.326 179.048 208.323 179.48 208.207C179.95 208.081 180.3 207.883 180.53 207.612C180.758 207.338 180.834 207.059 180.758 206.774C180.696 206.543 180.558 206.373 180.343 206.262C180.131 206.151 179.839 206.102 179.465 206.116L178.143 206.177C177.413 206.205 176.837 206.092 176.415 205.837C175.997 205.582 175.718 205.192 175.577 204.667C175.46 204.232 175.48 203.818 175.636 203.426C175.791 203.035 176.059 202.69 176.439 202.393C176.819 202.092 177.285 201.868 177.839 201.719C178.636 201.506 179.31 201.51 179.86 201.733C180.41 201.953 180.836 202.332 181.137 202.868ZM184.354 207.982L182.378 200.606L183.814 200.221L185.79 207.597L184.354 207.982ZM182.798 199.274C182.548 199.34 182.311 199.315 182.087 199.196C181.866 199.074 181.724 198.896 181.661 198.662C181.598 198.425 181.632 198.2 181.763 197.986C181.897 197.768 182.089 197.626 182.338 197.559C182.588 197.492 182.824 197.52 183.045 197.643C183.269 197.761 183.413 197.939 183.476 198.176C183.539 198.409 183.503 198.635 183.37 198.853C183.238 199.066 183.048 199.207 182.798 199.274ZM187.984 202.316L189.157 206.695L187.722 207.08L185.745 199.704L187.123 199.334L187.445 200.535L187.536 200.51C187.601 200.074 187.783 199.689 188.081 199.356C188.383 199.021 188.81 198.779 189.364 198.631C189.867 198.496 190.335 198.484 190.77 198.594C191.203 198.701 191.58 198.933 191.898 199.29C192.217 199.647 192.458 200.13 192.621 200.738L193.878 205.43L192.442 205.815L191.231 201.296C191.088 200.761 190.837 200.381 190.478 200.155C190.118 199.925 189.694 199.876 189.208 200.006C188.875 200.095 188.598 200.247 188.377 200.46C188.16 200.673 188.013 200.939 187.937 201.257C187.864 201.572 187.879 201.925 187.984 202.316ZM199.679 207.005C199.093 207.162 198.568 207.221 198.104 207.18C197.644 207.139 197.247 207.027 196.913 206.846C196.58 206.664 196.307 206.44 196.095 206.174L197.193 205.335C197.317 205.452 197.472 205.57 197.658 205.689C197.848 205.809 198.083 205.892 198.363 205.937C198.646 205.982 198.986 205.951 199.383 205.844C199.927 205.698 200.341 205.445 200.626 205.084C200.911 204.726 200.976 204.259 200.821 203.683L200.433 202.233L200.342 202.257C200.297 202.437 200.219 202.645 200.107 202.881C199.999 203.116 199.822 203.342 199.578 203.558C199.334 203.774 198.987 203.943 198.535 204.064C197.953 204.22 197.391 204.225 196.851 204.078C196.313 203.927 195.836 203.621 195.421 203.159C195.008 202.693 194.696 202.068 194.486 201.284C194.276 200.499 194.229 199.791 194.344 199.16C194.463 198.528 194.716 198 195.104 197.577C195.491 197.151 195.98 196.858 196.572 196.7C197.03 196.577 197.421 196.555 197.743 196.633C198.066 196.708 198.332 196.825 198.543 196.985C198.757 197.144 198.928 197.288 199.055 197.419L199.161 197.39L198.841 196.195L200.248 195.818L202.268 203.357C202.438 203.991 202.43 204.551 202.244 205.036C202.059 205.522 201.741 205.929 201.291 206.259C200.843 206.589 200.306 206.837 199.679 207.005ZM198.533 202.788C198.946 202.677 199.269 202.488 199.503 202.219C199.739 201.947 199.882 201.61 199.932 201.209C199.985 200.804 199.943 200.346 199.806 199.837C199.674 199.341 199.483 198.924 199.234 198.586C198.986 198.247 198.691 198.011 198.349 197.876C198.007 197.738 197.626 197.725 197.207 197.837C196.774 197.953 196.444 198.161 196.216 198.463C195.987 198.761 195.85 199.12 195.805 199.54C195.763 199.96 195.805 200.405 195.931 200.876C196.061 201.359 196.248 201.764 196.493 202.089C196.738 202.415 197.032 202.641 197.375 202.769C197.721 202.896 198.107 202.902 198.533 202.788Z" fill="#FF9F29"/>
<mask id="path-23-inside-8_336_1390" fill="white">
<path d="M88.8043 257.396L257.841 212.103L272.335 266.195L103.298 311.488L88.8043 257.396Z"/>
</mask>
<path d="M272.335 266.195L272.076 265.229L103.039 310.522L103.298 311.488L103.557 312.454L272.594 267.16L272.335 266.195Z" fill="#EBECEF" mask="url(#path-23-inside-8_336_1390)"/>
<path d="M126.27 263.922C125.698 261.788 126.964 259.594 129.098 259.023L223.759 233.658C225.893 233.087 228.086 234.353 228.658 236.487L234.87 259.669C235.441 261.803 234.175 263.996 232.041 264.568L137.38 289.932C135.247 290.504 133.053 289.238 132.481 287.104L126.27 263.922Z" fill="#45B369" fill-opacity="0.15"/>
<path d="M153.81 267.029L152.312 267.43C152.169 267.125 151.986 266.872 151.764 266.671C151.542 266.47 151.294 266.315 151.022 266.206C150.749 266.097 150.46 266.037 150.155 266.026C149.853 266.015 149.546 266.051 149.232 266.135C148.665 266.287 148.196 266.565 147.824 266.97C147.456 267.374 147.215 267.886 147.104 268.507C146.995 269.126 147.047 269.833 147.26 270.626C147.474 271.427 147.783 272.068 148.187 272.55C148.594 273.031 149.059 273.353 149.583 273.514C150.107 273.676 150.649 273.682 151.209 273.532C151.519 273.448 151.803 273.328 152.059 273.17C152.318 273.008 152.538 272.813 152.721 272.586C152.904 272.359 153.041 272.104 153.134 271.822C153.229 271.535 153.264 271.227 153.241 270.897L154.741 270.501C154.79 271.005 154.754 271.492 154.633 271.96C154.513 272.425 154.314 272.852 154.034 273.243C153.757 273.629 153.411 273.964 152.996 274.247C152.581 274.529 152.103 274.743 151.562 274.888C150.71 275.117 149.898 275.118 149.124 274.893C148.349 274.665 147.668 274.225 147.081 273.572C146.498 272.919 146.066 272.068 145.786 271.022C145.504 269.971 145.455 269.019 145.637 268.163C145.819 267.305 146.189 266.585 146.747 266.003C147.304 265.418 148.006 265.012 148.855 264.785C149.377 264.645 149.883 264.59 150.375 264.619C150.869 264.645 151.336 264.753 151.775 264.944C152.213 265.132 152.606 265.401 152.953 265.75C153.3 266.097 153.586 266.523 153.81 267.029ZM160.396 272.537C159.704 272.722 159.058 272.725 158.458 272.546C157.858 272.368 157.339 272.031 156.901 271.538C156.464 271.044 156.143 270.417 155.938 269.655C155.733 268.89 155.697 268.182 155.828 267.533C155.959 266.883 156.24 266.331 156.671 265.876C157.101 265.421 157.662 265.101 158.354 264.916C159.045 264.73 159.691 264.727 160.292 264.906C160.892 265.085 161.411 265.423 161.85 265.919C162.288 266.416 162.61 267.047 162.815 267.812C163.019 268.574 163.055 269.278 162.923 269.924C162.791 270.571 162.509 271.121 162.079 271.576C161.648 272.031 161.087 272.351 160.396 272.537ZM160.078 271.33C160.526 271.21 160.866 270.992 161.097 270.676C161.328 270.36 161.461 269.987 161.496 269.555C161.535 269.123 161.491 268.67 161.364 268.196C161.238 267.725 161.05 267.312 160.8 266.957C160.553 266.598 160.25 266.338 159.891 266.177C159.532 266.015 159.129 265.995 158.68 266.115C158.229 266.236 157.887 266.456 157.653 266.776C157.423 267.095 157.289 267.473 157.251 267.908C157.216 268.34 157.261 268.791 157.387 269.261C157.514 269.735 157.701 270.15 157.947 270.506C158.197 270.861 158.501 271.118 158.859 271.276C159.22 271.433 159.626 271.451 160.078 271.33ZM165.397 271.037L163.421 263.661L164.799 263.292L165.121 264.492L165.212 264.468C165.257 264.02 165.423 263.636 165.711 263.315C165.998 262.991 166.385 262.764 166.872 262.633C167.365 262.501 167.809 262.506 168.203 262.647C168.601 262.788 168.934 263.038 169.202 263.398L169.279 263.378C169.35 262.937 169.546 262.548 169.868 262.211C170.188 261.872 170.614 261.63 171.146 261.488C171.815 261.309 172.417 261.372 172.952 261.678C173.49 261.984 173.872 262.559 174.099 263.404L175.424 268.35L173.988 268.735L172.699 263.923C172.565 263.424 172.332 263.099 172 262.947C171.668 262.796 171.313 262.771 170.935 262.872C170.468 262.998 170.143 263.239 169.961 263.597C169.778 263.951 169.746 264.352 169.866 264.801L171.126 269.502L169.695 269.885L168.381 264.982C168.274 264.582 168.063 264.294 167.748 264.118C167.433 263.941 167.076 263.907 166.675 264.014C166.403 264.087 166.171 264.226 165.979 264.432C165.79 264.634 165.659 264.88 165.585 265.171C165.516 265.46 165.525 265.772 165.614 266.105L166.833 270.652L165.397 271.037ZM178.09 270.601L175.372 260.459L176.774 260.083L177.095 261.279L177.215 261.246C177.257 261.07 177.329 260.861 177.432 260.617C177.535 260.373 177.706 260.139 177.944 259.914C178.181 259.685 178.529 259.51 178.986 259.387C179.582 259.228 180.154 259.236 180.702 259.411C181.25 259.587 181.733 259.923 182.15 260.418C182.571 260.913 182.888 261.559 183.102 262.356C183.315 263.153 183.366 263.872 183.253 264.513C183.139 265.151 182.891 265.686 182.509 266.117C182.126 266.546 181.637 266.84 181.042 267C180.593 267.12 180.207 267.143 179.881 267.069C179.559 266.994 179.291 266.877 179.077 266.718C178.863 266.559 178.692 266.413 178.563 266.279L178.477 266.302L179.526 270.216L178.09 270.601ZM177.767 263.77C177.906 264.288 178.103 264.723 178.359 265.073C178.614 265.423 178.913 265.671 179.257 265.815C179.601 265.957 179.979 265.972 180.392 265.861C180.821 265.746 181.149 265.537 181.376 265.232C181.602 264.924 181.737 264.554 181.778 264.121C181.823 263.687 181.78 263.223 181.648 262.73C181.517 262.243 181.326 261.826 181.075 261.478C180.828 261.129 180.528 260.882 180.177 260.736C179.828 260.589 179.438 260.573 179.006 260.689C178.59 260.801 178.266 261.002 178.036 261.294C177.808 261.585 177.672 261.942 177.628 262.366C177.584 262.789 177.63 263.257 177.767 263.77ZM184.495 255.379L187.131 265.214L185.695 265.598L183.06 255.763L184.495 255.379ZM192.281 263.993C191.555 264.188 190.887 264.2 190.279 264.03C189.673 263.856 189.152 263.524 188.715 263.034C188.28 262.54 187.961 261.91 187.756 261.145C187.553 260.389 187.516 259.686 187.643 259.034C187.773 258.381 188.05 257.825 188.472 257.365C188.898 256.905 189.453 256.583 190.138 256.399C190.555 256.288 190.976 256.248 191.404 256.281C191.831 256.314 192.24 256.436 192.629 256.648C193.019 256.859 193.366 257.176 193.671 257.599C193.976 258.018 194.218 258.562 194.397 259.231L194.534 259.74L188.67 261.311L188.382 260.236L192.838 259.042C192.737 258.664 192.571 258.35 192.339 258.1C192.106 257.846 191.828 257.672 191.504 257.577C191.183 257.481 190.837 257.483 190.466 257.583C190.062 257.691 189.737 257.884 189.489 258.163C189.244 258.438 189.082 258.756 189.003 259.117C188.927 259.474 188.939 259.836 189.037 260.204L189.263 261.045C189.395 261.538 189.594 261.934 189.859 262.233C190.128 262.532 190.443 262.73 190.806 262.829C191.168 262.924 191.558 262.915 191.978 262.803C192.25 262.73 192.488 262.625 192.691 262.488C192.894 262.348 193.056 262.178 193.177 261.977C193.298 261.777 193.371 261.55 193.396 261.296L194.821 261.177C194.819 261.606 194.718 262.009 194.517 262.385C194.318 262.758 194.029 263.084 193.651 263.363C193.276 263.639 192.819 263.849 192.281 263.993ZM198.466 254.271L198.775 255.423L194.746 256.503L194.437 255.35L198.466 254.271ZM195.044 253.293L196.48 252.909L198.349 259.886C198.424 260.165 198.522 260.363 198.643 260.482C198.763 260.597 198.895 260.663 199.04 260.679C199.188 260.691 199.34 260.676 199.497 260.634C199.612 260.603 199.711 260.568 199.793 260.529C199.875 260.49 199.939 260.459 199.984 260.436L200.561 261.553C200.487 261.607 200.377 261.671 200.232 261.744C200.087 261.821 199.901 261.891 199.671 261.956C199.295 262.064 198.925 262.091 198.56 262.038C198.196 261.984 197.874 261.838 197.593 261.597C197.312 261.357 197.112 261.014 196.993 260.569L195.044 253.293ZM205.17 260.539C204.444 260.734 203.776 260.747 203.168 260.577C202.562 260.403 202.041 260.071 201.604 259.58C201.169 259.086 200.85 258.456 200.645 257.691C200.442 256.936 200.405 256.232 200.532 255.58C200.663 254.928 200.939 254.371 201.361 253.912C201.787 253.451 202.342 253.129 203.027 252.945C203.444 252.834 203.865 252.795 204.293 252.828C204.72 252.861 205.129 252.983 205.518 253.194C205.908 253.405 206.255 253.722 206.561 254.145C206.865 254.564 207.107 255.109 207.286 255.778L207.423 256.287L201.559 257.858L201.271 256.782L205.727 255.588C205.626 255.21 205.46 254.896 205.228 254.646C204.995 254.393 204.717 254.219 204.393 254.124C204.072 254.028 203.726 254.029 203.355 254.129C202.951 254.237 202.626 254.431 202.378 254.71C202.133 254.985 201.971 255.303 201.893 255.663C201.817 256.02 201.828 256.382 201.926 256.751L202.152 257.591C202.284 258.084 202.483 258.48 202.748 258.78C203.017 259.078 203.333 259.277 203.695 259.375C204.057 259.47 204.448 259.462 204.867 259.349C205.139 259.277 205.377 259.172 205.58 259.035C205.783 258.895 205.945 258.724 206.066 258.524C206.187 258.323 206.26 258.096 206.285 257.842L207.71 257.723C207.708 258.152 207.607 258.555 207.406 258.932C207.207 259.304 206.919 259.63 206.541 259.91C206.165 260.185 205.708 260.395 205.17 260.539ZM212.688 258.52C212.093 258.68 211.52 258.67 210.972 258.491C210.425 258.308 209.943 257.969 209.525 257.473C209.11 256.974 208.796 256.325 208.582 255.528C208.369 254.731 208.319 254.014 208.433 253.376C208.55 252.737 208.802 252.205 209.188 251.778C209.575 251.352 210.065 251.06 210.657 250.901C211.115 250.778 211.503 250.757 211.823 250.836C212.145 250.911 212.41 251.028 212.618 251.189C212.829 251.349 212.998 251.494 213.126 251.624L213.212 251.601L212.233 247.947L213.669 247.562L216.304 257.397L214.902 257.772L214.594 256.625L214.474 256.657C214.43 256.837 214.353 257.05 214.244 257.295C214.138 257.54 213.964 257.775 213.723 258.001C213.481 258.227 213.136 258.4 212.688 258.52ZM212.677 257.21C213.09 257.1 213.41 256.897 213.636 256.603C213.865 256.305 214.001 255.941 214.044 255.511C214.089 255.08 214.043 254.606 213.904 254.087C213.767 253.575 213.573 253.146 213.323 252.801C213.072 252.457 212.776 252.215 212.434 252.077C212.091 251.939 211.71 251.926 211.291 252.039C210.859 252.154 210.529 252.363 210.301 252.664C210.073 252.965 209.937 253.33 209.893 253.756C209.853 254.182 209.898 254.639 210.029 255.125C210.161 255.618 210.353 256.042 210.606 256.396C210.859 256.751 211.16 257.004 211.51 257.158C211.862 257.307 212.251 257.325 212.677 257.21Z" fill="#45B369"/>
<mask id="path-27-inside-9_336_1390" fill="white">
<path d="M103.298 311.488L272.335 266.194L286.829 320.286L117.792 365.58L103.298 311.488Z"/>
</mask>
<path d="M103.298 311.488L272.335 266.194L286.829 320.286L117.792 365.58L103.298 311.488Z" fill="white"/>
<path d="M286.829 320.286L286.57 319.32L117.533 364.614L117.792 365.58L118.051 366.546L287.088 321.252L286.829 320.286Z" fill="#EBECEF" mask="url(#path-27-inside-9_336_1390)"/>
<path d="M140.764 318.013C140.192 315.879 141.458 313.686 143.592 313.114L238.253 287.75C240.387 287.178 242.58 288.445 243.152 290.579L249.363 313.761C249.935 315.895 248.669 318.088 246.535 318.66L151.874 344.024C149.74 344.596 147.547 343.329 146.975 341.196L140.764 318.013Z" fill="#45B369" fill-opacity="0.15"/>
<mask id="path-30-inside-10_336_1390" fill="white">
<path d="M215.913 55.6227L393.643 7.99998L406.584 56.2963L228.854 103.919L215.913 55.6227Z"/>
</mask>
<path d="M215.913 55.6227L393.643 7.99998L406.584 56.2963L228.854 103.919L215.913 55.6227Z" fill="#F5F6FA"/>
<path d="M406.584 56.2963L406.325 55.3303L228.595 102.953L228.854 103.919L229.112 104.885L406.843 57.2622L406.584 56.2963Z" fill="#EBECEF" mask="url(#path-30-inside-10_336_1390)"/>
<path d="M249.303 78.7694L247.502 79.2517L248.535 66.9281L250.495 66.4031L257.551 76.5591L255.751 77.0415L250.109 68.6947L250.021 68.7182L249.303 78.7694ZM248.425 74.287L254.264 72.7223L254.647 74.1492L248.807 75.7139L248.425 74.287ZM262.503 75.4146C261.687 75.6332 260.935 75.6367 260.247 75.425C259.562 75.2086 258.974 74.8152 258.484 74.2446C257.994 73.6739 257.636 72.966 257.409 72.1209C257.18 71.2647 257.138 70.466 257.285 69.7248C257.43 68.9799 257.746 68.3443 258.233 67.8179C258.719 67.2915 259.359 66.922 260.153 66.7092C260.793 66.5376 261.396 66.5036 261.961 66.6071C262.525 66.707 263.018 66.9279 263.439 67.27C263.863 67.6111 264.181 68.0574 264.391 68.6088L262.794 69.0367C262.601 68.6651 262.308 68.3788 261.917 68.1777C261.53 67.9756 261.074 67.9447 260.551 68.0849C260.094 68.2074 259.726 68.4355 259.446 68.7692C259.17 69.0982 258.996 69.5095 258.924 70.0032C258.851 70.4932 258.895 71.0383 259.056 71.6383C259.221 72.253 259.456 72.7585 259.763 73.1549C260.069 73.5513 260.425 73.8265 260.831 73.9804C261.24 74.1334 261.678 74.1476 262.142 74.0231C262.453 73.9398 262.72 73.8076 262.942 73.6265C263.167 73.4408 263.336 73.217 263.45 72.955C263.568 72.6921 263.621 72.3995 263.609 72.0772L265.206 71.6493C265.294 72.2101 265.247 72.7443 265.065 73.2518C264.883 73.7593 264.577 74.2022 264.145 74.5807C263.716 74.9582 263.169 75.2362 262.503 75.4146ZM269.352 64.362L269.705 65.6792L265.1 66.913L264.747 65.5958L269.352 64.362ZM265.441 63.2453L267.082 62.8056L269.219 70.78C269.304 71.0983 269.416 71.3252 269.554 71.4607C269.691 71.5925 269.843 71.6676 270.009 71.686C270.177 71.6997 270.351 71.6825 270.53 71.6345C270.662 71.5992 270.775 71.5591 270.868 71.5144C270.962 71.4696 271.035 71.4344 271.087 71.4087L271.747 72.6849C271.661 72.747 271.536 72.8198 271.37 72.9035C271.205 72.9908 270.992 73.0716 270.729 73.1458C270.299 73.2688 269.876 73.2998 269.46 73.2388C269.044 73.1778 268.675 73.0099 268.354 72.7351C268.034 72.4602 267.805 72.0685 267.669 71.5599L265.441 63.2453ZM273.426 72.3055L271.167 63.8756L272.808 63.4359L275.067 71.8658L273.426 72.3055ZM271.647 62.3529C271.362 62.4293 271.091 62.3999 270.835 62.2645C270.582 62.1246 270.42 61.921 270.348 61.6539C270.276 61.3832 270.315 61.1257 270.465 60.8815C270.618 60.6327 270.837 60.4701 271.122 60.3936C271.408 60.3171 271.677 60.3489 271.93 60.4889C272.186 60.6242 272.35 60.8273 272.423 61.098C272.494 61.3651 272.454 61.6231 272.301 61.8719C272.151 62.1161 271.933 62.2764 271.647 62.3529ZM280.871 70.493C280.081 70.7047 279.343 70.7084 278.656 70.5041C277.97 70.2997 277.377 69.9155 276.877 69.3515C276.377 68.7874 276.01 68.07 275.777 67.1992C275.542 66.3248 275.5 65.5165 275.651 64.7743C275.801 64.0321 276.122 63.401 276.614 62.8809C277.106 62.3609 277.747 61.995 278.537 61.7832C279.328 61.5714 280.066 61.5677 280.752 61.7721C281.438 61.9765 282.032 62.3625 282.533 62.9302C283.034 63.4979 283.402 64.2189 283.636 65.0934C283.869 65.9642 283.91 66.7689 283.759 67.5074C283.608 68.2459 283.287 68.8752 282.795 69.3953C282.303 69.9153 281.661 70.2812 280.871 70.493ZM280.507 69.114C281.02 68.9767 281.408 68.7276 281.672 68.3667C281.936 68.0057 282.088 67.5787 282.129 67.0855C282.173 66.5914 282.122 66.0735 281.977 65.532C281.833 64.9942 281.618 64.5223 281.333 64.1164C281.05 63.7058 280.704 63.4084 280.294 63.2242C279.884 63.04 279.423 63.0165 278.91 63.1538C278.395 63.292 278.003 63.5439 277.736 63.9095C277.473 64.2741 277.32 64.7053 277.277 65.2031C277.237 65.6963 277.289 66.2118 277.433 66.7496C277.578 67.2912 277.791 67.7654 278.073 68.1722C278.358 68.5782 278.705 68.8714 279.114 69.052C279.527 69.2315 279.992 69.2522 280.507 69.114ZM286.887 63.3342L288.228 68.3394L286.587 68.7791L284.328 60.3492L285.903 59.9272L286.271 61.2992L286.375 61.2713C286.449 60.773 286.657 60.333 286.998 59.9515C287.342 59.569 287.831 59.2929 288.464 59.1233C289.039 58.9694 289.574 58.9553 290.07 59.0811C290.566 59.2033 290.996 59.4685 291.36 59.8767C291.724 60.285 292 60.8367 292.186 61.5319L293.623 66.8939L291.982 67.3336L290.598 62.1692C290.434 61.5581 290.147 61.1233 289.737 60.8647C289.325 60.6024 288.841 60.5457 288.285 60.6948C287.905 60.7967 287.588 60.9697 287.336 61.2138C287.087 61.4569 286.92 61.7606 286.833 62.125C286.749 62.4847 286.767 62.8878 286.887 63.3342Z" fill="#111827"/>
<mask id="path-33-inside-11_336_1390" fill="white">
<path d="M228.854 103.919L406.584 56.2962L421.078 110.388L243.347 158.011L228.854 103.919Z"/>
</mask>
<path d="M228.854 103.919L406.584 56.2962L421.078 110.388L243.347 158.011L228.854 103.919Z" fill="white"/>
<path d="M421.078 110.388L420.819 109.422L243.089 157.045L243.347 158.011L243.606 158.977L421.337 111.354L421.078 110.388Z" fill="#E9E9E9" mask="url(#path-33-inside-11_336_1390)"/>
<rect x="255.659" y="111.23" width="28" height="28" rx="14" transform="rotate(-15 255.659 111.23)" fill="#487FFF" fill-opacity="0.18"/>
<g clip-path="url(#clip2_336_1390)">
<path d="M266.608 122.791C266.608 122.791 267.654 117.679 271.598 116.622C275.542 115.565 279.004 119.469 279.004 119.469C279.004 119.469 277.958 124.581 274.014 125.638C270.069 126.694 266.608 122.791 266.608 122.791Z" stroke="#487FFF" stroke-width="1.2" stroke-linecap="round" stroke-linejoin="round"/>
<path d="M273.259 122.82C274.192 122.57 274.746 121.61 274.496 120.677C274.246 119.743 273.286 119.189 272.353 119.439C271.419 119.689 270.865 120.649 271.115 121.583C271.365 122.516 272.325 123.07 273.259 122.82Z" stroke="#487FFF" stroke-width="1.2" stroke-linecap="round" stroke-linejoin="round"/>
</g>
<rect x="292.364" y="101.395" width="28" height="28" rx="14" transform="rotate(-15 292.364 101.395)" fill="#45B369" fill-opacity="0.18"/>
<g clip-path="url(#clip3_336_1390)">
<path d="M307.74 106.938L303.795 107.995C303.497 108.075 303.242 108.271 303.087 108.539C302.932 108.807 302.89 109.125 302.971 109.424L305.084 117.312C305.164 117.611 305.36 117.866 305.628 118.021C305.896 118.175 306.214 118.217 306.513 118.137L314.401 116.024C314.7 115.943 314.955 115.748 315.11 115.48C315.265 115.212 315.307 114.894 315.226 114.595L314.17 110.651" stroke="#45B369" stroke-width="1.2" stroke-linecap="round" stroke-linejoin="round"/>
<path d="M311.739 104.961C311.903 104.677 312.173 104.469 312.49 104.384C312.807 104.299 313.145 104.344 313.429 104.508C313.714 104.672 313.921 104.942 314.006 105.259C314.091 105.576 314.047 105.914 313.882 106.198L309.964 112.985L307.861 114.153L307.821 111.748L311.739 104.961Z" stroke="#45B369" stroke-width="1.2" stroke-linecap="round" stroke-linejoin="round"/>
</g>
<rect x="329.07" y="91.5599" width="28" height="28" rx="14" transform="rotate(-15 329.07 91.5599)" fill="#F86624" fill-opacity="0.18"/>
<g clip-path="url(#clip4_336_1390)">
<path d="M340.239 99.4375L341.366 99.1355L350.381 96.7199" stroke="#EF4A00" stroke-width="1.2" stroke-linecap="round" stroke-linejoin="round"/>
<path d="M349.254 97.0215L351.368 104.91C351.448 105.209 351.406 105.527 351.251 105.795C351.097 106.063 350.842 106.259 350.543 106.339L344.908 107.849C344.61 107.929 344.291 107.887 344.023 107.732C343.755 107.577 343.56 107.322 343.48 107.024L341.366 99.1352M343.056 98.6822L342.754 97.5553C342.674 97.2565 342.716 96.938 342.871 96.67C343.026 96.4021 343.28 96.2065 343.579 96.1265L345.833 95.5225C346.132 95.4425 346.45 95.4844 346.718 95.6391C346.986 95.7938 347.182 96.0486 347.262 96.3475L347.564 97.4744" stroke="#EF4A00" stroke-width="1.2" stroke-linecap="round" stroke-linejoin="round"/>
<path d="M344.938 101.198L345.844 104.578" stroke="#EF4A00" stroke-width="1.2" stroke-linecap="round" stroke-linejoin="round"/>
<path d="M347.192 100.594L348.098 103.974" stroke="#EF4A00" stroke-width="1.2" stroke-linecap="round" stroke-linejoin="round"/>
</g>
<mask id="path-46-inside-12_336_1390" fill="white">
<path d="M243.347 158.011L421.078 110.388L435.572 164.48L257.841 212.103L243.347 158.011Z"/>
</mask>
<path d="M243.347 158.011L421.078 110.388L435.572 164.48L257.841 212.103L243.347 158.011Z" fill="white"/>
<path d="M435.572 164.48L435.313 163.514L257.582 211.137L257.841 212.103L258.1 213.069L435.83 165.446L435.572 164.48Z" fill="#E9E9E9" mask="url(#path-46-inside-12_336_1390)"/>
<rect x="270.153" y="165.322" width="28" height="28" rx="14" transform="rotate(-15 270.153 165.322)" fill="#487FFF" fill-opacity="0.18"/>
<g clip-path="url(#clip5_336_1390)">
<path d="M281.102 176.883C281.102 176.883 282.148 171.771 286.092 170.714C290.036 169.657 293.498 173.561 293.498 173.561C293.498 173.561 292.452 178.673 288.507 179.73C284.563 180.786 281.102 176.883 281.102 176.883Z" stroke="#487FFF" stroke-width="1.2" stroke-linecap="round" stroke-linejoin="round"/>
<path d="M287.752 176.912C288.686 176.662 289.24 175.702 288.99 174.769C288.74 173.835 287.78 173.281 286.847 173.531C285.913 173.781 285.359 174.741 285.609 175.675C285.859 176.608 286.819 177.162 287.752 176.912Z" stroke="#487FFF" stroke-width="1.2" stroke-linecap="round" stroke-linejoin="round"/>
</g>
<rect x="306.858" y="155.487" width="28" height="28" rx="14" transform="rotate(-15 306.858 155.487)" fill="#45B369" fill-opacity="0.18"/>
<g clip-path="url(#clip6_336_1390)">
<path d="M322.234 161.03L318.289 162.087C317.991 162.167 317.736 162.363 317.581 162.631C317.426 162.899 317.384 163.217 317.464 163.516L319.578 171.404C319.658 171.703 319.854 171.958 320.122 172.113C320.39 172.267 320.708 172.309 321.007 172.229L328.895 170.115C329.194 170.035 329.449 169.84 329.604 169.572C329.758 169.304 329.8 168.985 329.72 168.687L328.663 164.742" stroke="#45B369" stroke-width="1.2" stroke-linecap="round" stroke-linejoin="round"/>
<path d="M326.233 159.053C326.397 158.768 326.667 158.561 326.984 158.476C327.301 158.391 327.639 158.436 327.923 158.6C328.208 158.764 328.415 159.034 328.5 159.351C328.585 159.668 328.54 160.006 328.376 160.29L324.458 167.077L322.355 168.245L322.314 165.84L326.233 159.053Z" stroke="#45B369" stroke-width="1.2" stroke-linecap="round" stroke-linejoin="round"/>
</g>
<rect x="343.563" y="145.652" width="28" height="28" rx="14" transform="rotate(-15 343.563 145.652)" fill="#F86624" fill-opacity="0.18"/>
<g clip-path="url(#clip7_336_1390)">
<path d="M354.733 153.529L355.86 153.227L364.875 150.812" stroke="#EF4A00" stroke-width="1.2" stroke-linecap="round" stroke-linejoin="round"/>
<path d="M363.748 151.113L365.862 159.002C365.942 159.301 365.9 159.619 365.745 159.887C365.591 160.155 365.336 160.351 365.037 160.431L359.402 161.94C359.103 162.021 358.785 161.979 358.517 161.824C358.249 161.669 358.054 161.414 357.973 161.115L355.86 153.227M357.55 152.774L357.248 151.647C357.168 151.348 357.21 151.03 357.365 150.762C357.519 150.494 357.774 150.298 358.073 150.218L360.327 149.614C360.626 149.534 360.944 149.576 361.212 149.731C361.48 149.886 361.676 150.141 361.756 150.439L362.058 151.566" stroke="#EF4A00" stroke-width="1.2" stroke-linecap="round" stroke-linejoin="round"/>
<path d="M359.432 155.29L360.338 158.67" stroke="#EF4A00" stroke-width="1.2" stroke-linecap="round" stroke-linejoin="round"/>
<path d="M361.686 154.686L362.592 158.066" stroke="#EF4A00" stroke-width="1.2" stroke-linecap="round" stroke-linejoin="round"/>
</g>
<mask id="path-59-inside-13_336_1390" fill="white">
<path d="M257.841 212.103L435.572 164.48L450.066 218.572L272.335 266.195L257.841 212.103Z"/>
</mask>
<path d="M257.841 212.103L435.572 164.48L450.066 218.572L272.335 266.195L257.841 212.103Z" fill="white"/>
<path d="M450.066 218.572L449.807 217.606L272.076 265.229L272.335 266.195L272.594 267.16L450.324 219.538L450.066 218.572Z" fill="#E9E9E9" mask="url(#path-59-inside-13_336_1390)"/>
<rect x="284.647" y="219.414" width="28" height="28" rx="14" transform="rotate(-15 284.647 219.414)" fill="#487FFF" fill-opacity="0.18"/>
<g clip-path="url(#clip8_336_1390)">
<path d="M295.595 230.974C295.595 230.974 296.641 225.863 300.586 224.806C304.53 223.749 307.991 227.653 307.991 227.653C307.991 227.653 306.945 232.765 303.001 233.821C299.057 234.878 295.595 230.974 295.595 230.974Z" stroke="#487FFF" stroke-width="1.2" stroke-linecap="round" stroke-linejoin="round"/>
<path d="M302.246 231.004C303.18 230.754 303.734 229.794 303.484 228.86C303.234 227.927 302.274 227.373 301.341 227.623C300.407 227.873 299.853 228.833 300.103 229.766C300.353 230.7 301.313 231.254 302.246 231.004Z" stroke="#487FFF" stroke-width="1.2" stroke-linecap="round" stroke-linejoin="round"/>
</g>
<rect x="321.352" y="209.579" width="28" height="28" rx="14" transform="rotate(-15 321.352 209.579)" fill="#45B369" fill-opacity="0.18"/>
<g clip-path="url(#clip9_336_1390)">
<path d="M336.727 215.122L332.783 216.179C332.484 216.259 332.23 216.454 332.075 216.722C331.92 216.99 331.878 217.309 331.958 217.608L334.072 225.496C334.152 225.795 334.348 226.05 334.616 226.204C334.884 226.359 335.202 226.401 335.501 226.321L343.389 224.207C343.688 224.127 343.943 223.932 344.098 223.664C344.252 223.396 344.294 223.077 344.214 222.778L343.157 218.834" stroke="#45B369" stroke-width="1.2" stroke-linecap="round" stroke-linejoin="round"/>
<path d="M340.727 213.144C340.891 212.86 341.161 212.653 341.478 212.568C341.795 212.483 342.133 212.527 342.417 212.692C342.701 212.856 342.909 213.126 342.994 213.443C343.079 213.76 343.034 214.098 342.87 214.382L338.952 221.169L336.849 222.336L336.808 219.932L340.727 213.144Z" stroke="#45B369" stroke-width="1.2" stroke-linecap="round" stroke-linejoin="round"/>
</g>
<rect x="358.057" y="199.744" width="28" height="28" rx="14" transform="rotate(-15 358.057 199.744)" fill="#F86624" fill-opacity="0.18"/>
<g clip-path="url(#clip10_336_1390)">
<path d="M369.227 207.621L370.354 207.319L379.369 204.904" stroke="#EF4A00" stroke-width="1.2" stroke-linecap="round" stroke-linejoin="round"/>
<path d="M378.242 205.205L380.356 213.094C380.436 213.392 380.394 213.711 380.239 213.979C380.084 214.247 379.83 214.442 379.531 214.522L373.896 216.032C373.597 216.112 373.279 216.07 373.011 215.916C372.743 215.761 372.547 215.506 372.467 215.207L370.354 207.319M372.044 206.866L371.742 205.739C371.662 205.44 371.704 205.122 371.859 204.854C372.013 204.586 372.268 204.39 372.567 204.31L374.821 203.706C375.12 203.626 375.438 203.668 375.706 203.823C375.974 203.978 376.17 204.232 376.25 204.531L376.552 205.658" stroke="#EF4A00" stroke-width="1.2" stroke-linecap="round" stroke-linejoin="round"/>
<path d="M373.926 209.381L374.832 212.762" stroke="#EF4A00" stroke-width="1.2" stroke-linecap="round" stroke-linejoin="round"/>
<path d="M376.18 208.777L377.086 212.158" stroke="#EF4A00" stroke-width="1.2" stroke-linecap="round" stroke-linejoin="round"/>
</g>
<mask id="path-72-inside-14_336_1390" fill="white">
<path d="M272.335 266.194L450.065 218.572L464.559 272.664L286.829 320.286L272.335 266.194Z"/>
</mask>
<path d="M272.335 266.194L450.065 218.572L464.559 272.664L286.829 320.286L272.335 266.194Z" fill="white"/>
<path d="M464.559 272.664L464.301 271.698L286.57 319.32L286.829 320.286L287.088 321.252L464.818 273.63L464.559 272.664Z" fill="#E9E9E9" mask="url(#path-72-inside-14_336_1390)"/>
<rect x="299.141" y="273.506" width="28" height="28" rx="14" transform="rotate(-15 299.141 273.506)" fill="#487FFF" fill-opacity="0.18"/>
<g clip-path="url(#clip11_336_1390)">
<path d="M310.089 285.066C310.089 285.066 311.135 279.955 315.079 278.898C319.024 277.841 322.485 281.745 322.485 281.745C322.485 281.745 321.439 286.856 317.495 287.913C313.551 288.97 310.089 285.066 310.089 285.066Z" stroke="#487FFF" stroke-width="1.2" stroke-linecap="round" stroke-linejoin="round"/>
<path d="M316.74 285.096C317.674 284.845 318.228 283.886 317.978 282.952C317.728 282.019 316.768 281.465 315.834 281.715C314.901 281.965 314.347 282.925 314.597 283.858C314.847 284.792 315.807 285.346 316.74 285.096Z" stroke="#487FFF" stroke-width="1.2" stroke-linecap="round" stroke-linejoin="round"/>
</g>
<rect x="335.846" y="263.671" width="28" height="28" rx="14" transform="rotate(-15 335.846 263.671)" fill="#45B369" fill-opacity="0.18"/>
<g clip-path="url(#clip12_336_1390)">
<path d="M351.221 269.214L347.277 270.271C346.978 270.351 346.723 270.546 346.569 270.814C346.414 271.082 346.372 271.401 346.452 271.699L348.566 279.588C348.646 279.887 348.842 280.142 349.109 280.296C349.377 280.451 349.696 280.493 349.995 280.413L357.883 278.299C358.182 278.219 358.437 278.023 358.592 277.756C358.746 277.488 358.788 277.169 358.708 276.87L357.651 272.926" stroke="#45B369" stroke-width="1.2" stroke-linecap="round" stroke-linejoin="round"/>
<path d="M355.221 267.236C355.385 266.952 355.655 266.745 355.972 266.66C356.289 266.575 356.627 266.619 356.911 266.783C357.195 266.947 357.403 267.218 357.488 267.535C357.573 267.852 357.528 268.189 357.364 268.474L353.446 275.261L351.343 276.428L351.302 274.023L355.221 267.236Z" stroke="#45B369" stroke-width="1.2" stroke-linecap="round" stroke-linejoin="round"/>
</g>
<rect x="372.551" y="253.835" width="28" height="28" rx="14" transform="rotate(-15 372.551 253.835)" fill="#F86624" fill-opacity="0.18"/>
<g clip-path="url(#clip13_336_1390)">
<path d="M383.721 261.713L384.848 261.411L393.863 258.995" stroke="#EF4A00" stroke-width="1.2" stroke-linecap="round" stroke-linejoin="round"/>
<path d="M392.736 259.297L394.85 267.185C394.93 267.484 394.888 267.803 394.733 268.071C394.578 268.339 394.324 268.534 394.025 268.614L388.39 270.124C388.091 270.204 387.773 270.162 387.505 270.007C387.237 269.853 387.041 269.598 386.961 269.299L384.848 261.411M386.538 260.958L386.236 259.831C386.156 259.532 386.198 259.214 386.353 258.946C386.507 258.678 386.762 258.482 387.061 258.402L389.315 257.798C389.614 257.718 389.932 257.76 390.2 257.915C390.468 258.069 390.664 258.324 390.744 258.623L391.046 259.75" stroke="#EF4A00" stroke-width="1.2" stroke-linecap="round" stroke-linejoin="round"/>
<path d="M388.42 263.473L389.326 266.854" stroke="#EF4A00" stroke-width="1.2" stroke-linecap="round" stroke-linejoin="round"/>
<path d="M390.674 262.869L391.579 266.25" stroke="#EF4A00" stroke-width="1.2" stroke-linecap="round" stroke-linejoin="round"/>
</g>
<mask id="path-85-inside-15_336_1390" fill="white">
<path d="M286.829 320.286L464.559 272.664L479.053 326.756L301.323 374.378L286.829 320.286Z"/>
</mask>
<path d="M286.829 320.286L464.559 272.664L479.053 326.756L301.323 374.378L286.829 320.286Z" fill="white"/>
<path d="M479.053 326.756L478.794 325.79L301.064 373.412L301.323 374.378L301.582 375.344L479.312 327.721L479.053 326.756Z" fill="#E9E9E9" mask="url(#path-85-inside-15_336_1390)"/>
</g>
<rect x="15.6124" y="109.811" width="391" height="329" rx="7.5" transform="rotate(-15 15.6124 109.811)" stroke="#EBECEF"/>
<g filter="url(#filter0_d_336_1390)">
<g clip-path="url(#clip14_336_1390)">
<path d="M298.73 352.865C293.908 350.082 292.256 343.917 295.04 339.096L469.55 36.8357C472.334 32.0145 478.498 30.3627 483.32 33.1462L574.98 86.0662C579.801 88.8497 581.453 95.0145 578.669 99.8357L404.159 402.096C401.376 406.917 395.211 408.569 390.39 405.785L298.73 352.865Z" fill="url(#paint0_linear_336_1390)"/>
<path d="M298.73 352.865C293.908 350.082 292.256 343.917 295.04 339.096L469.55 36.8357C472.334 32.0145 478.498 30.3627 483.32 33.1462L574.98 86.0662C579.801 88.8497 581.453 95.0145 578.669 99.8357L404.159 402.096C401.376 406.917 395.211 408.569 390.39 405.785L298.73 352.865Z" fill="white"/>
<rect x="312.437" y="345.503" width="342.72" height="89.82" rx="6.93" transform="rotate(-60 312.437 345.503)" stroke="#F35418" stroke-width="1.26" stroke-dasharray="7.56 7.56"/>
<g filter="url(#filter1_d_336_1390)">
<path d="M416.324 232.346C406.079 226.431 402.569 213.331 408.484 203.086C414.399 192.841 427.499 189.33 437.744 195.245C447.989 201.16 451.499 214.261 445.584 224.506C439.669 234.751 426.569 238.261 416.324 232.346Z" fill="#F35418"/>
<g clip-path="url(#clip15_336_1390)">
<path d="M422.217 214.933L421.505 212.301L428.482 216.329C428.674 216.44 428.904 216.471 429.119 216.413C429.334 216.355 429.518 216.215 429.629 216.022C429.74 215.829 429.771 215.599 429.713 215.384C429.655 215.169 429.514 214.986 429.322 214.874L422.345 210.846L424.98 210.146C425.087 210.118 425.188 210.069 425.276 210.002C425.364 209.934 425.438 209.85 425.494 209.754C425.549 209.658 425.585 209.552 425.599 209.442C425.613 209.332 425.606 209.22 425.577 209.113C425.548 209.006 425.499 208.906 425.432 208.818C425.364 208.729 425.28 208.656 425.184 208.6C425.088 208.545 424.982 208.509 424.872 208.495C424.762 208.48 424.651 208.488 424.544 208.517L419.954 209.747C419.848 209.778 419.749 209.829 419.662 209.899C419.487 210.034 419.373 210.233 419.343 210.452C419.326 210.561 419.331 210.673 419.357 210.78L420.587 215.37C420.616 215.477 420.665 215.577 420.733 215.665C420.8 215.753 420.884 215.827 420.98 215.882C421.076 215.937 421.182 215.973 421.292 215.988C421.402 216.002 421.513 215.995 421.62 215.966C421.727 215.938 421.827 215.888 421.915 215.821C422.003 215.753 422.077 215.669 422.132 215.573C422.188 215.477 422.224 215.371 422.238 215.262C422.253 215.152 422.245 215.04 422.217 214.933ZM431.954 208.634C431.843 208.827 431.813 209.057 431.87 209.272C431.928 209.487 432.069 209.671 432.262 209.782L435.171 211.462C435.364 211.573 435.505 211.757 435.563 211.972C435.62 212.187 435.59 212.416 435.479 212.609L429.599 222.794C429.487 222.987 429.304 223.128 429.089 223.185C428.874 223.243 428.644 223.213 428.451 223.101L425.542 221.421C425.349 221.31 425.119 221.28 424.904 221.337C424.689 221.395 424.505 221.536 424.394 221.729C424.283 221.922 424.253 222.151 424.31 222.366C424.368 222.581 424.509 222.765 424.702 222.876L427.611 224.556C428.19 224.89 428.878 224.981 429.524 224.808C430.169 224.635 430.72 224.213 431.054 223.634L436.934 213.449C437.268 212.871 437.358 212.183 437.186 211.537C437.013 210.892 436.59 210.341 436.011 210.007L433.102 208.327C432.909 208.216 432.679 208.185 432.464 208.243C432.249 208.301 432.065 208.442 431.954 208.634Z" fill="white"/>
</g>
</g>
<path d="M414.94 293.67L415.772 292.229L422.036 295.845C422.702 296.23 423.202 296.727 423.536 297.338C423.867 297.946 424.016 298.619 423.983 299.356C423.946 300.092 423.708 300.841 423.268 301.603C422.829 302.363 422.301 302.942 421.682 303.341C421.06 303.739 420.403 303.946 419.71 303.964C419.015 303.98 418.334 303.795 417.668 303.411L411.404 299.794L412.234 298.358L418.381 301.907C418.812 302.156 419.249 302.282 419.693 302.286C420.139 302.287 420.559 302.168 420.954 301.929C421.345 301.688 421.679 301.327 421.957 300.846C422.236 300.363 422.382 299.891 422.395 299.432C422.407 298.967 422.299 298.546 422.072 298.166C421.846 297.784 421.518 297.468 421.087 297.22L414.94 293.67ZM429.115 297.296L419.294 291.626L420.078 290.268L421.236 290.937L421.303 290.821C421.201 290.654 421.096 290.438 420.989 290.174C420.881 289.909 420.832 289.6 420.842 289.246C420.849 288.89 420.981 288.491 421.236 288.048C421.569 287.471 422.012 287.041 422.565 286.756C423.118 286.472 423.743 286.36 424.44 286.419C425.139 286.475 425.874 286.726 426.646 287.172C427.418 287.618 428.006 288.128 428.409 288.704C428.809 289.278 429.028 289.876 429.066 290.497C429.101 291.117 428.952 291.715 428.619 292.292C428.369 292.726 428.091 293.039 427.786 293.23C427.483 293.419 427.189 293.534 426.904 293.577C426.619 293.619 426.377 293.638 426.177 293.634L426.128 293.718L429.918 295.906L429.115 297.296ZM423.652 292.325C424.154 292.615 424.637 292.797 425.099 292.869C425.561 292.942 425.979 292.902 426.352 292.75C426.722 292.596 427.023 292.319 427.254 291.919C427.494 291.503 427.584 291.092 427.525 290.686C427.463 290.279 427.282 289.893 426.983 289.53C426.686 289.165 426.299 288.844 425.821 288.568C425.35 288.296 424.886 288.123 424.429 288.049C423.973 287.972 423.555 288.012 423.175 288.169C422.797 288.323 422.487 288.609 422.246 289.027C422.013 289.43 421.92 289.831 421.967 290.23C422.015 290.626 422.184 291.002 422.474 291.36C422.763 291.717 423.156 292.039 423.652 292.325ZM422.382 280.78L431.905 286.278L431.103 287.668L421.58 282.17L422.382 280.78ZM434.867 281.482C434.48 282.152 433.989 282.647 433.394 282.969C432.799 283.291 432.146 283.431 431.435 283.388C430.724 283.345 429.999 283.111 429.262 282.685C428.521 282.257 427.952 281.745 427.557 281.149C427.161 280.553 426.954 279.917 426.935 279.24C426.917 278.564 427.1 277.891 427.487 277.221C427.874 276.552 428.364 276.056 428.959 275.734C429.555 275.412 430.209 275.274 430.923 275.318C431.638 275.363 432.365 275.599 433.106 276.026C433.844 276.452 434.409 276.963 434.801 277.557C435.194 278.152 435.4 278.787 435.418 279.463C435.437 280.139 435.253 280.812 434.867 281.482ZM433.702 280.803C433.953 280.37 434.046 279.944 433.981 279.526C433.916 279.108 433.732 278.721 433.43 278.365C433.129 278.005 432.749 277.693 432.291 277.428C431.835 277.165 431.376 276.993 430.914 276.912C430.451 276.827 430.021 276.86 429.624 277.011C429.227 277.161 428.903 277.454 428.652 277.888C428.4 278.325 428.307 278.755 428.373 279.177C428.441 279.597 428.626 279.987 428.93 280.349C429.233 280.705 429.612 281.015 430.068 281.278C430.526 281.543 430.986 281.717 431.446 281.801C431.908 281.882 432.336 281.846 432.73 281.693C433.126 281.537 433.45 281.241 433.702 280.803ZM438.899 274.53C438.637 274.983 438.317 275.344 437.939 275.613C437.557 275.88 437.143 276.028 436.698 276.056C436.253 276.08 435.797 275.957 435.329 275.687C434.926 275.454 434.639 275.185 434.468 274.88C434.297 274.575 434.212 274.247 434.212 273.895C434.213 273.544 434.268 273.183 434.378 272.813C434.489 272.443 434.621 272.077 434.776 271.716C434.974 271.26 435.134 270.889 435.257 270.605C435.376 270.318 435.434 270.093 435.429 269.929C435.425 269.766 435.339 269.635 435.171 269.539L435.139 269.52C434.733 269.285 434.352 269.218 433.996 269.319C433.642 269.416 433.336 269.69 433.076 270.139C432.806 270.607 432.697 271.036 432.749 271.426C432.8 271.811 432.921 272.127 433.113 272.374L432.061 273.509C431.716 273.103 431.497 272.675 431.402 272.223C431.306 271.767 431.31 271.308 431.415 270.848C431.516 270.386 431.691 269.939 431.94 269.508C432.105 269.223 432.313 268.941 432.566 268.661C432.817 268.376 433.112 268.145 433.45 267.968C433.789 267.788 434.175 267.703 434.607 267.713C435.037 267.721 435.512 267.875 436.033 268.176L440.776 270.914L439.992 272.272L439.015 271.708L438.983 271.764C439.111 271.958 439.21 272.195 439.28 272.475C439.349 272.755 439.36 273.069 439.312 273.417C439.264 273.766 439.126 274.137 438.899 274.53ZM437.957 273.584C438.179 273.199 438.293 272.827 438.299 272.466C438.306 272.103 438.228 271.779 438.066 271.495C437.902 271.206 437.679 270.98 437.397 270.817L436.476 270.286C436.497 270.364 436.488 270.487 436.449 270.655C436.409 270.817 436.352 270.998 436.28 271.195C436.204 271.391 436.129 271.582 436.055 271.766C435.979 271.949 435.915 272.103 435.864 272.226C435.742 272.516 435.658 272.795 435.609 273.065C435.563 273.332 435.577 273.575 435.652 273.796C435.726 274.013 435.886 274.192 436.134 274.335C436.479 274.534 436.812 274.557 437.136 274.405C437.456 274.251 437.73 273.977 437.957 273.584ZM443.528 266.469C443.195 267.046 442.751 267.475 442.195 267.758C441.638 268.036 441.011 268.145 440.313 268.085C439.615 268.021 438.88 267.766 438.108 267.32C437.336 266.875 436.75 266.365 436.35 265.791C435.951 265.213 435.737 264.614 435.707 263.994C435.677 263.373 435.827 262.776 436.158 262.202C436.414 261.759 436.695 261.445 436.999 261.261C437.302 261.073 437.595 260.96 437.876 260.924C438.159 260.885 438.399 260.867 438.596 260.869L438.644 260.785L435.106 258.742L435.908 257.352L445.431 262.85L444.648 264.208L443.536 263.566L443.469 263.682C443.573 263.854 443.676 264.075 443.78 264.346C443.886 264.614 443.933 264.926 443.922 265.283C443.91 265.64 443.779 266.035 443.528 266.469ZM442.519 265.478C442.75 265.078 442.84 264.679 442.788 264.281C442.736 263.879 442.561 263.497 442.265 263.136C441.971 262.772 441.573 262.445 441.071 262.155C440.575 261.869 440.1 261.69 439.646 261.618C439.191 261.545 438.781 261.587 438.414 261.743C438.047 261.899 437.746 262.18 437.511 262.586C437.27 263.005 437.177 263.416 437.233 263.821C437.289 264.225 437.463 264.607 437.756 264.966C438.05 265.322 438.433 265.636 438.904 265.908C439.382 266.183 439.852 266.36 440.316 266.438C440.78 266.515 441.204 266.479 441.588 266.329C441.971 266.174 442.281 265.89 442.519 265.478ZM443.557 244.104L453.08 249.602L452.318 250.923L442.539 251.731L442.488 251.82L449.472 255.852L448.642 257.289L439.119 251.791L439.887 250.461L449.678 249.653L449.729 249.565L442.735 245.527L443.557 244.104ZM456.147 244.623C455.741 245.327 455.241 245.846 454.646 246.181C454.051 246.511 453.399 246.655 452.691 246.614C451.982 246.568 451.257 246.332 450.516 245.904C449.784 245.481 449.218 244.973 448.818 244.378C448.419 243.78 448.205 243.144 448.177 242.47C448.15 241.793 448.328 241.123 448.711 240.46C448.944 240.057 449.236 239.705 449.588 239.404C449.939 239.102 450.345 238.884 450.803 238.748C451.262 238.612 451.77 238.588 452.326 238.678C452.878 238.766 453.479 238.996 454.127 239.371L454.62 239.655L451.342 245.333L450.3 244.731L452.791 240.416C452.426 240.205 452.059 240.092 451.691 240.078C451.319 240.062 450.974 240.142 450.654 240.317C450.336 240.489 450.073 240.754 449.865 241.114C449.64 241.504 449.539 241.901 449.563 242.303C449.586 242.701 449.705 243.067 449.92 243.402C450.135 243.733 450.42 244.001 450.776 244.207L451.59 244.677C452.068 244.952 452.522 245.103 452.953 245.129C453.387 245.152 453.779 245.062 454.131 244.86C454.48 244.657 454.772 244.352 455.007 243.946C455.159 243.682 455.26 243.421 455.311 243.161C455.359 242.899 455.353 242.645 455.292 242.399C455.231 242.154 455.114 241.924 454.939 241.712L455.936 240.533C456.262 240.862 456.493 241.247 456.626 241.688C456.759 242.124 456.788 242.593 456.713 243.096C456.636 243.593 456.448 244.102 456.147 244.623ZM459.549 238.397L451.194 236.375L452.023 234.938L458.076 236.567L458.117 236.497L453.682 232.065L454.512 230.628L460.539 232.248L460.579 232.178L456.16 227.773L456.99 226.336L462.921 232.557L462.103 233.975L456.108 232.448L456.046 232.555L460.366 236.983L459.549 238.397ZM468.739 222.48L466.959 225.563L457.436 220.065L459.272 216.884C459.811 215.951 460.464 215.26 461.232 214.811C461.997 214.359 462.837 214.16 463.753 214.214C464.667 214.262 465.619 214.572 466.608 215.143C467.6 215.716 468.348 216.389 468.851 217.163C469.357 217.935 469.605 218.772 469.595 219.676C469.583 220.578 469.297 221.513 468.739 222.48ZM466.533 223.401L467.438 221.834C467.857 221.109 468.068 220.427 468.073 219.789C468.075 219.15 467.884 218.56 467.501 218.021C467.115 217.479 466.545 216.991 465.792 216.556C465.045 216.125 464.342 215.878 463.683 215.816C463.026 215.751 462.428 215.875 461.888 216.187C461.348 216.5 460.878 217.003 460.477 217.698L459.521 219.353L466.533 223.401ZM474.232 213.3C473.845 213.969 473.354 214.465 472.759 214.787C472.164 215.109 471.511 215.248 470.8 215.206C470.089 215.163 469.364 214.929 468.627 214.503C467.886 214.075 467.318 213.563 466.922 212.967C466.526 212.37 466.319 211.734 466.3 211.058C466.282 210.382 466.466 209.709 466.852 209.039C467.239 208.369 467.73 207.874 468.325 207.552C468.92 207.23 469.574 207.091 470.289 207.136C471.003 207.18 471.73 207.416 472.471 207.844C473.209 208.27 473.774 208.78 474.167 209.375C474.559 209.969 474.765 210.604 474.783 211.281C474.802 211.957 474.618 212.63 474.232 213.3ZM473.067 212.621C473.318 212.187 473.411 211.761 473.346 211.344C473.281 210.926 473.098 210.539 472.795 210.182C472.494 209.823 472.115 209.51 471.656 209.246C471.2 208.982 470.741 208.811 470.279 208.73C469.816 208.644 469.386 208.677 468.989 208.828C468.592 208.979 468.268 209.272 468.017 209.706C467.765 210.143 467.672 210.572 467.738 210.995C467.806 211.414 467.992 211.805 468.295 212.166C468.598 212.523 468.977 212.833 469.433 213.096C469.892 213.361 470.351 213.535 470.811 213.619C471.273 213.699 471.701 213.663 472.095 213.51C472.491 213.355 472.815 213.058 473.067 212.621ZM478.787 205.41C478.388 206.101 477.888 206.606 477.286 206.924C476.684 207.238 476.028 207.367 475.319 207.314C474.61 207.26 473.898 207.026 473.182 206.613C472.456 206.194 471.895 205.688 471.498 205.095C471.097 204.5 470.884 203.864 470.857 203.187C470.83 202.511 471.011 201.836 471.399 201.163C471.713 200.621 472.092 200.195 472.539 199.887C472.983 199.577 473.46 199.395 473.969 199.342C474.481 199.287 474.992 199.372 475.501 199.6L474.72 200.953C474.342 200.835 473.955 200.839 473.559 200.966C473.165 201.089 472.84 201.373 472.585 201.816C472.361 202.204 472.267 202.602 472.303 203.012C472.339 203.417 472.497 203.808 472.779 204.186C473.058 204.561 473.452 204.896 473.96 205.19C474.481 205.49 474.976 205.671 475.446 205.731C475.915 205.791 476.337 205.737 476.711 205.569C477.087 205.397 477.389 205.115 477.616 204.721C477.768 204.458 477.858 204.191 477.885 203.922C477.911 203.648 477.875 203.385 477.776 203.134C477.679 202.879 477.519 202.648 477.296 202.441L478.077 201.088C478.51 201.404 478.836 201.792 479.053 202.253C479.271 202.713 479.362 203.214 479.326 203.756C479.292 204.294 479.113 204.846 478.787 205.41ZM480.845 194.671L476.665 192.257L477.47 190.862L484.613 194.986L483.823 196.353L482.587 195.639L482.544 195.713C482.83 196.098 482.996 196.545 483.04 197.054C483.084 197.559 482.951 198.079 482.641 198.616C482.376 199.074 482.041 199.422 481.636 199.659C481.229 199.892 480.767 199.993 480.251 199.964C479.737 199.931 479.185 199.745 478.596 199.405L474.053 196.782L474.856 195.392L479.231 197.918C479.718 198.199 480.183 198.288 480.627 198.184C481.071 198.081 481.418 197.814 481.666 197.383C481.817 197.123 481.901 196.826 481.919 196.494C481.94 196.158 481.867 195.829 481.702 195.507C481.539 195.181 481.253 194.902 480.845 194.671ZM485.691 193.118L478.549 188.994L479.319 187.66L480.482 188.331L480.533 188.243C480.225 187.867 480.059 187.446 480.034 186.981C480.006 186.514 480.128 186.045 480.4 185.574C480.675 185.097 481.018 184.761 481.427 184.568C481.838 184.371 482.284 184.308 482.764 184.379L482.807 184.304C482.524 183.913 482.377 183.467 482.365 182.964C482.351 182.46 482.492 181.95 482.789 181.436C483.163 180.788 483.671 180.376 484.314 180.202C484.958 180.024 485.689 180.171 486.507 180.644L491.297 183.409L490.494 184.799L485.835 182.109C485.351 181.83 484.925 181.759 484.556 181.898C484.187 182.036 483.897 182.288 483.685 182.654C483.424 183.106 483.36 183.539 483.494 183.951C483.625 184.361 483.908 184.692 484.342 184.942L488.894 187.571L488.094 188.956L483.346 186.215C482.959 185.992 482.578 185.933 482.202 186.038C481.827 186.144 481.528 186.391 481.304 186.778C481.152 187.042 481.081 187.325 481.092 187.629C481.101 187.928 481.189 188.216 481.355 188.494C481.523 188.769 481.768 188.999 482.09 189.185L486.494 191.728L485.691 193.118ZM494.294 178.55C493.888 179.254 493.388 179.773 492.793 180.108C492.198 180.438 491.546 180.582 490.838 180.542C490.129 180.496 489.404 180.259 488.663 179.831C487.931 179.409 487.365 178.9 486.965 178.305C486.566 177.707 486.352 177.071 486.324 176.398C486.297 175.721 486.475 175.051 486.858 174.387C487.091 173.984 487.383 173.632 487.735 173.331C488.086 173.03 488.492 172.811 488.95 172.675C489.409 172.539 489.917 172.516 490.473 172.605C491.025 172.693 491.626 172.924 492.274 173.298L492.766 173.583L489.489 179.26L488.447 178.659L490.938 174.344C490.573 174.132 490.206 174.02 489.838 174.006C489.466 173.99 489.121 174.069 488.801 174.244C488.483 174.416 488.22 174.682 488.012 175.041C487.787 175.432 487.686 175.828 487.71 176.231C487.732 176.628 487.852 176.995 488.067 177.33C488.282 177.66 488.567 177.928 488.923 178.134L489.737 178.604C490.215 178.88 490.669 179.03 491.1 179.056C491.534 179.079 491.926 178.99 492.278 178.788C492.627 178.584 492.919 178.279 493.154 177.873C493.306 177.61 493.407 177.348 493.458 177.088C493.506 176.826 493.5 176.573 493.439 176.327C493.378 176.081 493.261 175.852 493.086 175.639L494.083 174.46C494.409 174.789 494.639 175.174 494.773 175.615C494.906 176.052 494.935 176.521 494.86 177.023C494.783 177.52 494.595 178.03 494.294 178.55ZM493.372 170.021L497.613 172.47L496.81 173.86L489.667 169.737L490.438 168.402L491.6 169.073L491.651 168.985C491.368 168.602 491.213 168.169 491.186 167.687C491.16 167.201 491.302 166.69 491.612 166.154C491.893 165.667 492.242 165.3 492.657 165.052C493.07 164.803 493.534 164.692 494.051 164.722C494.567 164.751 495.12 164.936 495.709 165.276L500.252 167.899L499.449 169.289L495.073 166.763C494.556 166.464 494.073 166.365 493.626 166.467C493.176 166.567 492.815 166.852 492.543 167.323C492.356 167.646 492.261 167.973 492.255 168.304C492.252 168.633 492.342 168.948 492.528 169.249C492.712 169.546 492.994 169.803 493.372 170.021ZM496.111 158.577L497.227 159.221L494.974 163.122L493.858 162.478L496.111 158.577ZM492.751 160.444L493.554 159.053L500.31 162.954C500.58 163.11 500.806 163.187 500.989 163.185C501.169 163.181 501.32 163.13 501.443 163.032C501.565 162.928 501.67 162.801 501.757 162.649C501.822 162.537 501.87 162.435 501.903 162.343C501.936 162.25 501.961 162.178 501.979 162.126L503.272 162.538C503.257 162.636 503.222 162.769 503.167 162.936C503.115 163.104 503.026 163.301 502.9 163.526C502.695 163.895 502.433 164.199 502.114 164.436C501.795 164.674 501.437 164.808 501.039 164.838C500.641 164.869 500.227 164.76 499.796 164.511L492.751 160.444Z" fill="#111827"/>
</g>
<path d="M295.586 339.411L470.095 37.151C472.705 32.6311 478.485 31.0824 483.004 33.692L574.664 86.6119C579.184 89.2214 580.733 95.0012 578.124 99.5211L403.614 401.781C401.004 406.301 395.224 407.849 390.705 405.24L299.045 352.32C294.525 349.71 292.976 343.931 295.586 339.411Z" stroke="#D1D5DB" stroke-opacity="0.5" stroke-width="1.26"/>
</g>
</g>
<defs>
<filter id="filter0_d_336_1390" x="248.42" y="10.4662" width="394.509" height="483.519" filterUnits="userSpaceOnUse" color-interpolation-filters="sRGB">
<feFlood flood-opacity="0" result="BackgroundImageFix"/>
<feColorMatrix in="SourceAlpha" type="matrix" values="0 0 0 0 0 0 0 0 0 0 0 0 0 0 0 0 0 0 127 0" result="hardAlpha"/>
<feOffset dx="8.82" dy="32.76"/>
<feGaussianBlur stdDeviation="25.2"/>
<feComposite in2="hardAlpha" operator="out"/>
<feColorMatrix type="matrix" values="0 0 0 0 0.952941 0 0 0 0 0.329412 0 0 0 0 0.0941176 0 0 0 0.05 0"/>
<feBlend mode="normal" in2="BackgroundImageFix" result="effect1_dropShadow_336_1390"/>
<feBlend mode="normal" in="SourceGraphic" in2="effect1_dropShadow_336_1390" result="shape"/>
</filter>
<filter id="filter1_d_336_1390" x="372.574" y="160.595" width="108.921" height="108.921" filterUnits="userSpaceOnUse" color-interpolation-filters="sRGB">
<feFlood flood-opacity="0" result="BackgroundImageFix"/>
<feColorMatrix in="SourceAlpha" type="matrix" values="0 0 0 0 0 0 0 0 0 0 0 0 0 0 0 0 0 0 127 0" result="hardAlpha"/>
<feOffset dy="1.26"/>
<feGaussianBlur stdDeviation="12.6"/>
<feComposite in2="hardAlpha" operator="out"/>
<feColorMatrix type="matrix" values="0 0 0 0 0 0 0 0 0 0 0 0 0 0 0 0 0 0 0.05 0"/>
<feBlend mode="normal" in2="BackgroundImageFix" result="effect1_dropShadow_336_1390"/>
<feBlend mode="normal" in="SourceGraphic" in2="effect1_dropShadow_336_1390" result="shape"/>
</filter>
<linearGradient id="paint0_linear_336_1390" x1="344.56" y1="379.325" x2="529.15" y2="59.6062" gradientUnits="userSpaceOnUse">
<stop stop-color="#E6EBFF"/>
<stop offset="1" stop-color="white"/>
</linearGradient>
<clipPath id="clip0_336_1390">
<rect width="598" height="296" rx="16" fill="white"/>
</clipPath>
<clipPath id="clip1_336_1390">
<rect x="15" y="109.457" width="392" height="330" rx="8" transform="rotate(-15 15 109.457)" fill="white"/>
</clipPath>
<clipPath id="clip2_336_1390">
<rect width="14" height="14" fill="white" transform="translate(264.232 116.18) rotate(-15)"/>
</clipPath>
<clipPath id="clip3_336_1390">
<rect width="14" height="14" fill="white" transform="translate(300.938 106.345) rotate(-15)"/>
</clipPath>
<clipPath id="clip4_336_1390">
<rect width="14" height="14" fill="white" transform="translate(337.643 96.5096) rotate(-15)"/>
</clipPath>
<clipPath id="clip5_336_1390">
<rect width="14" height="14" fill="white" transform="translate(278.726 170.272) rotate(-15)"/>
</clipPath>
<clipPath id="clip6_336_1390">
<rect width="14" height="14" fill="white" transform="translate(315.432 160.437) rotate(-15)"/>
</clipPath>
<clipPath id="clip7_336_1390">
<rect width="14" height="14" fill="white" transform="translate(352.137 150.602) rotate(-15)"/>
</clipPath>
<clipPath id="clip8_336_1390">
<rect width="14" height="14" fill="white" transform="translate(293.22 224.364) rotate(-15)"/>
</clipPath>
<clipPath id="clip9_336_1390">
<rect width="14" height="14" fill="white" transform="translate(329.925 214.529) rotate(-15)"/>
</clipPath>
<clipPath id="clip10_336_1390">
<rect width="14" height="14" fill="white" transform="translate(366.631 204.693) rotate(-15)"/>
</clipPath>
<clipPath id="clip11_336_1390">
<rect width="14" height="14" fill="white" transform="translate(307.714 278.455) rotate(-15)"/>
</clipPath>
<clipPath id="clip12_336_1390">
<rect width="14" height="14" fill="white" transform="translate(344.419 268.62) rotate(-15)"/>
</clipPath>
<clipPath id="clip13_336_1390">
<rect width="14" height="14" fill="white" transform="translate(381.125 258.785) rotate(-15)"/>
</clipPath>
<clipPath id="clip14_336_1390">
<path d="M298.73 352.865C293.908 350.082 292.256 343.917 295.04 339.096L469.55 36.8357C472.334 32.0145 478.498 30.3627 483.32 33.1462L574.98 86.0662C579.801 88.8497 581.453 95.0145 578.669 99.8357L404.159 402.096C401.376 406.917 395.211 408.569 390.39 405.785L298.73 352.865Z" fill="white"/>
</clipPath>
<clipPath id="clip15_336_1390">
<rect width="20.16" height="20.16" fill="white" transform="translate(412.949 218.031) rotate(-60)"/>
</clipPath>
</defs>
</svg>
